SplineFontDB: 3.0
FontName: IsabelleDejaVuSans
FullName: Isabelle DejaVu Sans
FamilyName: Isabelle DejaVu Sans
Weight: Book
Copyright: Copyright (c) 2003 by Bitstream, Inc. All Rights Reserved.\nCopyright (c) 2006 by Tavmjong Bah. All Rights Reserved.\nDejaVu changes are in public domain
Version: 2.37; ttfautohint (v1.8.1)
ItalicAngle: 0
UnderlinePosition: -265
UnderlineWidth: 90
Ascent: 1556
Descent: 492
InvalidEm: 0
sfntRevision: 0x00025eb8
LayerCount: 2
Layer: 0 1 "Back" 1
Layer: 1 1 "Fore" 0
XUID: [1021 565 -1592343391 366306]
StyleMap: 0x0040
FSType: 0
OS2Version: 1
OS2_WeightWidthSlopeOnly: 0
OS2_UseTypoMetrics: 0
CreationTime: 1469872272
ModificationTime: 1614282306
PfmFamily: 17
TTFWeight: 400
TTFWidth: 5
LineGap: 0
VLineGap: 0
Panose: 2 11 6 3 3 8 4 2 2 4
OS2TypoAscent: 1556
OS2TypoAOffset: 0
OS2TypoDescent: -492
OS2TypoDOffset: 0
OS2TypoLinegap: 410
OS2WinAscent: 1901
OS2WinAOffset: 0
OS2WinDescent: 483
OS2WinDOffset: 0
HheadAscent: 1901
HheadAOffset: 0
HheadDescent: -483
HheadDOffset: 0
OS2SubXSize: 1331
OS2SubYSize: 1433
OS2SubXOff: 0
OS2SubYOff: 286
OS2SupXSize: 1331
OS2SupYSize: 1433
OS2SupXOff: 0
OS2SupYOff: 983
OS2StrikeYSize: 102
OS2StrikeYPos: 530
OS2Vendor: 'PfEd'
OS2CodePages: 600001ff.dfff0000
OS2UnicodeRanges: e7006eff.d200fdff.0a246029.0400200c
Lookup: 6 9 0 "Required Feature in N'Ko lookup 0" { "Required Feature in N'Ko lookup 0 subtable"  } [' RQD' ('DFLT' <'dflt' > 'nko ' <'dflt' > ) ]
Lookup: 6 1 0 "'ccmp' Glyph Composition/Decomposition lookup 1" { "'ccmp' Glyph Composition/Decomposition lookup 1 subtable"  } ['ccmp' ('arab' <'KUR ' 'SND ' 'URD ' 'dflt' > 'hebr' <'dflt' > 'nko ' <'dflt' > ) ]
Lookup: 6 0 0 "'ccmp' Glyph Composition/Decomposition lookup 2" { "'ccmp' Glyph Composition/Decomposition lookup 2 subtable"  } ['ccmp' ('cyrl' <'MKD ' 'SRB ' 'dflt' > 'grek' <'dflt' > 'latn' <'ISM ' 'KSM ' 'LSM ' 'MOL ' 'NSM ' 'ROM ' 'SKS ' 'SSM ' 'dflt' > ) ]

StartChar: uni0005
Encoding: 5 5 3
Width: 1233
GlyphClass: 2
Flags: W
LayerCount: 2
Fore
SplineSet
1071 0 m 1,0,-1
 780 0 l 1,1,-1
 580 512 l 1,2,-1
 180 0 l 1,3,-1
 -143 0 l 1,4,-1
 471 782 l 1,5,-1
 184 1493 l 1,6,-1
 475 1493 l 1,7,-1
 662 1030 l 1,8,-1
 1022 1493 l 1,9,-1
 1343 1493 l 1,10,-1
 770 756 l 1,11,-1
 1071 0 l 1,0,-1
EndSplineSet
Validated: 1
EndChar

StartChar: uni0006
Encoding: 6 6 4
Width: 1233
GlyphClass: 2
Flags: W
LayerCount: 2
Fore
SplineSet
145 1493 m 1,0,-1
 438 1493 l 1,1,-1
 625 844 l 1,2,-1
 1036 1493 l 1,3,-1
 1358 1493 l 1,4,-1
 725 588 l 1,5,-1
 610 0 l 1,6,-1
 317 0 l 1,7,-1
 432 588 l 1,8,-1
 145 1493 l 1,0,-1
EndSplineSet
Validated: 1
EndChar

StartChar: uni0007
Encoding: 7 7 5
Width: 1233
GlyphClass: 2
Flags: W
LayerCount: 2
Fore
SplineSet
104 -362 m 1,0,-1
 104 1444 l 1,1,-1
 1128 1444 l 1,2,-1
 1128 -362 l 1,3,-1
 104 -362 l 1,0,-1
219 -248 m 1,4,-1
 1014 -248 l 1,5,-1
 1014 1329 l 1,6,-1
 219 1329 l 1,7,-1
 219 -248 l 1,4,-1
EndSplineSet
Validated: 1
EndChar

StartChar: exclam
Encoding: 33 33 7
Width: 821
GlyphClass: 2
Flags: W
LayerCount: 2
Fore
SplineSet
309 254 m 1,0,-1
 512 254 l 1,1,-1
 512 0 l 1,2,-1
 309 0 l 1,3,-1
 309 254 l 1,0,-1
309 1493 m 1,4,-1
 512 1493 l 1,5,-1
 512 838 l 1,6,-1
 492 481 l 1,7,-1
 330 481 l 1,8,-1
 309 838 l 1,9,-1
 309 1493 l 1,4,-1
EndSplineSet
Validated: 1
EndChar

StartChar: quotedbl
Encoding: 34 34 8
Width: 942
GlyphClass: 2
Flags: W
LayerCount: 2
Fore
SplineSet
367 1493 m 1,0,-1
 367 938 l 1,1,-1
 197 938 l 1,2,-1
 197 1493 l 1,3,-1
 367 1493 l 1,0,-1
745 1493 m 1,4,-1
 745 938 l 1,5,-1
 575 938 l 1,6,-1
 575 1493 l 1,7,-1
 745 1493 l 1,4,-1
EndSplineSet
Validated: 1
EndChar

StartChar: numbersign
Encoding: 35 35 9
Width: 1716
GlyphClass: 2
Flags: W
LayerCount: 2
Fore
SplineSet
1047 901 m 1,0,-1
 756 901 l 1,1,-1
 672 567 l 1,2,-1
 965 567 l 1,3,-1
 1047 901 l 1,0,-1
897 1470 m 1,4,-1
 793 1055 l 1,5,-1
 1085 1055 l 1,6,-1
 1190 1470 l 1,7,-1
 1350 1470 l 1,8,-1
 1247 1055 l 1,9,-1
 1559 1055 l 1,10,-1
 1559 901 l 1,11,-1
 1208 901 l 1,12,-1
 1126 567 l 1,13,-1
 1444 567 l 1,14,-1
 1444 414 l 1,15,-1
 1087 414 l 1,16,-1
 983 0 l 1,17,-1
 823 0 l 1,18,-1
 926 414 l 1,19,-1
 633 414 l 1,20,-1
 530 0 l 1,21,-1
 369 0 l 1,22,-1
 473 414 l 1,23,-1
 158 414 l 1,24,-1
 158 567 l 1,25,-1
 510 567 l 1,26,-1
 594 901 l 1,27,-1
 272 901 l 1,28,-1
 272 1055 l 1,29,-1
 633 1055 l 1,30,-1
 735 1470 l 1,31,-1
 897 1470 l 1,4,-1
EndSplineSet
Validated: 1
EndChar

StartChar: dollar
Encoding: 36 36 10
Width: 1303
GlyphClass: 2
Flags: W
LayerCount: 2
Fore
SplineSet
692 -301 m 1,0,-1
 592 -301 l 1,1,-1
 591 0 l 1,2,3
 486 2 486 2 381 24.5 c 128,-1,4
 276 47 276 47 170 92 c 1,5,-1
 170 272 l 1,6,7
 272 208 272 208 376.5 175.5 c 128,-1,8
 481 143 481 143 592 142 c 1,9,-1
 592 598 l 1,10,11
 371 634 371 634 270.5 720 c 128,-1,12
 170 806 170 806 170 956 c 0,13,14
 170 1119 170 1119 279 1213 c 128,-1,15
 388 1307 388 1307 592 1321 c 1,16,-1
 592 1556 l 1,17,-1
 692 1556 l 1,18,-1
 692 1324 l 1,19,20
 785 1320 785 1320 872 1304.5 c 128,-1,21
 959 1289 959 1289 1042 1262 c 1,22,-1
 1042 1087 l 1,23,24
 959 1129 959 1129 871.5 1152 c 128,-1,25
 784 1175 784 1175 692 1179 c 1,26,-1
 692 752 l 1,27,28
 919 717 919 717 1026 627 c 128,-1,29
 1133 537 1133 537 1133 381 c 0,30,31
 1133 212 1133 212 1019.5 114.5 c 128,-1,32
 906 17 906 17 692 2 c 1,33,-1
 692 -301 l 1,0,-1
592 770 m 1,34,-1
 592 1180 l 1,35,36
 476 1167 476 1167 415 1114 c 128,-1,37
 354 1061 354 1061 354 973 c 0,38,39
 354 887 354 887 410.5 839 c 128,-1,40
 467 791 467 791 592 770 c 1,34,-1
692 578 m 1,41,-1
 692 145 l 1,42,43
 819 162 819 162 883.5 217 c 128,-1,44
 948 272 948 272 948 362 c 0,45,46
 948 450 948 450 886.5 502 c 128,-1,47
 825 554 825 554 692 578 c 1,41,-1
EndSplineSet
Validated: 1
EndChar

StartChar: percent
Encoding: 37 37 11
Width: 1946
GlyphClass: 2
Flags: W
LayerCount: 2
Fore
SplineSet
1489 657 m 0,0,1
 1402 657 1402 657 1352.5 583 c 128,-1,2
 1303 509 1303 509 1303 377 c 0,3,4
 1303 247 1303 247 1352.5 172.5 c 128,-1,5
 1402 98 1402 98 1489 98 c 0,6,7
 1574 98 1574 98 1623.5 172.5 c 128,-1,8
 1673 247 1673 247 1673 377 c 0,9,10
 1673 508 1673 508 1623.5 582.5 c 128,-1,11
 1574 657 1574 657 1489 657 c 0,0,1
1489 784 m 0,12,13
 1647 784 1647 784 1740 674 c 128,-1,14
 1833 564 1833 564 1833 377 c 256,15,16
 1833 190 1833 190 1739.5 80.5 c 128,-1,17
 1646 -29 1646 -29 1489 -29 c 0,18,19
 1329 -29 1329 -29 1236 80.5 c 128,-1,20
 1143 190 1143 190 1143 377 c 0,21,22
 1143 565 1143 565 1236.5 674.5 c 128,-1,23
 1330 784 1330 784 1489 784 c 0,12,13
457 1393 m 256,24,25
 371 1393 371 1393 321.5 1318.5 c 128,-1,26
 272 1244 272 1244 272 1114 c 0,27,28
 272 982 272 982 321 908 c 128,-1,29
 370 834 370 834 457 834 c 256,30,31
 544 834 544 834 593.5 908 c 128,-1,32
 643 982 643 982 643 1114 c 0,33,34
 643 1243 643 1243 593 1318 c 128,-1,35
 543 1393 543 1393 457 1393 c 256,24,25
1360 1520 m 1,36,-1
 1520 1520 l 1,37,-1
 586 -29 l 1,38,-1
 426 -29 l 1,39,-1
 1360 1520 l 1,36,-1
457 1520 m 256,40,41
 615 1520 615 1520 709 1410.5 c 128,-1,42
 803 1301 803 1301 803 1114 c 0,43,44
 803 925 803 925 709.5 816 c 128,-1,45
 616 707 616 707 457 707 c 256,46,47
 298 707 298 707 205.5 816.5 c 128,-1,48
 113 926 113 926 113 1114 c 0,49,50
 113 1300 113 1300 206 1410 c 128,-1,51
 299 1520 299 1520 457 1520 c 256,40,41
EndSplineSet
Validated: 1
EndChar

StartChar: ampersand
Encoding: 38 38 12
Width: 1597
GlyphClass: 2
Flags: W
LayerCount: 2
Fore
SplineSet
498 803 m 1,0,1
 407 722 407 722 364.5 641.5 c 128,-1,2
 322 561 322 561 322 473 c 0,3,4
 322 327 322 327 428 230 c 128,-1,5
 534 133 534 133 694 133 c 0,6,7
 789 133 789 133 872 164.5 c 128,-1,8
 955 196 955 196 1028 260 c 1,9,-1
 498 803 l 1,0,1
639 915 m 2,10,-1
 1147 395 l 1,11,12
 1206 484 1206 484 1239 585.5 c 128,-1,13
 1272 687 1272 687 1278 801 c 1,14,-1
 1464 801 l 1,15,16
 1452 669 1452 669 1400 540 c 128,-1,17
 1348 411 1348 411 1255 285 c 1,18,-1
 1534 0 l 1,19,-1
 1282 0 l 1,20,-1
 1139 147 l 1,21,22
 1035 58 1035 58 921 14.5 c 128,-1,23
 807 -29 807 -29 676 -29 c 0,24,25
 435 -29 435 -29 282 108.5 c 128,-1,26
 129 246 129 246 129 461 c 0,27,28
 129 589 129 589 196 701.5 c 128,-1,29
 263 814 263 814 397 913 c 1,30,31
 349 976 349 976 324 1038.5 c 128,-1,32
 299 1101 299 1101 299 1161 c 0,33,34
 299 1323 299 1323 410 1421.5 c 128,-1,35
 521 1520 521 1520 705 1520 c 0,36,37
 788 1520 788 1520 870.5 1502 c 128,-1,38
 953 1484 953 1484 1038 1448 c 1,39,-1
 1038 1266 l 1,40,41
 951 1313 951 1313 872 1337.5 c 128,-1,42
 793 1362 793 1362 725 1362 c 0,43,44
 620 1362 620 1362 554.5 1306.5 c 128,-1,45
 489 1251 489 1251 489 1163 c 0,46,47
 489 1112 489 1112 518.5 1060.5 c 128,-1,48
 548 1009 548 1009 639 915 c 2,10,-1
EndSplineSet
Validated: 1
EndChar

StartChar: quotesingle
Encoding: 39 39 13
Width: 563
GlyphClass: 2
Flags: W
LayerCount: 2
Fore
SplineSet
367 1493 m 1,0,-1
 367 938 l 1,1,-1
 197 938 l 1,2,-1
 197 1493 l 1,3,-1
 367 1493 l 1,0,-1
EndSplineSet
Validated: 1
EndChar

StartChar: parenleft
Encoding: 40 40 14
Width: 799
GlyphClass: 2
Flags: W
LayerCount: 2
Fore
SplineSet
635 1554 m 1,0,1
 501 1324 501 1324 436 1099 c 128,-1,2
 371 874 371 874 371 643 c 256,3,4
 371 412 371 412 436.5 185.5 c 128,-1,5
 502 -41 502 -41 635 -270 c 1,6,-1
 475 -270 l 1,7,8
 325 -35 325 -35 250.5 192 c 128,-1,9
 176 419 176 419 176 643 c 0,10,11
 176 866 176 866 250 1092 c 128,-1,12
 324 1318 324 1318 475 1554 c 1,13,-1
 635 1554 l 1,0,1
EndSplineSet
Validated: 1
EndChar

StartChar: parenright
Encoding: 41 41 15
Width: 799
GlyphClass: 2
Flags: W
LayerCount: 2
Fore
SplineSet
164 1554 m 1,0,-1
 324 1554 l 1,1,2
 474 1318 474 1318 548.5 1092 c 128,-1,3
 623 866 623 866 623 643 c 0,4,5
 623 419 623 419 548.5 192 c 128,-1,6
 474 -35 474 -35 324 -270 c 1,7,-1
 164 -270 l 1,8,9
 297 -41 297 -41 362.5 185.5 c 128,-1,10
 428 412 428 412 428 643 c 256,11,12
 428 874 428 874 362.5 1099 c 128,-1,13
 297 1324 297 1324 164 1554 c 1,0,-1
EndSplineSet
Validated: 1
EndChar

StartChar: asterisk
Encoding: 42 42 16
Width: 1024
GlyphClass: 2
Flags: W
LayerCount: 2
Fore
SplineSet
963 1247 m 1,0,-1
 604 1053 l 1,1,-1
 963 858 l 1,2,-1
 905 760 l 1,3,-1
 569 963 l 1,4,-1
 569 586 l 1,5,-1
 455 586 l 1,6,-1
 455 963 l 1,7,-1
 119 760 l 1,8,-1
 61 858 l 1,9,-1
 420 1053 l 1,10,-1
 61 1247 l 1,11,-1
 119 1346 l 1,12,-1
 455 1143 l 1,13,-1
 455 1520 l 1,14,-1
 569 1520 l 1,15,-1
 569 1143 l 1,16,-1
 905 1346 l 1,17,-1
 963 1247 l 1,0,-1
EndSplineSet
Validated: 1
EndChar

StartChar: plus
Encoding: 43 43 17
Width: 1716
GlyphClass: 2
Flags: W
LayerCount: 2
Fore
SplineSet
942 1284 m 1,0,-1
 942 727 l 1,1,-1
 1499 727 l 1,2,-1
 1499 557 l 1,3,-1
 942 557 l 1,4,-1
 942 0 l 1,5,-1
 774 0 l 1,6,-1
 774 557 l 1,7,-1
 217 557 l 1,8,-1
 217 727 l 1,9,-1
 774 727 l 1,10,-1
 774 1284 l 1,11,-1
 942 1284 l 1,0,-1
EndSplineSet
Validated: 1
EndChar

StartChar: comma
Encoding: 44 44 18
Width: 651
GlyphClass: 2
Flags: W
LayerCount: 2
Fore
SplineSet
240 254 m 1,0,-1
 451 254 l 1,1,-1
 451 82 l 1,2,-1
 287 -238 l 1,3,-1
 158 -238 l 1,4,-1
 240 82 l 1,5,-1
 240 254 l 1,0,-1
EndSplineSet
Validated: 1
EndChar

StartChar: hyphen
Encoding: 45 45 19
Width: 739
GlyphClass: 2
Flags: W
LayerCount: 2
Fore
SplineSet
100 643 m 1,0,-1
 639 643 l 1,1,-1
 639 479 l 1,2,-1
 100 479 l 1,3,-1
 100 643 l 1,0,-1
EndSplineSet
Validated: 1
EndChar

StartChar: period
Encoding: 46 46 20
Width: 651
GlyphClass: 2
Flags: W
LayerCount: 2
Fore
SplineSet
219 254 m 1,0,-1
 430 254 l 1,1,-1
 430 0 l 1,2,-1
 219 0 l 1,3,-1
 219 254 l 1,0,-1
EndSplineSet
Validated: 1
EndChar

StartChar: slash
Encoding: 47 47 21
Width: 690
GlyphClass: 2
Flags: W
LayerCount: 2
Fore
SplineSet
520 1493 m 1,0,-1
 690 1493 l 1,1,-1
 170 -190 l 1,2,-1
 0 -190 l 1,3,-1
 520 1493 l 1,0,-1
EndSplineSet
Validated: 1
EndChar

StartChar: zero
Encoding: 48 48 22
Width: 1303
GlyphClass: 2
Flags: W
AnchorPoint: "Anchor-4" 651 1520 basechar 0
LayerCount: 2
Fore
SplineSet
651 1360 m 0,0,1
 495 1360 495 1360 416.5 1206.5 c 128,-1,2
 338 1053 338 1053 338 745 c 0,3,4
 338 438 338 438 416.5 284.5 c 128,-1,5
 495 131 495 131 651 131 c 0,6,7
 808 131 808 131 886.5 284.5 c 128,-1,8
 965 438 965 438 965 745 c 0,9,10
 965 1053 965 1053 886.5 1206.5 c 128,-1,11
 808 1360 808 1360 651 1360 c 0,0,1
651 1520 m 256,12,13
 902 1520 902 1520 1034.5 1321.5 c 128,-1,14
 1167 1123 1167 1123 1167 745 c 0,15,16
 1167 368 1167 368 1034.5 169.5 c 128,-1,17
 902 -29 902 -29 651 -29 c 256,18,19
 400 -29 400 -29 267.5 169.5 c 128,-1,20
 135 368 135 368 135 745 c 0,21,22
 135 1123 135 1123 267.5 1321.5 c 128,-1,23
 400 1520 400 1520 651 1520 c 256,12,13
EndSplineSet
Validated: 1
EndChar

StartChar: one
Encoding: 49 49 23
Width: 1303
GlyphClass: 2
Flags: W
AnchorPoint: "Anchor-4" 651 1520 basechar 0
LayerCount: 2
Fore
SplineSet
254 170 m 1,0,-1
 584 170 l 1,1,-1
 584 1309 l 1,2,-1
 225 1237 l 1,3,-1
 225 1421 l 1,4,-1
 582 1493 l 1,5,-1
 784 1493 l 1,6,-1
 784 170 l 1,7,-1
 1114 170 l 1,8,-1
 1114 0 l 1,9,-1
 254 0 l 1,10,-1
 254 170 l 1,0,-1
EndSplineSet
Validated: 1
EndChar

StartChar: two
Encoding: 50 50 24
Width: 1303
GlyphClass: 2
Flags: W
AnchorPoint: "Anchor-4" 651 1520 basechar 0
LayerCount: 2
Fore
SplineSet
393 170 m 1,0,-1
 1098 170 l 1,1,-1
 1098 0 l 1,2,-1
 150 0 l 1,3,-1
 150 170 l 1,4,5
 265 289 265 289 463.5 489.5 c 128,-1,6
 662 690 662 690 713 748 c 0,7,8
 810 857 810 857 848.5 932.5 c 128,-1,9
 887 1008 887 1008 887 1081 c 0,10,11
 887 1200 887 1200 803.5 1275 c 128,-1,12
 720 1350 720 1350 586 1350 c 0,13,14
 491 1350 491 1350 385.5 1317 c 128,-1,15
 280 1284 280 1284 160 1217 c 1,16,-1
 160 1421 l 1,17,18
 282 1470 282 1470 388 1495 c 128,-1,19
 494 1520 494 1520 582 1520 c 0,20,21
 814 1520 814 1520 952 1404 c 128,-1,22
 1090 1288 1090 1288 1090 1094 c 0,23,24
 1090 1002 1090 1002 1055.5 919.5 c 128,-1,25
 1021 837 1021 837 930 725 c 0,26,27
 905 696 905 696 771 557.5 c 128,-1,28
 637 419 637 419 393 170 c 1,0,-1
EndSplineSet
Validated: 1
EndChar

StartChar: three
Encoding: 51 51 25
Width: 1303
GlyphClass: 2
Flags: W
AnchorPoint: "Anchor-4" 651 1520 basechar 0
LayerCount: 2
Fore
SplineSet
831 805 m 1,0,1
 976 774 976 774 1057.5 676 c 128,-1,2
 1139 578 1139 578 1139 434 c 0,3,4
 1139 213 1139 213 987 92 c 128,-1,5
 835 -29 835 -29 555 -29 c 0,6,7
 461 -29 461 -29 361.5 -10.5 c 128,-1,8
 262 8 262 8 156 45 c 1,9,-1
 156 240 l 1,10,11
 240 191 240 191 340 166 c 128,-1,12
 440 141 440 141 549 141 c 0,13,14
 739 141 739 141 838.5 216 c 128,-1,15
 938 291 938 291 938 434 c 0,16,17
 938 566 938 566 845.5 640.5 c 128,-1,18
 753 715 753 715 588 715 c 2,19,-1
 414 715 l 1,20,-1
 414 881 l 1,21,-1
 596 881 l 2,22,23
 745 881 745 881 824 940.5 c 128,-1,24
 903 1000 903 1000 903 1112 c 0,25,26
 903 1227 903 1227 821.5 1288.5 c 128,-1,27
 740 1350 740 1350 588 1350 c 0,28,29
 505 1350 505 1350 410 1332 c 128,-1,30
 315 1314 315 1314 201 1276 c 1,31,-1
 201 1456 l 1,32,33
 316 1488 316 1488 416.5 1504 c 128,-1,34
 517 1520 517 1520 606 1520 c 0,35,36
 836 1520 836 1520 970 1415.5 c 128,-1,37
 1104 1311 1104 1311 1104 1133 c 0,38,39
 1104 1009 1104 1009 1033 923.5 c 128,-1,40
 962 838 962 838 831 805 c 1,0,1
EndSplineSet
Validated: 1
EndChar

StartChar: four
Encoding: 52 52 26
Width: 1303
GlyphClass: 2
Flags: W
AnchorPoint: "Anchor-4" 651 1520 basechar 0
LayerCount: 2
Fore
SplineSet
774 1317 m 1,0,-1
 264 520 l 1,1,-1
 774 520 l 1,2,-1
 774 1317 l 1,0,-1
721 1493 m 1,3,-1
 975 1493 l 1,4,-1
 975 520 l 1,5,-1
 1188 520 l 1,6,-1
 1188 352 l 1,7,-1
 975 352 l 1,8,-1
 975 0 l 1,9,-1
 774 0 l 1,10,-1
 774 352 l 1,11,-1
 100 352 l 1,12,-1
 100 547 l 1,13,-1
 721 1493 l 1,3,-1
EndSplineSet
Validated: 1
EndChar

StartChar: five
Encoding: 53 53 27
Width: 1303
GlyphClass: 2
Flags: W
AnchorPoint: "Anchor-4" 651 1520 basechar 0
LayerCount: 2
Fore
SplineSet
221 1493 m 1,0,-1
 1014 1493 l 1,1,-1
 1014 1323 l 1,2,-1
 406 1323 l 1,3,-1
 406 957 l 1,4,5
 450 972 450 972 494 979.5 c 128,-1,6
 538 987 538 987 582 987 c 0,7,8
 832 987 832 987 978 850 c 128,-1,9
 1124 713 1124 713 1124 479 c 0,10,11
 1124 238 1124 238 974 104.5 c 128,-1,12
 824 -29 824 -29 551 -29 c 0,13,14
 457 -29 457 -29 359.5 -13 c 128,-1,15
 262 3 262 3 158 35 c 1,16,-1
 158 238 l 1,17,18
 248 189 248 189 344 165 c 128,-1,19
 440 141 440 141 547 141 c 0,20,21
 720 141 720 141 821 232 c 128,-1,22
 922 323 922 323 922 479 c 256,23,24
 922 635 922 635 821 726 c 128,-1,25
 720 817 720 817 547 817 c 0,26,27
 466 817 466 817 385.5 799 c 128,-1,28
 305 781 305 781 221 743 c 1,29,-1
 221 1493 l 1,0,-1
EndSplineSet
Validated: 1
EndChar

StartChar: six
Encoding: 54 54 28
Width: 1303
GlyphClass: 2
Flags: W
AnchorPoint: "Anchor-4" 651 1520 basechar 0
LayerCount: 2
Fore
SplineSet
676 827 m 256,0,1
 540 827 540 827 460.5 734 c 128,-1,2
 381 641 381 641 381 479 c 0,3,4
 381 318 381 318 460.5 224.5 c 128,-1,5
 540 131 540 131 676 131 c 256,6,7
 812 131 812 131 891.5 224.5 c 128,-1,8
 971 318 971 318 971 479 c 0,9,10
 971 641 971 641 891.5 734 c 128,-1,11
 812 827 812 827 676 827 c 256,0,1
1077 1460 m 1,12,-1
 1077 1276 l 1,13,14
 1001 1312 1001 1312 923.5 1331 c 128,-1,15
 846 1350 846 1350 770 1350 c 0,16,17
 570 1350 570 1350 464.5 1215 c 128,-1,18
 359 1080 359 1080 344 807 c 1,19,20
 403 894 403 894 492 940.5 c 128,-1,21
 581 987 581 987 688 987 c 0,22,23
 913 987 913 987 1043.5 850.5 c 128,-1,24
 1174 714 1174 714 1174 479 c 0,25,26
 1174 249 1174 249 1038 110 c 128,-1,27
 902 -29 902 -29 676 -29 c 0,28,29
 417 -29 417 -29 280 169.5 c 128,-1,30
 143 368 143 368 143 745 c 0,31,32
 143 1099 143 1099 311 1309.5 c 128,-1,33
 479 1520 479 1520 762 1520 c 0,34,35
 838 1520 838 1520 915.5 1505 c 128,-1,36
 993 1490 993 1490 1077 1460 c 1,12,-1
EndSplineSet
Validated: 1
EndChar

StartChar: seven
Encoding: 55 55 29
Width: 1303
GlyphClass: 2
Flags: W
AnchorPoint: "Anchor-4" 651 1520 basechar 0
LayerCount: 2
Fore
SplineSet
168 1493 m 1,0,-1
 1128 1493 l 1,1,-1
 1128 1407 l 1,2,-1
 586 0 l 1,3,-1
 375 0 l 1,4,-1
 885 1323 l 1,5,-1
 168 1323 l 1,6,-1
 168 1493 l 1,0,-1
EndSplineSet
Validated: 1
EndChar

StartChar: eight
Encoding: 56 56 30
Width: 1303
GlyphClass: 2
Flags: W
AnchorPoint: "Anchor-4" 651 1520 basechar 0
LayerCount: 2
Fore
SplineSet
651 709 m 0,0,1
 507 709 507 709 424.5 632 c 128,-1,2
 342 555 342 555 342 420 c 256,3,4
 342 285 342 285 424.5 208 c 128,-1,5
 507 131 507 131 651 131 c 256,6,7
 795 131 795 131 878 208.5 c 128,-1,8
 961 286 961 286 961 420 c 0,9,10
 961 555 961 555 878.5 632 c 128,-1,11
 796 709 796 709 651 709 c 0,0,1
449 795 m 1,12,13
 319 827 319 827 246.5 916 c 128,-1,14
 174 1005 174 1005 174 1133 c 0,15,16
 174 1312 174 1312 301.5 1416 c 128,-1,17
 429 1520 429 1520 651 1520 c 0,18,19
 874 1520 874 1520 1001 1416 c 128,-1,20
 1128 1312 1128 1312 1128 1133 c 0,21,22
 1128 1005 1128 1005 1055.5 916 c 128,-1,23
 983 827 983 827 854 795 c 1,24,25
 1000 761 1000 761 1081.5 662 c 128,-1,26
 1163 563 1163 563 1163 420 c 0,27,28
 1163 203 1163 203 1030.5 87 c 128,-1,29
 898 -29 898 -29 651 -29 c 256,30,31
 404 -29 404 -29 271.5 87 c 128,-1,32
 139 203 139 203 139 420 c 0,33,34
 139 563 139 563 221 662 c 128,-1,35
 303 761 303 761 449 795 c 1,12,13
375 1114 m 256,36,37
 375 998 375 998 447.5 933 c 128,-1,38
 520 868 520 868 651 868 c 0,39,40
 781 868 781 868 854.5 933 c 128,-1,41
 928 998 928 998 928 1114 c 256,42,43
 928 1230 928 1230 854.5 1295 c 128,-1,44
 781 1360 781 1360 651 1360 c 0,45,46
 520 1360 520 1360 447.5 1295 c 128,-1,47
 375 1230 375 1230 375 1114 c 256,36,37
EndSplineSet
Validated: 1
EndChar

StartChar: nine
Encoding: 57 57 31
Width: 1303
GlyphClass: 2
Flags: W
AnchorPoint: "Anchor-4" 651 1520 basechar 0
LayerCount: 2
Fore
SplineSet
225 31 m 1,0,-1
 225 215 l 1,1,2
 301 179 301 179 379 160 c 128,-1,3
 457 141 457 141 532 141 c 0,4,5
 732 141 732 141 837.5 275.5 c 128,-1,6
 943 410 943 410 958 684 c 1,7,8
 900 598 900 598 811 552 c 128,-1,9
 722 506 722 506 614 506 c 0,10,11
 390 506 390 506 259.5 641.5 c 128,-1,12
 129 777 129 777 129 1012 c 0,13,14
 129 1242 129 1242 265 1381 c 128,-1,15
 401 1520 401 1520 627 1520 c 0,16,17
 886 1520 886 1520 1022.5 1321.5 c 128,-1,18
 1159 1123 1159 1123 1159 745 c 0,19,20
 1159 392 1159 392 991.5 181.5 c 128,-1,21
 824 -29 824 -29 541 -29 c 0,22,23
 465 -29 465 -29 387 -14 c 128,-1,24
 309 1 309 1 225 31 c 1,0,-1
627 664 m 256,25,26
 763 664 763 664 842.5 757 c 128,-1,27
 922 850 922 850 922 1012 c 0,28,29
 922 1173 922 1173 842.5 1266.5 c 128,-1,30
 763 1360 763 1360 627 1360 c 256,31,32
 491 1360 491 1360 411.5 1266.5 c 128,-1,33
 332 1173 332 1173 332 1012 c 0,34,35
 332 850 332 850 411.5 757 c 128,-1,36
 491 664 491 664 627 664 c 256,25,26
EndSplineSet
Validated: 1
EndChar

StartChar: colon
Encoding: 58 58 32
Width: 690
GlyphClass: 2
Flags: W
LayerCount: 2
Fore
SplineSet
240 254 m 1,0,-1
 451 254 l 1,1,-1
 451 0 l 1,2,-1
 240 0 l 1,3,-1
 240 254 l 1,0,-1
240 1059 m 1,4,-1
 451 1059 l 1,5,-1
 451 805 l 1,6,-1
 240 805 l 1,7,-1
 240 1059 l 1,4,-1
EndSplineSet
Validated: 1
EndChar

StartChar: semicolon
Encoding: 59 59 33
Width: 690
GlyphClass: 2
Flags: W
LayerCount: 2
Fore
SplineSet
240 1059 m 1,0,-1
 451 1059 l 1,1,-1
 451 805 l 1,2,-1
 240 805 l 1,3,-1
 240 1059 l 1,0,-1
240 254 m 1,4,-1
 451 254 l 1,5,-1
 451 82 l 1,6,-1
 287 -238 l 1,7,-1
 158 -238 l 1,8,-1
 240 82 l 1,9,-1
 240 254 l 1,4,-1
EndSplineSet
Validated: 1
EndChar

StartChar: less
Encoding: 60 60 34
Width: 1716
GlyphClass: 2
Flags: W
LayerCount: 2
Fore
SplineSet
1499 1008 m 1,0,-1
 467 641 l 1,1,-1
 1499 276 l 1,2,-1
 1499 94 l 1,3,-1
 217 559 l 1,4,-1
 217 725 l 1,5,-1
 1499 1190 l 1,6,-1
 1499 1008 l 1,0,-1
EndSplineSet
Validated: 1
EndChar

StartChar: equal
Encoding: 61 61 35
Width: 1716
GlyphClass: 2
Flags: W
GlyphCompositionHorizontal: 2  equal%0,0,40,1282 equal%1,40,0,1282
LayerCount: 2
Fore
SplineSet
217 930 m 1,0,-1
 1499 930 l 1,1,-1
 1499 762 l 1,2,-1
 217 762 l 1,3,-1
 217 930 l 1,0,-1
217 522 m 1,4,-1
 1499 522 l 1,5,-1
 1499 352 l 1,6,-1
 217 352 l 1,7,-1
 217 522 l 1,4,-1
EndSplineSet
Validated: 1
EndChar

StartChar: greater
Encoding: 62 62 36
Width: 1716
GlyphClass: 2
Flags: W
LayerCount: 2
Fore
SplineSet
217 1008 m 1,0,-1
 217 1190 l 1,1,-1
 1499 725 l 1,2,-1
 1499 559 l 1,3,-1
 217 94 l 1,4,-1
 217 276 l 1,5,-1
 1247 641 l 1,6,-1
 217 1008 l 1,0,-1
EndSplineSet
Validated: 1
EndChar

StartChar: question
Encoding: 63 63 37
Width: 1087
GlyphClass: 2
Flags: W
LayerCount: 2
Fore
SplineSet
391 254 m 1,0,-1
 594 254 l 1,1,-1
 594 0 l 1,2,-1
 391 0 l 1,3,-1
 391 254 l 1,0,-1
588 401 m 1,4,-1
 397 401 l 1,5,-1
 397 555 l 2,6,7
 397 656 397 656 425 721 c 128,-1,8
 453 786 453 786 543 872 c 2,9,-1
 633 961 l 2,10,11
 690 1014 690 1014 715.5 1061 c 128,-1,12
 741 1108 741 1108 741 1157 c 0,13,14
 741 1246 741 1246 675.5 1301 c 128,-1,15
 610 1356 610 1356 502 1356 c 0,16,17
 423 1356 423 1356 333.5 1321 c 128,-1,18
 244 1286 244 1286 147 1219 c 1,19,-1
 147 1407 l 1,20,21
 241 1464 241 1464 337.5 1492 c 128,-1,22
 434 1520 434 1520 537 1520 c 0,23,24
 721 1520 721 1520 832.5 1423 c 128,-1,25
 944 1326 944 1326 944 1167 c 0,26,27
 944 1091 944 1091 908 1022.5 c 128,-1,28
 872 954 872 954 782 868 c 2,29,-1
 694 782 l 2,30,31
 647 735 647 735 627.5 708.5 c 128,-1,32
 608 682 608 682 600 657 c 0,33,34
 594 636 594 636 591 606 c 128,-1,35
 588 576 588 576 588 524 c 2,36,-1
 588 401 l 1,4,-1
EndSplineSet
Validated: 1
EndChar

StartChar: at
Encoding: 64 64 38
Width: 2048
GlyphClass: 2
Flags: W
LayerCount: 2
Fore
SplineSet
762 537 m 0,0,1
 762 394 762 394 833 312.5 c 128,-1,2
 904 231 904 231 1028 231 c 0,3,4
 1151 231 1151 231 1221.5 313 c 128,-1,5
 1292 395 1292 395 1292 537 c 0,6,7
 1292 677 1292 677 1220 759.5 c 128,-1,8
 1148 842 1148 842 1026 842 c 0,9,10
 905 842 905 842 833.5 760 c 128,-1,11
 762 678 762 678 762 537 c 0,0,1
1307 238 m 1,12,13
 1247 161 1247 161 1169.5 124.5 c 128,-1,14
 1092 88 1092 88 989 88 c 0,15,16
 817 88 817 88 709.5 212.5 c 128,-1,17
 602 337 602 337 602 537 c 256,18,19
 602 737 602 737 710 862 c 128,-1,20
 818 987 818 987 989 987 c 0,21,22
 1092 987 1092 987 1170 949.5 c 128,-1,23
 1248 912 1248 912 1307 836 c 1,24,-1
 1307 967 l 1,25,-1
 1450 967 l 1,26,-1
 1450 231 l 1,27,28
 1596 253 1596 253 1678.5 364.5 c 128,-1,29
 1761 476 1761 476 1761 653 c 0,30,31
 1761 760 1761 760 1729.5 854 c 128,-1,32
 1698 948 1698 948 1634 1028 c 0,33,34
 1530 1159 1530 1159 1380.5 1228.5 c 128,-1,35
 1231 1298 1231 1298 1055 1298 c 0,36,37
 932 1298 932 1298 819 1265.5 c 128,-1,38
 706 1233 706 1233 610 1169 c 0,39,40
 453 1067 453 1067 364.5 901.5 c 128,-1,41
 276 736 276 736 276 543 c 0,42,43
 276 384 276 384 333.5 245 c 128,-1,44
 391 106 391 106 500 0 c 0,45,46
 605 -104 605 -104 743 -158.5 c 128,-1,47
 881 -213 881 -213 1038 -213 c 0,48,49
 1167 -213 1167 -213 1291.5 -169.5 c 128,-1,50
 1416 -126 1416 -126 1520 -45 c 1,51,-1
 1610 -156 l 1,52,53
 1485 -253 1485 -253 1337.5 -304.5 c 128,-1,54
 1190 -356 1190 -356 1038 -356 c 0,55,56
 853 -356 853 -356 689 -290.5 c 128,-1,57
 525 -225 525 -225 397 -100 c 256,58,59
 269 25 269 25 202 189.5 c 128,-1,60
 135 354 135 354 135 543 c 0,61,62
 135 725 135 725 203 890 c 128,-1,63
 271 1055 271 1055 397 1180 c 0,64,65
 526 1307 526 1307 695 1374.5 c 128,-1,66
 864 1442 864 1442 1053 1442 c 0,67,68
 1265 1442 1265 1442 1446.5 1355 c 128,-1,69
 1628 1268 1628 1268 1751 1108 c 0,70,71
 1826 1010 1826 1010 1865.5 895 c 128,-1,72
 1905 780 1905 780 1905 657 c 0,73,74
 1905 394 1905 394 1746 242 c 128,-1,75
 1587 90 1587 90 1307 84 c 1,76,-1
 1307 238 l 1,12,13
EndSplineSet
Validated: 1
EndChar

StartChar: A
Encoding: 65 65 39
Width: 1401
GlyphClass: 2
Flags: W
AnchorPoint: "Anchor-4" 700 1520 basechar 0
LayerCount: 2
Fore
SplineSet
700 1294 m 1,0,-1
 426 551 l 1,1,-1
 975 551 l 1,2,-1
 700 1294 l 1,0,-1
586 1493 m 1,3,-1
 815 1493 l 1,4,-1
 1384 0 l 1,5,-1
 1174 0 l 1,6,-1
 1038 383 l 1,7,-1
 365 383 l 1,8,-1
 229 0 l 1,9,-1
 16 0 l 1,10,-1
 586 1493 l 1,3,-1
EndSplineSet
Validated: 1
EndChar

StartChar: B
Encoding: 66 66 40
Width: 1405
GlyphClass: 2
Flags: W
AnchorPoint: "Anchor-4" 700 1520 basechar 0
LayerCount: 2
Fore
SplineSet
403 713 m 1,0,-1
 403 166 l 1,1,-1
 727 166 l 2,2,3
 890 166 890 166 968.5 233.5 c 128,-1,4
 1047 301 1047 301 1047 440 c 0,5,6
 1047 580 1047 580 968.5 646.5 c 128,-1,7
 890 713 890 713 727 713 c 2,8,-1
 403 713 l 1,0,-1
403 1327 m 1,9,-1
 403 877 l 1,10,-1
 702 877 l 2,11,12
 850 877 850 877 922.5 932.5 c 128,-1,13
 995 988 995 988 995 1102 c 0,14,15
 995 1215 995 1215 922.5 1271 c 128,-1,16
 850 1327 850 1327 702 1327 c 2,17,-1
 403 1327 l 1,9,-1
201 1493 m 1,18,-1
 717 1493 l 2,19,20
 948 1493 948 1493 1073 1397 c 128,-1,21
 1198 1301 1198 1301 1198 1124 c 0,22,23
 1198 987 1198 987 1134 906 c 128,-1,24
 1070 825 1070 825 946 805 c 1,25,26
 1095 773 1095 773 1177.5 671.5 c 128,-1,27
 1260 570 1260 570 1260 418 c 0,28,29
 1260 218 1260 218 1124 109 c 128,-1,30
 988 0 988 0 737 0 c 2,31,-1
 201 0 l 1,32,-1
 201 1493 l 1,18,-1
EndSplineSet
Validated: 1
EndChar

StartChar: C
Encoding: 67 67 41
Width: 1430
GlyphClass: 2
Flags: W
AnchorPoint: "Anchor-4" 844 1520 basechar 0
LayerCount: 2
Fore
SplineSet
1319 1378 m 1,0,-1
 1319 1165 l 1,1,2
 1217 1260 1217 1260 1101.5 1307 c 128,-1,3
 986 1354 986 1354 856 1354 c 0,4,5
 600 1354 600 1354 464 1197.5 c 128,-1,6
 328 1041 328 1041 328 745 c 0,7,8
 328 450 328 450 464 293.5 c 128,-1,9
 600 137 600 137 856 137 c 0,10,11
 986 137 986 137 1101.5 184 c 128,-1,12
 1217 231 1217 231 1319 326 c 1,13,-1
 1319 115 l 1,14,15
 1213 43 1213 43 1094.5 7 c 128,-1,16
 976 -29 976 -29 844 -29 c 0,17,18
 505 -29 505 -29 310 178.5 c 128,-1,19
 115 386 115 386 115 745 c 0,20,21
 115 1105 115 1105 310 1312.5 c 128,-1,22
 505 1520 505 1520 844 1520 c 0,23,24
 978 1520 978 1520 1096.5 1484.5 c 128,-1,25
 1215 1449 1215 1449 1319 1378 c 1,0,-1
EndSplineSet
Validated: 1
EndChar

StartChar: D
Encoding: 68 68 42
Width: 1577
GlyphClass: 2
Flags: W
AnchorPoint: "Anchor-4" 748 1520 basechar 0
LayerCount: 2
Fore
SplineSet
403 1327 m 1,0,-1
 403 166 l 1,1,-1
 647 166 l 2,2,3
 956 166 956 166 1099.5 306 c 128,-1,4
 1243 446 1243 446 1243 748 c 0,5,6
 1243 1048 1243 1048 1099.5 1187.5 c 128,-1,7
 956 1327 956 1327 647 1327 c 2,8,-1
 403 1327 l 1,0,-1
201 1493 m 1,9,-1
 616 1493 l 2,10,11
 1050 1493 1050 1493 1253 1312.5 c 128,-1,12
 1456 1132 1456 1132 1456 748 c 0,13,14
 1456 362 1456 362 1252 181 c 128,-1,15
 1048 0 1048 0 616 0 c 2,16,-1
 201 0 l 1,17,-1
 201 1493 l 1,9,-1
EndSplineSet
Validated: 1
EndChar

StartChar: E
Encoding: 69 69 43
Width: 1294
GlyphClass: 2
Flags: W
AnchorPoint: "Anchor-4" 670 1520 basechar 0
LayerCount: 2
Fore
SplineSet
201 1493 m 1,0,-1
 1145 1493 l 1,1,-1
 1145 1323 l 1,2,-1
 403 1323 l 1,3,-1
 403 881 l 1,4,-1
 1114 881 l 1,5,-1
 1114 711 l 1,6,-1
 403 711 l 1,7,-1
 403 170 l 1,8,-1
 1163 170 l 1,9,-1
 1163 0 l 1,10,-1
 201 0 l 1,11,-1
 201 1493 l 1,0,-1
EndSplineSet
Validated: 1
EndChar

StartChar: F
Encoding: 70 70 44
Width: 1178
GlyphClass: 2
Flags: W
AnchorPoint: "Anchor-4" 670 1520 basechar 0
LayerCount: 2
Fore
SplineSet
201 1493 m 1,0,-1
 1059 1493 l 1,1,-1
 1059 1323 l 1,2,-1
 403 1323 l 1,3,-1
 403 883 l 1,4,-1
 995 883 l 1,5,-1
 995 713 l 1,6,-1
 403 713 l 1,7,-1
 403 0 l 1,8,-1
 201 0 l 1,9,-1
 201 1493 l 1,0,-1
EndSplineSet
Validated: 1
EndChar

StartChar: G
Encoding: 71 71 45
Width: 1587
GlyphClass: 2
Flags: W
AnchorPoint: "Anchor-4" 860 1520 basechar 0
LayerCount: 2
Fore
SplineSet
1219 213 m 1,0,-1
 1219 614 l 1,1,-1
 889 614 l 1,2,-1
 889 780 l 1,3,-1
 1419 780 l 1,4,-1
 1419 139 l 1,5,6
 1302 56 1302 56 1161 13.5 c 128,-1,7
 1020 -29 1020 -29 860 -29 c 0,8,9
 510 -29 510 -29 312.5 175.5 c 128,-1,10
 115 380 115 380 115 745 c 0,11,12
 115 1111 115 1111 312.5 1315.5 c 128,-1,13
 510 1520 510 1520 860 1520 c 0,14,15
 1006 1520 1006 1520 1137.5 1484 c 128,-1,16
 1269 1448 1269 1448 1380 1378 c 1,17,-1
 1380 1163 l 1,18,19
 1268 1258 1268 1258 1142 1306 c 128,-1,20
 1016 1354 1016 1354 877 1354 c 0,21,22
 603 1354 603 1354 465.5 1201 c 128,-1,23
 328 1048 328 1048 328 745 c 0,24,25
 328 443 328 443 465.5 290 c 128,-1,26
 603 137 603 137 877 137 c 0,27,28
 984 137 984 137 1068 155.5 c 128,-1,29
 1152 174 1152 174 1219 213 c 1,0,-1
EndSplineSet
Validated: 1
EndChar

StartChar: H
Encoding: 72 72 46
Width: 1540
GlyphClass: 2
Flags: W
AnchorPoint: "Anchor-4" 770 1520 basechar 0
LayerCount: 2
Fore
SplineSet
201 1493 m 1,0,-1
 403 1493 l 1,1,-1
 403 881 l 1,2,-1
 1137 881 l 1,3,-1
 1137 1493 l 1,4,-1
 1339 1493 l 1,5,-1
 1339 0 l 1,6,-1
 1137 0 l 1,7,-1
 1137 711 l 1,8,-1
 403 711 l 1,9,-1
 403 0 l 1,10,-1
 201 0 l 1,11,-1
 201 1493 l 1,0,-1
EndSplineSet
Validated: 1
EndChar

StartChar: I
Encoding: 73 73 47
Width: 604
GlyphClass: 2
Flags: W
AnchorPoint: "Anchor-4" 303 1520 basechar 0
LayerCount: 2
Fore
SplineSet
201 1493 m 1,0,-1
 403 1493 l 1,1,-1
 403 0 l 1,2,-1
 201 0 l 1,3,-1
 201 1493 l 1,0,-1
EndSplineSet
Validated: 1
EndChar

StartChar: J
Encoding: 74 74 48
Width: 604
GlyphClass: 2
Flags: W
AnchorPoint: "Anchor-4" 302 1520 basechar 0
LayerCount: 2
Fore
SplineSet
201 1493 m 1,0,-1
 403 1493 l 1,1,-1
 403 104 l 2,2,3
 403 -166 403 -166 300.5 -288 c 128,-1,4
 198 -410 198 -410 -29 -410 c 2,5,-1
 -106 -410 l 1,6,-1
 -106 -240 l 1,7,-1
 -43 -240 l 2,8,9
 91 -240 91 -240 146 -165 c 128,-1,10
 201 -90 201 -90 201 104 c 2,11,-1
 201 1493 l 1,0,-1
EndSplineSet
Validated: 1
EndChar

StartChar: K
Encoding: 75 75 49
Width: 1343
GlyphClass: 2
Flags: W
AnchorPoint: "Anchor-4" 670 1520 basechar 0
LayerCount: 2
Fore
SplineSet
201 1493 m 1,0,-1
 403 1493 l 1,1,-1
 403 862 l 1,2,-1
 1073 1493 l 1,3,-1
 1333 1493 l 1,4,-1
 592 797 l 1,5,-1
 1386 0 l 1,6,-1
 1120 0 l 1,7,-1
 403 719 l 1,8,-1
 403 0 l 1,9,-1
 201 0 l 1,10,-1
 201 1493 l 1,0,-1
EndSplineSet
Validated: 1
EndChar

StartChar: L
Encoding: 76 76 50
Width: 1141
GlyphClass: 2
Flags: W
AnchorPoint: "Anchor-4" 298 1520 basechar 0
LayerCount: 2
Fore
SplineSet
201 1493 m 1,0,-1
 403 1493 l 1,1,-1
 403 170 l 1,2,-1
 1130 170 l 1,3,-1
 1130 0 l 1,4,-1
 201 0 l 1,5,-1
 201 1493 l 1,0,-1
EndSplineSet
Validated: 1
EndChar

StartChar: M
Encoding: 77 77 51
Width: 1767
GlyphClass: 2
Flags: W
AnchorPoint: "Anchor-4" 883 1520 basechar 0
LayerCount: 2
Fore
SplineSet
201 1493 m 1,0,-1
 502 1493 l 1,1,-1
 883 477 l 1,2,-1
 1266 1493 l 1,3,-1
 1567 1493 l 1,4,-1
 1567 0 l 1,5,-1
 1370 0 l 1,6,-1
 1370 1311 l 1,7,-1
 985 287 l 1,8,-1
 782 287 l 1,9,-1
 397 1311 l 1,10,-1
 397 0 l 1,11,-1
 201 0 l 1,12,-1
 201 1493 l 1,0,-1
EndSplineSet
Validated: 1
EndChar

StartChar: N
Encoding: 78 78 52
Width: 1532
GlyphClass: 2
Flags: W
AnchorPoint: "Anchor-4" 757 1520 basechar 0
LayerCount: 2
Fore
SplineSet
201 1493 m 1,0,-1
 473 1493 l 1,1,-1
 1135 244 l 1,2,-1
 1135 1493 l 1,3,-1
 1331 1493 l 1,4,-1
 1331 0 l 1,5,-1
 1059 0 l 1,6,-1
 397 1249 l 1,7,-1
 397 0 l 1,8,-1
 201 0 l 1,9,-1
 201 1493 l 1,0,-1
EndSplineSet
Validated: 1
EndChar

StartChar: O
Encoding: 79 79 53
Width: 1612
GlyphClass: 2
Flags: W
AnchorPoint: "Anchor-4" 807 1520 basechar 0
LayerCount: 2
Fore
SplineSet
807 1356 m 256,0,1
 587 1356 587 1356 457.5 1192 c 128,-1,2
 328 1028 328 1028 328 745 c 0,3,4
 328 463 328 463 457.5 299 c 128,-1,5
 587 135 587 135 807 135 c 256,6,7
 1027 135 1027 135 1155.5 299 c 128,-1,8
 1284 463 1284 463 1284 745 c 0,9,10
 1284 1028 1284 1028 1155.5 1192 c 128,-1,11
 1027 1356 1027 1356 807 1356 c 256,0,1
807 1520 m 0,12,13
 1121 1520 1121 1520 1309 1309.5 c 128,-1,14
 1497 1099 1497 1099 1497 745 c 0,15,16
 1497 392 1497 392 1309 181.5 c 128,-1,17
 1121 -29 1121 -29 807 -29 c 0,18,19
 492 -29 492 -29 303.5 181 c 128,-1,20
 115 391 115 391 115 745 c 256,21,22
 115 1099 115 1099 303.5 1309.5 c 128,-1,23
 492 1520 492 1520 807 1520 c 0,12,13
EndSplineSet
Validated: 1
EndChar

StartChar: P
Encoding: 80 80 54
Width: 1235
GlyphClass: 2
Flags: W
AnchorPoint: "Anchor-4" 670 1520 basechar 0
LayerCount: 2
Fore
SplineSet
403 1327 m 1,0,-1
 403 766 l 1,1,-1
 657 766 l 2,2,3
 798 766 798 766 875 839 c 128,-1,4
 952 912 952 912 952 1047 c 0,5,6
 952 1181 952 1181 875 1254 c 128,-1,7
 798 1327 798 1327 657 1327 c 2,8,-1
 403 1327 l 1,0,-1
201 1493 m 1,9,-1
 657 1493 l 2,10,11
 908 1493 908 1493 1036.5 1379.5 c 128,-1,12
 1165 1266 1165 1266 1165 1047 c 0,13,14
 1165 826 1165 826 1036.5 713 c 128,-1,15
 908 600 908 600 657 600 c 2,16,-1
 403 600 l 1,17,-1
 403 0 l 1,18,-1
 201 0 l 1,19,-1
 201 1493 l 1,9,-1
EndSplineSet
Validated: 1
EndChar

StartChar: Q
Encoding: 81 81 55
Width: 1612
GlyphClass: 2
Flags: W
AnchorPoint: "Anchor-4" 807 1520 basechar 0
LayerCount: 2
Fore
SplineSet
807 1356 m 256,0,1
 587 1356 587 1356 457.5 1192 c 128,-1,2
 328 1028 328 1028 328 745 c 0,3,4
 328 463 328 463 457.5 299 c 128,-1,5
 587 135 587 135 807 135 c 256,6,7
 1027 135 1027 135 1155.5 299 c 128,-1,8
 1284 463 1284 463 1284 745 c 0,9,10
 1284 1028 1284 1028 1155.5 1192 c 128,-1,11
 1027 1356 1027 1356 807 1356 c 256,0,1
1090 27 m 1,12,-1
 1356 -264 l 1,13,-1
 1112 -264 l 1,14,-1
 891 -25 l 1,15,16
 858 -27 858 -27 840.5 -28 c 128,-1,17
 823 -29 823 -29 807 -29 c 0,18,19
 492 -29 492 -29 303.5 181.5 c 128,-1,20
 115 392 115 392 115 745 c 0,21,22
 115 1099 115 1099 303.5 1309.5 c 128,-1,23
 492 1520 492 1520 807 1520 c 0,24,25
 1121 1520 1121 1520 1309 1309.5 c 128,-1,26
 1497 1099 1497 1099 1497 745 c 0,27,28
 1497 485 1497 485 1392.5 300 c 128,-1,29
 1288 115 1288 115 1090 27 c 1,12,-1
EndSplineSet
Validated: 1
EndChar

StartChar: R
Encoding: 82 82 56
Width: 1423
GlyphClass: 2
Flags: W
AnchorPoint: "Anchor-4" 637 1520 basechar 0
LayerCount: 2
Fore
SplineSet
909 700 m 1,0,1
 974 678 974 678 1035.5 606 c 128,-1,2
 1097 534 1097 534 1159 408 c 2,3,-1
 1364 0 l 1,4,-1
 1147 0 l 1,5,-1
 956 383 l 2,6,7
 882 533 882 533 812.5 582 c 128,-1,8
 743 631 743 631 623 631 c 2,9,-1
 403 631 l 1,10,-1
 403 0 l 1,11,-1
 201 0 l 1,12,-1
 201 1493 l 1,13,-1
 657 1493 l 2,14,15
 913 1493 913 1493 1039 1386 c 128,-1,16
 1165 1279 1165 1279 1165 1063 c 0,17,18
 1165 922 1165 922 1099.5 829 c 128,-1,19
 1034 736 1034 736 909 700 c 1,0,1
403 1327 m 1,20,-1
 403 797 l 1,21,-1
 657 797 l 2,22,23
 803 797 803 797 877.5 864.5 c 128,-1,24
 952 932 952 932 952 1063 c 256,25,26
 952 1194 952 1194 877.5 1260.5 c 128,-1,27
 803 1327 803 1327 657 1327 c 2,28,-1
 403 1327 l 1,20,-1
EndSplineSet
Validated: 1
EndChar

StartChar: S
Encoding: 83 83 57
Width: 1300
GlyphClass: 2
Flags: W
AnchorPoint: "Anchor-4" 659 1520 basechar 0
LayerCount: 2
Fore
SplineSet
1096 1444 m 1,0,-1
 1096 1247 l 1,1,2
 981 1302 981 1302 879 1329 c 128,-1,3
 777 1356 777 1356 682 1356 c 0,4,5
 517 1356 517 1356 427.5 1292 c 128,-1,6
 338 1228 338 1228 338 1110 c 0,7,8
 338 1011 338 1011 397.5 960.5 c 128,-1,9
 457 910 457 910 623 879 c 2,10,-1
 745 854 l 2,11,12
 971 811 971 811 1078.5 702.5 c 128,-1,13
 1186 594 1186 594 1186 412 c 0,14,15
 1186 195 1186 195 1040.5 83 c 128,-1,16
 895 -29 895 -29 614 -29 c 0,17,18
 508 -29 508 -29 388.5 -5 c 128,-1,19
 269 19 269 19 141 66 c 1,20,-1
 141 274 l 1,21,22
 264 205 264 205 382 170 c 128,-1,23
 500 135 500 135 614 135 c 0,24,25
 787 135 787 135 881 203 c 128,-1,26
 975 271 975 271 975 397 c 0,27,28
 975 507 975 507 907.5 569 c 128,-1,29
 840 631 840 631 686 662 c 2,30,-1
 563 686 l 2,31,32
 337 731 337 731 236 827 c 128,-1,33
 135 923 135 923 135 1094 c 0,34,35
 135 1292 135 1292 274.5 1406 c 128,-1,36
 414 1520 414 1520 659 1520 c 0,37,38
 764 1520 764 1520 873 1501 c 128,-1,39
 982 1482 982 1482 1096 1444 c 1,0,-1
EndSplineSet
Validated: 1
EndChar

StartChar: T
Encoding: 84 84 58
Width: 1251
GlyphClass: 2
Flags: W
AnchorPoint: "Anchor-4" 627 1520 basechar 0
LayerCount: 2
Fore
SplineSet
-6 1493 m 1,0,-1
 1257 1493 l 1,1,-1
 1257 1323 l 1,2,-1
 727 1323 l 1,3,-1
 727 0 l 1,4,-1
 524 0 l 1,5,-1
 524 1323 l 1,6,-1
 -6 1323 l 1,7,-1
 -6 1493 l 1,0,-1
EndSplineSet
Validated: 1
EndChar

StartChar: U
Encoding: 85 85 59
Width: 1499
GlyphClass: 2
Flags: W
AnchorPoint: "Anchor-4" 750 1520 basechar 0
LayerCount: 2
Fore
SplineSet
178 1493 m 1,0,-1
 381 1493 l 1,1,-1
 381 586 l 2,2,3
 381 346 381 346 468 240.5 c 128,-1,4
 555 135 555 135 750 135 c 0,5,6
 944 135 944 135 1031 240.5 c 128,-1,7
 1118 346 1118 346 1118 586 c 2,8,-1
 1118 1493 l 1,9,-1
 1321 1493 l 1,10,-1
 1321 561 l 2,11,12
 1321 269 1321 269 1176.5 120 c 128,-1,13
 1032 -29 1032 -29 750 -29 c 0,14,15
 467 -29 467 -29 322.5 120 c 128,-1,16
 178 269 178 269 178 561 c 2,17,-1
 178 1493 l 1,0,-1
EndSplineSet
Validated: 1
EndChar

StartChar: V
Encoding: 86 86 60
Width: 1401
GlyphClass: 2
Flags: W
AnchorPoint: "Anchor-4" 700 1520 basechar 0
LayerCount: 2
Fore
SplineSet
586 0 m 1,0,-1
 16 1493 l 1,1,-1
 227 1493 l 1,2,-1
 700 236 l 1,3,-1
 1174 1493 l 1,4,-1
 1384 1493 l 1,5,-1
 815 0 l 1,6,-1
 586 0 l 1,0,-1
EndSplineSet
Validated: 1
EndChar

StartChar: W
Encoding: 87 87 61
Width: 2025
GlyphClass: 2
Flags: W
AnchorPoint: "Anchor-4" 1013 1520 basechar 0
LayerCount: 2
Fore
SplineSet
68 1493 m 1,0,-1
 272 1493 l 1,1,-1
 586 231 l 1,2,-1
 899 1493 l 1,3,-1
 1126 1493 l 1,4,-1
 1440 231 l 1,5,-1
 1753 1493 l 1,6,-1
 1958 1493 l 1,7,-1
 1583 0 l 1,8,-1
 1329 0 l 1,9,-1
 1014 1296 l 1,10,-1
 696 0 l 1,11,-1
 442 0 l 1,12,-1
 68 1493 l 1,0,-1
EndSplineSet
Validated: 1
EndChar

StartChar: X
Encoding: 88 88 62
Width: 1403
GlyphClass: 2
Flags: W
AnchorPoint: "Anchor-4" 717 1520 basechar 0
LayerCount: 2
Fore
SplineSet
129 1493 m 1,0,-1
 346 1493 l 1,1,-1
 717 938 l 1,2,-1
 1090 1493 l 1,3,-1
 1307 1493 l 1,4,-1
 827 776 l 1,5,-1
 1339 0 l 1,6,-1
 1122 0 l 1,7,-1
 702 635 l 1,8,-1
 279 0 l 1,9,-1
 61 0 l 1,10,-1
 594 797 l 1,11,-1
 129 1493 l 1,0,-1
EndSplineSet
Validated: 1
EndChar

StartChar: Y
Encoding: 89 89 63
Width: 1251
GlyphClass: 2
Flags: W
AnchorPoint: "Anchor-4" 626 1520 basechar 0
LayerCount: 2
Fore
SplineSet
-4 1493 m 1,0,-1
 213 1493 l 1,1,-1
 627 879 l 1,2,-1
 1038 1493 l 1,3,-1
 1255 1493 l 1,4,-1
 727 711 l 1,5,-1
 727 0 l 1,6,-1
 524 0 l 1,7,-1
 524 711 l 1,8,-1
 -4 1493 l 1,0,-1
EndSplineSet
Validated: 1
EndChar

StartChar: Z
Encoding: 90 90 64
Width: 1403
GlyphClass: 2
Flags: W
AnchorPoint: "Anchor-4" 702 1520 basechar 0
LayerCount: 2
Fore
SplineSet
115 1493 m 1,0,-1
 1288 1493 l 1,1,-1
 1288 1339 l 1,2,-1
 344 170 l 1,3,-1
 1311 170 l 1,4,-1
 1311 0 l 1,5,-1
 92 0 l 1,6,-1
 92 154 l 1,7,-1
 1036 1323 l 1,8,-1
 115 1323 l 1,9,-1
 115 1493 l 1,0,-1
EndSplineSet
Validated: 1
EndChar

StartChar: bracketleft
Encoding: 91 91 65
Width: 799
GlyphClass: 2
Flags: W
LayerCount: 2
Fore
SplineSet
176 1556 m 1,0,-1
 600 1556 l 1,1,-1
 600 1413 l 1,2,-1
 360 1413 l 1,3,-1
 360 -127 l 1,4,-1
 600 -127 l 1,5,-1
 600 -270 l 1,6,-1
 176 -270 l 1,7,-1
 176 1556 l 1,0,-1
EndSplineSet
Validated: 1
EndChar

StartChar: backslash
Encoding: 92 92 66
Width: 690
GlyphClass: 2
Flags: W
LayerCount: 2
Fore
SplineSet
170 1493 m 1,0,-1
 690 -190 l 1,1,-1
 520 -190 l 1,2,-1
 0 1493 l 1,3,-1
 170 1493 l 1,0,-1
EndSplineSet
Validated: 1
EndChar

StartChar: bracketright
Encoding: 93 93 67
Width: 799
GlyphClass: 2
Flags: W
LayerCount: 2
Fore
SplineSet
623 1556 m 1,0,-1
 623 -270 l 1,1,-1
 199 -270 l 1,2,-1
 199 -127 l 1,3,-1
 438 -127 l 1,4,-1
 438 1413 l 1,5,-1
 199 1413 l 1,6,-1
 199 1556 l 1,7,-1
 623 1556 l 1,0,-1
EndSplineSet
Validated: 1
EndChar

StartChar: asciicircum
Encoding: 94 94 68
Width: 1716
GlyphClass: 2
Flags: W
LayerCount: 2
Fore
SplineSet
956 1493 m 1,0,-1
 1499 936 l 1,1,-1
 1298 936 l 1,2,-1
 858 1331 l 1,3,-1
 418 936 l 1,4,-1
 217 936 l 1,5,-1
 760 1493 l 1,6,-1
 956 1493 l 1,0,-1
EndSplineSet
Validated: 1
EndChar

StartChar: underscore
Encoding: 95 95 69
Width: 1024
GlyphClass: 2
Flags: W
GlyphCompositionHorizontal: 2  underscore%0,0,40,1064 underscore%1,40,0,1064
LayerCount: 2
Fore
SplineSet
1044 -340 m 1,0,-1
 1044 -483 l 1,1,-1
 -20 -483 l 1,2,-1
 -20 -340 l 1,3,-1
 1044 -340 l 1,0,-1
EndSplineSet
Validated: 1
EndChar

StartChar: grave
Encoding: 96 96 70
Width: 1024
GlyphClass: 2
Flags: W
LayerCount: 2
Fore
SplineSet
367 1638 m 1,0,-1
 649 1264 l 1,1,-1
 496 1264 l 1,2,-1
 170 1638 l 1,3,-1
 367 1638 l 1,0,-1
EndSplineSet
Validated: 1
EndChar

StartChar: a
Encoding: 97 97 71
Width: 1255
GlyphClass: 2
Flags: W
AnchorPoint: "Anchor-4" 586 1147 basechar 0 35
LayerCount: 2
Fore
SplineSet
702 563 m 2,0,1
 479 563 479 563 393 512 c 128,-1,2
 307 461 307 461 307 338 c 0,3,4
 307 240 307 240 371.5 182.5 c 128,-1,5
 436 125 436 125 547 125 c 0,6,7
 700 125 700 125 792.5 233.5 c 128,-1,8
 885 342 885 342 885 522 c 2,9,-1
 885 563 l 1,10,-1
 702 563 l 2,0,1
1069 639 m 2,11,-1
 1069 0 l 1,12,-1
 885 0 l 1,13,-1
 885 170 l 1,14,15
 822 68 822 68 728 19.5 c 128,-1,16
 634 -29 634 -29 498 -29 c 0,17,18
 326 -29 326 -29 224.5 67.5 c 128,-1,19
 123 164 123 164 123 326 c 0,20,21
 123 515 123 515 249.5 611 c 128,-1,22
 376 707 376 707 627 707 c 2,23,-1
 885 707 l 1,24,-1
 885 725 l 2,25,26
 885 852 885 852 801.5 921.5 c 128,-1,27
 718 991 718 991 567 991 c 0,28,29
 471 991 471 991 380 968 c 128,-1,30
 289 945 289 945 205 899 c 1,31,-1
 205 1069 l 1,32,33
 306 1108 306 1108 401 1127.5 c 128,-1,34
 496 1147 496 1147 586 1147 c 0,35,36
 829 1147 829 1147 949 1021 c 128,-1,37
 1069 895 1069 895 1069 639 c 2,11,-1
EndSplineSet
Validated: 1
EndChar

StartChar: b
Encoding: 98 98 72
Width: 1300
GlyphClass: 2
Flags: W
AnchorPoint: "Anchor-4" 278 1520 basechar 0
LayerCount: 2
Fore
SplineSet
997 559 m 256,0,1
 997 762 997 762 913.5 877.5 c 128,-1,2
 830 993 830 993 684 993 c 256,3,4
 538 993 538 993 454.5 877.5 c 128,-1,5
 371 762 371 762 371 559 c 256,6,7
 371 356 371 356 454.5 240.5 c 128,-1,8
 538 125 538 125 684 125 c 256,9,10
 830 125 830 125 913.5 240.5 c 128,-1,11
 997 356 997 356 997 559 c 256,0,1
371 950 m 1,12,13
 429 1050 429 1050 517.5 1098.5 c 128,-1,14
 606 1147 606 1147 729 1147 c 0,15,16
 933 1147 933 1147 1060.5 985 c 128,-1,17
 1188 823 1188 823 1188 559 c 256,18,19
 1188 295 1188 295 1060.5 133 c 128,-1,20
 933 -29 933 -29 729 -29 c 0,21,22
 606 -29 606 -29 517.5 19.5 c 128,-1,23
 429 68 429 68 371 168 c 1,24,-1
 371 0 l 1,25,-1
 186 0 l 1,26,-1
 186 1556 l 1,27,-1
 371 1556 l 1,28,-1
 371 950 l 1,12,13
EndSplineSet
Validated: 1
EndChar

StartChar: c
Encoding: 99 99 73
Width: 1126
GlyphClass: 2
Flags: W
AnchorPoint: "Anchor-4" 676 1147 basechar 0 23
LayerCount: 2
Fore
SplineSet
999 1077 m 1,0,-1
 999 905 l 1,1,2
 921 948 921 948 842.5 969.5 c 128,-1,3
 764 991 764 991 684 991 c 0,4,5
 505 991 505 991 406 877.5 c 128,-1,6
 307 764 307 764 307 559 c 256,7,8
 307 354 307 354 406 240.5 c 128,-1,9
 505 127 505 127 684 127 c 0,10,11
 764 127 764 127 842.5 148.5 c 128,-1,12
 921 170 921 170 999 213 c 1,13,-1
 999 43 l 1,14,15
 922 7 922 7 839.5 -11 c 128,-1,16
 757 -29 757 -29 664 -29 c 0,17,18
 411 -29 411 -29 262 130 c 128,-1,19
 113 289 113 289 113 559 c 0,20,21
 113 833 113 833 263.5 990 c 128,-1,22
 414 1147 414 1147 676 1147 c 0,23,24
 761 1147 761 1147 842 1129.5 c 128,-1,25
 923 1112 923 1112 999 1077 c 1,0,-1
EndSplineSet
Validated: 1
EndChar

StartChar: d
Encoding: 100 100 74
Width: 1300
GlyphClass: 2
Flags: W
AnchorPoint: "Anchor-4" 1022 1520 basechar 0
LayerCount: 2
Fore
SplineSet
930 950 m 1,0,-1
 930 1556 l 1,1,-1
 1114 1556 l 1,2,-1
 1114 0 l 1,3,-1
 930 0 l 1,4,-1
 930 168 l 1,5,6
 872 68 872 68 783.5 19.5 c 128,-1,7
 695 -29 695 -29 571 -29 c 0,8,9
 368 -29 368 -29 240.5 133 c 128,-1,10
 113 295 113 295 113 559 c 256,11,12
 113 823 113 823 240.5 985 c 128,-1,13
 368 1147 368 1147 571 1147 c 0,14,15
 695 1147 695 1147 783.5 1098.5 c 128,-1,16
 872 1050 872 1050 930 950 c 1,0,-1
303 559 m 256,17,18
 303 356 303 356 386.5 240.5 c 128,-1,19
 470 125 470 125 616 125 c 256,20,21
 762 125 762 125 846 240.5 c 128,-1,22
 930 356 930 356 930 559 c 256,23,24
 930 762 930 762 846 877.5 c 128,-1,25
 762 993 762 993 616 993 c 256,26,27
 470 993 470 993 386.5 877.5 c 128,-1,28
 303 762 303 762 303 559 c 256,17,18
EndSplineSet
Validated: 1
EndChar

StartChar: e
Encoding: 101 101 75
Width: 1260
GlyphClass: 2
Flags: W
AnchorPoint: "Anchor-4" 662 1147 basechar 0 18
LayerCount: 2
Fore
SplineSet
1151 606 m 2,0,-1
 1151 516 l 1,1,-1
 305 516 l 1,2,3
 317 326 317 326 419.5 226.5 c 128,-1,4
 522 127 522 127 705 127 c 0,5,6
 811 127 811 127 910.5 153 c 128,-1,7
 1010 179 1010 179 1108 231 c 1,8,-1
 1108 57 l 1,9,10
 1009 15 1009 15 905 -7 c 128,-1,11
 801 -29 801 -29 694 -29 c 0,12,13
 426 -29 426 -29 269.5 127 c 128,-1,14
 113 283 113 283 113 549 c 0,15,16
 113 824 113 824 261.5 985.5 c 128,-1,17
 410 1147 410 1147 662 1147 c 0,18,19
 888 1147 888 1147 1019.5 1001.5 c 128,-1,20
 1151 856 1151 856 1151 606 c 2,0,-1
967 660 m 1,21,22
 965 811 965 811 882.5 901 c 128,-1,23
 800 991 800 991 664 991 c 0,24,25
 510 991 510 991 417.5 904 c 128,-1,26
 325 817 325 817 311 659 c 1,27,-1
 967 660 l 1,21,22
EndSplineSet
Validated: 1
EndChar

StartChar: f
Encoding: 102 102 76
Width: 721
GlyphClass: 2
Flags: W
AnchorPoint: "Anchor-4" 480 1520 basechar 0
LayerCount: 2
Fore
SplineSet
760 1556 m 1,0,-1
 760 1403 l 1,1,-1
 584 1403 l 2,2,3
 485 1403 485 1403 446.5 1363 c 128,-1,4
 408 1323 408 1323 408 1219 c 2,5,-1
 408 1120 l 1,6,-1
 711 1120 l 1,7,-1
 711 977 l 1,8,-1
 408 977 l 1,9,-1
 408 0 l 1,10,-1
 223 0 l 1,11,-1
 223 977 l 1,12,-1
 47 977 l 1,13,-1
 47 1120 l 1,14,-1
 223 1120 l 1,15,-1
 223 1198 l 2,16,17
 223 1385 223 1385 310 1470.5 c 128,-1,18
 397 1556 397 1556 586 1556 c 2,19,-1
 760 1556 l 1,0,-1
EndSplineSet
Validated: 1
EndChar

StartChar: g
Encoding: 103 103 77
Width: 1300
GlyphClass: 2
Flags: W
AnchorPoint: "Anchor-4" 618 1147 basechar 0
LayerCount: 2
Fore
SplineSet
930 573 m 0,0,1
 930 773 930 773 847.5 883 c 128,-1,2
 765 993 765 993 616 993 c 0,3,4
 468 993 468 993 385.5 883 c 128,-1,5
 303 773 303 773 303 573 c 0,6,7
 303 374 303 374 385.5 264 c 128,-1,8
 468 154 468 154 616 154 c 0,9,10
 765 154 765 154 847.5 264 c 128,-1,11
 930 374 930 374 930 573 c 0,0,1
1114 139 m 2,12,13
 1114 -147 1114 -147 987 -286.5 c 128,-1,14
 860 -426 860 -426 598 -426 c 0,15,16
 501 -426 501 -426 415 -411.5 c 128,-1,17
 329 -397 329 -397 248 -367 c 1,18,-1
 248 -188 l 1,19,20
 329 -232 329 -232 408 -253 c 128,-1,21
 487 -274 487 -274 569 -274 c 0,22,23
 750 -274 750 -274 840 -179.5 c 128,-1,24
 930 -85 930 -85 930 106 c 2,25,-1
 930 197 l 1,26,27
 873 98 873 98 784 49 c 128,-1,28
 695 0 695 0 571 0 c 0,29,30
 365 0 365 0 239 157 c 128,-1,31
 113 314 113 314 113 573 c 0,32,33
 113 833 113 833 239 990 c 128,-1,34
 365 1147 365 1147 571 1147 c 0,35,36
 695 1147 695 1147 784 1098 c 128,-1,37
 873 1049 873 1049 930 950 c 1,38,-1
 930 1120 l 1,39,-1
 1114 1120 l 1,40,-1
 1114 139 l 2,12,13
EndSplineSet
Validated: 1
EndChar

StartChar: h
Encoding: 104 104 78
Width: 1298
GlyphClass: 2
Flags: W
AnchorPoint: "Anchor-4" 278 1520 basechar 0
LayerCount: 2
Fore
SplineSet
1124 676 m 2,0,-1
 1124 0 l 1,1,-1
 940 0 l 1,2,-1
 940 670 l 2,3,4
 940 829 940 829 878 908 c 128,-1,5
 816 987 816 987 692 987 c 0,6,7
 543 987 543 987 457 892 c 128,-1,8
 371 797 371 797 371 633 c 2,9,-1
 371 0 l 1,10,-1
 186 0 l 1,11,-1
 186 1556 l 1,12,-1
 371 1556 l 1,13,-1
 371 946 l 1,14,15
 437 1047 437 1047 526.5 1097 c 128,-1,16
 616 1147 616 1147 733 1147 c 0,17,18
 926 1147 926 1147 1025 1027.5 c 128,-1,19
 1124 908 1124 908 1124 676 c 2,0,-1
EndSplineSet
Validated: 1
EndChar

StartChar: i
Encoding: 105 105 79
Width: 569
GlyphClass: 2
Flags: W
AnchorPoint: "Anchor-4" 287 1583 basechar 0
LayerCount: 2
Fore
SplineSet
193 1120 m 1,0,-1
 377 1120 l 1,1,-1
 377 0 l 1,2,-1
 193 0 l 1,3,-1
 193 1120 l 1,0,-1
193 1556 m 1,4,-1
 377 1556 l 1,5,-1
 377 1323 l 1,6,-1
 193 1323 l 1,7,-1
 193 1556 l 1,4,-1
EndSplineSet
Validated: 1
Substitution2: "Single Substitution lookup 8 subtable" dotlessi
EndChar

StartChar: j
Encoding: 106 106 80
Width: 569
GlyphClass: 2
Flags: W
AnchorPoint: "Anchor-4" 287 1583 basechar 0
LayerCount: 2
Fore
SplineSet
193 1120 m 1,0,-1
 377 1120 l 1,1,-1
 377 -20 l 2,2,3
 377 -234 377 -234 295.5 -330 c 128,-1,4
 214 -426 214 -426 33 -426 c 2,5,-1
 -37 -426 l 1,6,-1
 -37 -270 l 1,7,-1
 12 -270 l 2,8,9
 117 -270 117 -270 155 -221.5 c 128,-1,10
 193 -173 193 -173 193 -20 c 2,11,-1
 193 1120 l 1,0,-1
193 1556 m 1,12,-1
 377 1556 l 1,13,-1
 377 1323 l 1,14,-1
 193 1323 l 1,15,-1
 193 1556 l 1,12,-1
EndSplineSet
Validated: 1
Substitution2: "Single Substitution lookup 8 subtable" dotlessj
EndChar

StartChar: k
Encoding: 107 107 81
Width: 1186
GlyphClass: 2
Flags: W
AnchorPoint: "Anchor-4" 278 1520 basechar 0
LayerCount: 2
Fore
SplineSet
186 1556 m 1,0,-1
 371 1556 l 1,1,-1
 371 637 l 1,2,-1
 920 1120 l 1,3,-1
 1155 1120 l 1,4,-1
 561 596 l 1,5,-1
 1180 0 l 1,6,-1
 940 0 l 1,7,-1
 371 547 l 1,8,-1
 371 0 l 1,9,-1
 186 0 l 1,10,-1
 186 1556 l 1,0,-1
EndSplineSet
Validated: 1
EndChar

StartChar: l
Encoding: 108 108 82
Width: 569
GlyphClass: 2
Flags: W
AnchorPoint: "Anchor-4" 278 1520 basechar 0
LayerCount: 2
Fore
SplineSet
193 1556 m 1,0,-1
 377 1556 l 1,1,-1
 377 0 l 1,2,-1
 193 0 l 1,3,-1
 193 1556 l 1,0,-1
EndSplineSet
Validated: 1
EndChar

StartChar: m
Encoding: 109 109 83
Width: 1995
GlyphClass: 2
Flags: W
AnchorPoint: "Anchor-4" 1001 1147 basechar 0
LayerCount: 2
Fore
SplineSet
1065 905 m 1,0,1
 1134 1029 1134 1029 1230 1088 c 128,-1,2
 1326 1147 1326 1147 1456 1147 c 0,3,4
 1631 1147 1631 1147 1726 1024.5 c 128,-1,5
 1821 902 1821 902 1821 676 c 2,6,-1
 1821 0 l 1,7,-1
 1636 0 l 1,8,-1
 1636 670 l 2,9,10
 1636 831 1636 831 1579 909 c 128,-1,11
 1522 987 1522 987 1405 987 c 0,12,13
 1262 987 1262 987 1179 892 c 128,-1,14
 1096 797 1096 797 1096 633 c 2,15,-1
 1096 0 l 1,16,-1
 911 0 l 1,17,-1
 911 670 l 2,18,19
 911 832 911 832 854 909.5 c 128,-1,20
 797 987 797 987 678 987 c 0,21,22
 537 987 537 987 454 891.5 c 128,-1,23
 371 796 371 796 371 633 c 2,24,-1
 371 0 l 1,25,-1
 186 0 l 1,26,-1
 186 1120 l 1,27,-1
 371 1120 l 1,28,-1
 371 946 l 1,29,30
 434 1049 434 1049 522 1098 c 128,-1,31
 610 1147 610 1147 731 1147 c 0,32,33
 853 1147 853 1147 938.5 1085 c 128,-1,34
 1024 1023 1024 1023 1065 905 c 1,0,1
EndSplineSet
Validated: 1
EndChar

StartChar: n
Encoding: 110 110 84
Width: 1298
GlyphClass: 2
Flags: W
AnchorPoint: "Anchor-4" 649 1147 basechar 0
LayerCount: 2
Fore
SplineSet
1124 676 m 2,0,-1
 1124 0 l 1,1,-1
 940 0 l 1,2,-1
 940 670 l 2,3,4
 940 829 940 829 878 908 c 128,-1,5
 816 987 816 987 692 987 c 0,6,7
 543 987 543 987 457 892 c 128,-1,8
 371 797 371 797 371 633 c 2,9,-1
 371 0 l 1,10,-1
 186 0 l 1,11,-1
 186 1120 l 1,12,-1
 371 1120 l 1,13,-1
 371 946 l 1,14,15
 437 1047 437 1047 526.5 1097 c 128,-1,16
 616 1147 616 1147 733 1147 c 0,17,18
 926 1147 926 1147 1025 1027.5 c 128,-1,19
 1124 908 1124 908 1124 676 c 2,0,-1
EndSplineSet
Validated: 1
EndChar

StartChar: o
Encoding: 111 111 85
Width: 1253
GlyphClass: 2
Flags: W
AnchorPoint: "Anchor-4" 627 1147 basechar 0 12
LayerCount: 2
Fore
SplineSet
627 991 m 0,0,1
 479 991 479 991 393 875.5 c 128,-1,2
 307 760 307 760 307 559 c 256,3,4
 307 358 307 358 392.5 242.5 c 128,-1,5
 478 127 478 127 627 127 c 0,6,7
 774 127 774 127 860 243 c 128,-1,8
 946 359 946 359 946 559 c 0,9,10
 946 758 946 758 860 874.5 c 128,-1,11
 774 991 774 991 627 991 c 0,0,1
627 1147 m 0,12,13
 867 1147 867 1147 1004 991 c 128,-1,14
 1141 835 1141 835 1141 559 c 0,15,16
 1141 284 1141 284 1004 127.5 c 128,-1,17
 867 -29 867 -29 627 -29 c 0,18,19
 386 -29 386 -29 249.5 127.5 c 128,-1,20
 113 284 113 284 113 559 c 0,21,22
 113 835 113 835 249.5 991 c 128,-1,23
 386 1147 386 1147 627 1147 c 0,12,13
EndSplineSet
Validated: 1
EndChar

StartChar: p
Encoding: 112 112 86
Width: 1300
GlyphClass: 2
Flags: W
AnchorPoint: "Anchor-4" 678 1147 basechar 0
LayerCount: 2
Fore
SplineSet
371 168 m 1,0,-1
 371 -426 l 1,1,-1
 186 -426 l 1,2,-1
 186 1120 l 1,3,-1
 371 1120 l 1,4,-1
 371 950 l 1,5,6
 429 1050 429 1050 517.5 1098.5 c 128,-1,7
 606 1147 606 1147 729 1147 c 0,8,9
 933 1147 933 1147 1060.5 985 c 128,-1,10
 1188 823 1188 823 1188 559 c 256,11,12
 1188 295 1188 295 1060.5 133 c 128,-1,13
 933 -29 933 -29 729 -29 c 0,14,15
 606 -29 606 -29 517.5 19.5 c 128,-1,16
 429 68 429 68 371 168 c 1,0,-1
997 559 m 256,17,18
 997 762 997 762 913.5 877.5 c 128,-1,19
 830 993 830 993 684 993 c 256,20,21
 538 993 538 993 454.5 877.5 c 128,-1,22
 371 762 371 762 371 559 c 256,23,24
 371 356 371 356 454.5 240.5 c 128,-1,25
 538 125 538 125 684 125 c 256,26,27
 830 125 830 125 913.5 240.5 c 128,-1,28
 997 356 997 356 997 559 c 256,17,18
EndSplineSet
Validated: 1
EndChar

StartChar: q
Encoding: 113 113 87
Width: 1300
GlyphClass: 2
Flags: W
AnchorPoint: "Anchor-4" 623 1147 basechar 0
LayerCount: 2
Fore
SplineSet
303 559 m 256,0,1
 303 356 303 356 386.5 240.5 c 128,-1,2
 470 125 470 125 616 125 c 256,3,4
 762 125 762 125 846 240.5 c 128,-1,5
 930 356 930 356 930 559 c 256,6,7
 930 762 930 762 846 877.5 c 128,-1,8
 762 993 762 993 616 993 c 256,9,10
 470 993 470 993 386.5 877.5 c 128,-1,11
 303 762 303 762 303 559 c 256,0,1
930 168 m 1,12,13
 872 68 872 68 783.5 19.5 c 128,-1,14
 695 -29 695 -29 571 -29 c 0,15,16
 368 -29 368 -29 240.5 133 c 128,-1,17
 113 295 113 295 113 559 c 256,18,19
 113 823 113 823 240.5 985 c 128,-1,20
 368 1147 368 1147 571 1147 c 0,21,22
 695 1147 695 1147 783.5 1098.5 c 128,-1,23
 872 1050 872 1050 930 950 c 1,24,-1
 930 1120 l 1,25,-1
 1114 1120 l 1,26,-1
 1114 -426 l 1,27,-1
 930 -426 l 1,28,-1
 930 168 l 1,12,13
EndSplineSet
Validated: 1
EndChar

StartChar: r
Encoding: 114 114 88
Width: 842
GlyphClass: 2
Flags: W
AnchorPoint: "Anchor-4" 535 1147 basechar 0
LayerCount: 2
Fore
SplineSet
842 948 m 1,0,1
 811 966 811 966 774.5 974.5 c 128,-1,2
 738 983 738 983 694 983 c 0,3,4
 538 983 538 983 454.5 881.5 c 128,-1,5
 371 780 371 780 371 590 c 2,6,-1
 371 0 l 1,7,-1
 186 0 l 1,8,-1
 186 1120 l 1,9,-1
 371 1120 l 1,10,-1
 371 946 l 1,11,12
 429 1048 429 1048 522 1097.5 c 128,-1,13
 615 1147 615 1147 748 1147 c 0,14,15
 767 1147 767 1147 790 1144.5 c 128,-1,16
 813 1142 813 1142 841 1137 c 1,17,-1
 842 948 l 1,0,1
EndSplineSet
Validated: 1
EndChar

StartChar: s
Encoding: 115 115 89
Width: 1067
GlyphClass: 2
Flags: W
AnchorPoint: "Anchor-4" 551 1147 basechar 0
LayerCount: 2
Fore
SplineSet
907 1087 m 1,0,-1
 907 913 l 1,1,2
 829 953 829 953 745 973 c 128,-1,3
 661 993 661 993 571 993 c 0,4,5
 434 993 434 993 365.5 951 c 128,-1,6
 297 909 297 909 297 825 c 0,7,8
 297 761 297 761 346 724.5 c 128,-1,9
 395 688 395 688 543 655 c 2,10,-1
 606 641 l 2,11,12
 802 599 802 599 884.5 522.5 c 128,-1,13
 967 446 967 446 967 309 c 0,14,15
 967 153 967 153 843.5 62 c 128,-1,16
 720 -29 720 -29 504 -29 c 0,17,18
 414 -29 414 -29 316.5 -11.5 c 128,-1,19
 219 6 219 6 111 41 c 1,20,-1
 111 231 l 1,21,22
 213 178 213 178 312 151.5 c 128,-1,23
 411 125 411 125 508 125 c 0,24,25
 638 125 638 125 708 169.5 c 128,-1,26
 778 214 778 214 778 295 c 0,27,28
 778 370 778 370 727.5 410 c 128,-1,29
 677 450 677 450 506 487 c 2,30,-1
 442 502 l 2,31,32
 271 538 271 538 195 612.5 c 128,-1,33
 119 687 119 687 119 817 c 0,34,35
 119 975 119 975 231 1061 c 128,-1,36
 343 1147 343 1147 549 1147 c 0,37,38
 651 1147 651 1147 741 1132 c 128,-1,39
 831 1117 831 1117 907 1087 c 1,0,-1
EndSplineSet
Validated: 1
EndChar

StartChar: t
Encoding: 116 116 90
Width: 803
GlyphClass: 2
Flags: W
AnchorPoint: "Anchor-4" 282 1520 basechar 0
LayerCount: 2
Fore
SplineSet
375 1438 m 1,0,-1
 375 1120 l 1,1,-1
 754 1120 l 1,2,-1
 754 977 l 1,3,-1
 375 977 l 1,4,-1
 375 369 l 2,5,6
 375 232 375 232 412.5 193 c 128,-1,7
 450 154 450 154 565 154 c 2,8,-1
 754 154 l 1,9,-1
 754 0 l 1,10,-1
 565 0 l 2,11,12
 352 0 352 0 271 79.5 c 128,-1,13
 190 159 190 159 190 369 c 2,14,-1
 190 977 l 1,15,-1
 55 977 l 1,16,-1
 55 1120 l 1,17,-1
 190 1120 l 1,18,-1
 190 1438 l 1,19,-1
 375 1438 l 1,0,-1
EndSplineSet
Validated: 1
EndChar

StartChar: u
Encoding: 117 117 91
Width: 1298
GlyphClass: 2
Flags: W
AnchorPoint: "Anchor-4" 637 1147 basechar 0 20
LayerCount: 2
Fore
SplineSet
174 442 m 2,0,-1
 174 1120 l 1,1,-1
 358 1120 l 1,2,-1
 358 449 l 2,3,4
 358 290 358 290 420 210.5 c 128,-1,5
 482 131 482 131 606 131 c 0,6,7
 755 131 755 131 841.5 226 c 128,-1,8
 928 321 928 321 928 485 c 2,9,-1
 928 1120 l 1,10,-1
 1112 1120 l 1,11,-1
 1112 0 l 1,12,-1
 928 0 l 1,13,-1
 928 172 l 1,14,15
 861 70 861 70 772.5 20.5 c 128,-1,16
 684 -29 684 -29 567 -29 c 0,17,18
 374 -29 374 -29 274 91 c 128,-1,19
 174 211 174 211 174 442 c 2,0,-1
637 1147 m 1024,20,-1
EndSplineSet
Validated: 1
EndChar

StartChar: v
Encoding: 118 118 92
Width: 1212
GlyphClass: 2
Flags: W
AnchorPoint: "Anchor-4" 606 1147 basechar 0
LayerCount: 2
Fore
SplineSet
61 1120 m 1,0,-1
 256 1120 l 1,1,-1
 606 180 l 1,2,-1
 956 1120 l 1,3,-1
 1151 1120 l 1,4,-1
 731 0 l 1,5,-1
 481 0 l 1,6,-1
 61 1120 l 1,0,-1
EndSplineSet
Validated: 1
EndChar

StartChar: w
Encoding: 119 119 93
Width: 1675
GlyphClass: 2
Flags: W
AnchorPoint: "Anchor-4" 839 1147 basechar 0
LayerCount: 2
Fore
SplineSet
86 1120 m 1,0,-1
 270 1120 l 1,1,-1
 500 246 l 1,2,-1
 729 1120 l 1,3,-1
 946 1120 l 1,4,-1
 1176 246 l 1,5,-1
 1405 1120 l 1,6,-1
 1589 1120 l 1,7,-1
 1296 0 l 1,8,-1
 1079 0 l 1,9,-1
 838 918 l 1,10,-1
 596 0 l 1,11,-1
 379 0 l 1,12,-1
 86 1120 l 1,0,-1
EndSplineSet
Validated: 1
EndChar

StartChar: x
Encoding: 120 120 94
Width: 1212
GlyphClass: 2
Flags: W
AnchorPoint: "Anchor-4" 610 1147 basechar 0
LayerCount: 2
Fore
SplineSet
1124 1120 m 1,0,-1
 719 575 l 1,1,-1
 1145 0 l 1,2,-1
 928 0 l 1,3,-1
 602 440 l 1,4,-1
 276 0 l 1,5,-1
 59 0 l 1,6,-1
 494 586 l 1,7,-1
 96 1120 l 1,8,-1
 313 1120 l 1,9,-1
 610 721 l 1,10,-1
 907 1120 l 1,11,-1
 1124 1120 l 1,0,-1
EndSplineSet
Validated: 1
EndChar

StartChar: y
Encoding: 121 121 95
Width: 1212
GlyphClass: 2
Flags: W
AnchorPoint: "Anchor-4" 608 1147 basechar 0
LayerCount: 2
Fore
SplineSet
659 -104 m 2,0,1
 581 -304 581 -304 507 -365 c 128,-1,2
 433 -426 433 -426 309 -426 c 2,3,-1
 162 -426 l 1,4,-1
 162 -272 l 1,5,-1
 270 -272 l 2,6,7
 346 -272 346 -272 388 -236 c 128,-1,8
 430 -200 430 -200 481 -66 c 2,9,-1
 514 18 l 1,10,-1
 61 1120 l 1,11,-1
 256 1120 l 1,12,-1
 606 244 l 1,13,-1
 956 1120 l 1,14,-1
 1151 1120 l 1,15,-1
 659 -104 l 2,0,1
EndSplineSet
Validated: 1
EndChar

StartChar: z
Encoding: 122 122 96
Width: 1075
GlyphClass: 2
Flags: W
AnchorPoint: "Anchor-4" 535 1147 basechar 0
LayerCount: 2
Fore
SplineSet
113 1120 m 1,0,-1
 987 1120 l 1,1,-1
 987 952 l 1,2,-1
 295 147 l 1,3,-1
 987 147 l 1,4,-1
 987 0 l 1,5,-1
 88 0 l 1,6,-1
 88 168 l 1,7,-1
 780 973 l 1,8,-1
 113 973 l 1,9,-1
 113 1120 l 1,0,-1
EndSplineSet
Validated: 1
EndChar

StartChar: braceleft
Encoding: 123 123 97
Width: 1303
GlyphClass: 2
Flags: W
LayerCount: 2
Fore
SplineSet
1047 -190 m 1,0,-1
 1047 -334 l 1,1,-1
 985 -334 l 2,2,3
 736 -334 736 -334 651.5 -260 c 128,-1,4
 567 -186 567 -186 567 35 c 2,5,-1
 567 274 l 2,6,7
 567 425 567 425 513 483 c 128,-1,8
 459 541 459 541 317 541 c 2,9,-1
 256 541 l 1,10,-1
 256 684 l 1,11,-1
 317 684 l 2,12,13
 460 684 460 684 513.5 741.5 c 128,-1,14
 567 799 567 799 567 948 c 2,15,-1
 567 1188 l 2,16,17
 567 1409 567 1409 651.5 1482.5 c 128,-1,18
 736 1556 736 1556 985 1556 c 2,19,-1
 1047 1556 l 1,20,-1
 1047 1413 l 1,21,-1
 979 1413 l 2,22,23
 838 1413 838 1413 795 1369 c 128,-1,24
 752 1325 752 1325 752 1184 c 2,25,-1
 752 936 l 2,26,27
 752 779 752 779 706.5 708 c 128,-1,28
 661 637 661 637 551 612 c 1,29,30
 662 585 662 585 707 514 c 128,-1,31
 752 443 752 443 752 287 c 2,32,-1
 752 39 l 2,33,34
 752 -102 752 -102 795 -146 c 128,-1,35
 838 -190 838 -190 979 -190 c 2,36,-1
 1047 -190 l 1,0,-1
EndSplineSet
Validated: 1
EndChar

StartChar: bar
Encoding: 124 124 98
Width: 690
GlyphClass: 2
Flags: W
GlyphCompositionVertical: 2  bar%0,0,40,2048 bar%1,40,0,2048
LayerCount: 2
Fore
SplineSet
430 1565 m 1,0,-1
 430 -483 l 1,1,-1
 260 -483 l 1,2,-1
 260 1565 l 1,3,-1
 430 1565 l 1,0,-1
EndSplineSet
Validated: 1
EndChar

StartChar: braceright
Encoding: 125 125 99
Width: 1303
GlyphClass: 2
Flags: W
LayerCount: 2
Fore
SplineSet
256 -190 m 1,0,-1
 326 -190 l 2,1,2
 466 -190 466 -190 508.5 -147 c 128,-1,3
 551 -104 551 -104 551 39 c 2,4,-1
 551 287 l 2,5,6
 551 443 551 443 596 514 c 128,-1,7
 641 585 641 585 752 612 c 1,8,9
 641 637 641 637 596 708 c 128,-1,10
 551 779 551 779 551 936 c 2,11,-1
 551 1184 l 2,12,13
 551 1326 551 1326 508.5 1369.5 c 128,-1,14
 466 1413 466 1413 326 1413 c 2,15,-1
 256 1413 l 1,16,-1
 256 1556 l 1,17,-1
 319 1556 l 2,18,19
 568 1556 568 1556 651.5 1482.5 c 128,-1,20
 735 1409 735 1409 735 1188 c 2,21,-1
 735 948 l 2,22,23
 735 799 735 799 789 741.5 c 128,-1,24
 843 684 843 684 985 684 c 2,25,-1
 1047 684 l 1,26,-1
 1047 541 l 1,27,-1
 985 541 l 2,28,29
 843 541 843 541 789 483 c 128,-1,30
 735 425 735 425 735 274 c 2,31,-1
 735 35 l 2,32,33
 735 -186 735 -186 651.5 -260 c 128,-1,34
 568 -334 568 -334 319 -334 c 2,35,-1
 256 -334 l 1,36,-1
 256 -190 l 1,0,-1
EndSplineSet
Validated: 1
EndChar

StartChar: asciitilde
Encoding: 126 126 100
Width: 1716
GlyphClass: 2
Flags: W
LayerCount: 2
Fore
SplineSet
1499 817 m 1,0,-1
 1499 639 l 1,1,2
 1394 560 1394 560 1304.5 526 c 128,-1,3
 1215 492 1215 492 1118 492 c 0,4,5
 1008 492 1008 492 862 551 c 0,6,7
 851 555 851 555 846 557 c 0,8,9
 839 560 839 560 824 565 c 0,10,11
 669 627 669 627 575 627 c 0,12,13
 487 627 487 627 401 588.5 c 128,-1,14
 315 550 315 550 217 467 c 1,15,-1
 217 645 l 1,16,17
 322 724 322 724 411.5 758.5 c 128,-1,18
 501 793 501 793 598 793 c 0,19,20
 708 793 708 793 855 733 c 0,21,22
 865 729 865 729 870 727 c 0,23,24
 878 724 878 724 892 719 c 0,25,26
 1047 657 1047 657 1141 657 c 0,27,28
 1227 657 1227 657 1311.5 695 c 128,-1,29
 1396 733 1396 733 1499 817 c 1,0,-1
EndSplineSet
Validated: 1
EndChar

StartChar: uni007F
Encoding: 127 127 101
Width: 1233
GlyphClass: 2
Flags: W
LayerCount: 2
Fore
SplineSet
994 410 m 1,0,-1
 994 983 l 1,1,-1
 886 983 l 1,2,-1
 686 696 l 1,3,-1
 886 410 l 1,4,-1
 994 410 l 1,0,-1
1108 296 m 1,5,-1
 125 296 l 1,6,-1
 125 1097 l 1,7,-1
 1108 1097 l 1,8,-1
 1108 296 l 1,5,-1
485 983 m 1,9,-1
 616 796 l 1,10,-1
 747 983 l 1,11,-1
 485 983 l 1,9,-1
346 983 m 1,12,-1
 239 983 l 1,13,-1
 239 410 l 1,14,-1
 346 410 l 1,15,-1
 546 696 l 1,16,-1
 346 983 l 1,12,-1
747 410 m 1,17,-1
 616 597 l 1,18,-1
 485 410 l 1,19,-1
 747 410 l 1,17,-1
EndSplineSet
Validated: 1
EndChar

StartChar: exclamdown
Encoding: 161 161 103
Width: 821
GlyphClass: 2
Flags: W
LayerCount: 2
Fore
SplineSet
512 866 m 1,0,-1
 309 866 l 1,1,-1
 309 1120 l 1,2,-1
 512 1120 l 1,3,-1
 512 866 l 1,0,-1
512 -373 m 1,4,-1
 309 -373 l 1,5,-1
 309 282 l 1,6,-1
 330 639 l 1,7,-1
 492 639 l 1,8,-1
 512 282 l 1,9,-1
 512 -373 l 1,4,-1
EndSplineSet
Validated: 1
EndChar

StartChar: cent
Encoding: 162 162 104
Width: 1303
GlyphClass: 2
Flags: W
LayerCount: 2
Fore
SplineSet
678 131 m 1,0,-1
 678 987 l 1,1,2
 531 969 531 969 449 856 c 128,-1,3
 367 743 367 743 367 559 c 0,4,5
 367 374 367 374 449 261 c 128,-1,6
 531 148 531 148 678 131 c 1,0,-1
1059 1077 m 1,7,-1
 1059 905 l 1,8,9
 985 946 985 946 917 967 c 128,-1,10
 849 988 849 988 781 991 c 1,11,-1
 780 127 l 1,12,13
 850 132 850 132 918.5 153 c 128,-1,14
 987 174 987 174 1059 213 c 1,15,-1
 1059 43 l 1,16,17
 994 13 994 13 925.5 -4.5 c 128,-1,18
 857 -22 857 -22 780 -29 c 1,19,-1
 780 -313 l 1,20,-1
 678 -313 l 1,21,-1
 678 -25 l 1,22,23
 437 -5 437 -5 304.5 148.5 c 128,-1,24
 172 302 172 302 172 559 c 0,25,26
 172 817 172 817 304.5 970 c 128,-1,27
 437 1123 437 1123 678 1145 c 1,28,-1
 678 1432 l 1,29,-1
 780 1432 l 1,30,-1
 781 1145 l 1,31,32
 854 1141 854 1141 922.5 1124.5 c 128,-1,33
 991 1108 991 1108 1059 1077 c 1,7,-1
EndSplineSet
Validated: 1
EndChar

StartChar: sterling
Encoding: 163 163 105
Width: 1303
GlyphClass: 2
Flags: W
LayerCount: 2
Fore
SplineSet
1102 1460 m 1,0,-1
 1102 1278 l 1,1,2
 1026 1319 1026 1319 958 1339.5 c 128,-1,3
 890 1360 890 1360 829 1360 c 0,4,5
 681 1360 681 1360 623 1282.5 c 128,-1,6
 565 1205 565 1205 565 993 c 2,7,-1
 565 778 l 1,8,-1
 956 778 l 1,9,-1
 956 635 l 1,10,-1
 565 635 l 1,11,-1
 565 170 l 1,12,-1
 1122 170 l 1,13,-1
 1122 0 l 1,14,-1
 129 0 l 1,15,-1
 129 170 l 1,16,-1
 365 170 l 1,17,-1
 365 635 l 1,18,-1
 166 635 l 1,19,-1
 166 778 l 1,20,-1
 365 778 l 1,21,-1
 365 1016 l 2,22,23
 365 1277 365 1277 472 1398.5 c 128,-1,24
 579 1520 579 1520 811 1520 c 0,25,26
 872 1520 872 1520 947.5 1504.5 c 128,-1,27
 1023 1489 1023 1489 1102 1460 c 1,0,-1
EndSplineSet
Validated: 1
EndChar

StartChar: currency
Encoding: 164 164 106
Width: 1303
GlyphClass: 2
Flags: W
LayerCount: 2
Fore
SplineSet
891 993 m 1,0,-1
 1098 1202 l 1,1,-1
 1212 1087 l 1,2,-1
 1006 881 l 1,3,4
 1043 822 1043 822 1061 762.5 c 128,-1,5
 1079 703 1079 703 1079 641 c 0,6,7
 1079 578 1079 578 1060 520.5 c 128,-1,8
 1041 463 1041 463 1001 406 c 1,9,-1
 1210 199 l 1,10,-1
 1096 86 l 1,11,-1
 889 293 l 1,12,13
 830 253 830 253 772 234 c 128,-1,14
 714 215 714 215 653 215 c 0,15,16
 595 215 595 215 535 233.5 c 128,-1,17
 475 252 475 252 414 289 c 1,18,-1
 207 82 l 1,19,-1
 94 197 l 1,20,-1
 301 403 l 1,21,22
 264 465 264 465 245.5 524 c 128,-1,23
 227 583 227 583 227 641 c 0,24,25
 227 705 227 705 246 763 c 128,-1,26
 265 821 265 821 303 877 c 1,27,-1
 96 1083 l 1,28,-1
 211 1198 l 1,29,-1
 418 991 l 1,30,31
 473 1030 473 1030 531 1048.5 c 128,-1,32
 589 1067 589 1067 653 1067 c 0,33,34
 713 1067 713 1067 771.5 1049 c 128,-1,35
 830 1031 830 1031 891 993 c 1,0,-1
922 643 m 0,36,37
 922 755 922 755 844.5 832 c 128,-1,38
 767 909 767 909 653 909 c 0,39,40
 541 909 541 909 462 832 c 128,-1,41
 383 755 383 755 383 643 c 0,42,43
 383 529 383 529 461.5 451 c 128,-1,44
 540 373 540 373 653 373 c 256,45,46
 766 373 766 373 844 451.5 c 128,-1,47
 922 530 922 530 922 643 c 0,36,37
EndSplineSet
Validated: 1
EndChar

StartChar: yen
Encoding: 165 165 107
Width: 1303
GlyphClass: 2
Flags: W
LayerCount: 2
Fore
SplineSet
1165 455 m 1,0,-1
 752 455 l 1,1,-1
 752 0 l 1,2,-1
 551 0 l 1,3,-1
 551 455 l 1,4,-1
 135 455 l 1,5,-1
 135 578 l 1,6,-1
 551 578 l 1,7,-1
 551 629 l 1,8,-1
 467 784 l 1,9,-1
 135 784 l 1,10,-1
 135 907 l 1,11,-1
 399 907 l 1,12,-1
 82 1493 l 1,13,-1
 272 1493 l 1,14,-1
 651 793 l 1,15,-1
 1028 1493 l 1,16,-1
 1219 1493 l 1,17,-1
 901 907 l 1,18,-1
 1165 907 l 1,19,-1
 1165 784 l 1,20,-1
 834 784 l 1,21,-1
 750 629 l 1,22,-1
 750 578 l 1,23,-1
 1165 578 l 1,24,-1
 1165 455 l 1,0,-1
EndSplineSet
Validated: 1
EndChar

StartChar: brokenbar
Encoding: 166 166 108
Width: 690
GlyphClass: 2
Flags: W
LayerCount: 2
Fore
SplineSet
430 408 m 1,0,-1
 430 -350 l 1,1,-1
 260 -350 l 1,2,-1
 260 408 l 1,3,-1
 430 408 l 1,0,-1
430 1432 m 1,4,-1
 430 674 l 1,5,-1
 260 674 l 1,6,-1
 260 1432 l 1,7,-1
 430 1432 l 1,4,-1
EndSplineSet
Validated: 1
EndChar

StartChar: section
Encoding: 167 167 109
Width: 1024
GlyphClass: 2
Flags: W
LayerCount: 2
Fore
SplineSet
379 936 m 1,0,1
 316 890 316 890 285 845 c 128,-1,2
 254 800 254 800 254 754 c 0,3,4
 254 678 254 678 323.5 611.5 c 128,-1,5
 393 545 393 545 643 410 c 1,6,7
 706 455 706 455 737 500.5 c 128,-1,8
 768 546 768 546 768 592 c 0,9,10
 768 667 768 667 696.5 735 c 128,-1,11
 625 803 625 803 379 936 c 1,0,1
829 1462 m 1,12,-1
 829 1298 l 1,13,14
 746 1337 746 1337 674.5 1356.5 c 128,-1,15
 603 1376 603 1376 547 1376 c 0,16,17
 450 1376 450 1376 396 1336 c 128,-1,18
 342 1296 342 1296 342 1225 c 0,19,20
 342 1135 342 1135 548 1020 c 0,21,22
 574 1005 574 1005 588 997 c 0,23,24
 799 878 799 878 864.5 801 c 128,-1,25
 930 724 930 724 930 623 c 0,26,27
 930 533 930 533 884 463 c 128,-1,28
 838 393 838 393 745 340 c 1,29,30
 807 288 807 288 835.5 233.5 c 128,-1,31
 864 179 864 179 864 115 c 0,32,33
 864 -27 864 -27 762 -111 c 128,-1,34
 660 -195 660 -195 487 -195 c 0,35,36
 414 -195 414 -195 337 -180.5 c 128,-1,37
 260 -166 260 -166 172 -137 c 1,38,-1
 172 27 l 1,39,40
 259 -12 259 -12 333 -31.5 c 128,-1,41
 407 -51 407 -51 465 -51 c 0,42,43
 567 -51 567 -51 623.5 -9 c 128,-1,44
 680 33 680 33 680 109 c 0,45,46
 680 211 680 211 459 334 c 2,47,-1
 434 348 l 2,48,49
 220 468 220 468 156 544.5 c 128,-1,50
 92 621 92 621 92 723 c 0,51,52
 92 814 92 814 138.5 885.5 c 128,-1,53
 185 957 185 957 276 1006 c 1,54,55
 217 1050 217 1050 187.5 1106 c 128,-1,56
 158 1162 158 1162 158 1231 c 0,57,58
 158 1361 158 1361 258 1440.5 c 128,-1,59
 358 1520 358 1520 524 1520 c 0,60,61
 597 1520 597 1520 673.5 1505.5 c 128,-1,62
 750 1491 750 1491 829 1462 c 1,12,-1
EndSplineSet
Validated: 1
EndChar

StartChar: dieresis
Encoding: 168 168 110
Width: 1024
GlyphClass: 2
Flags: W
LayerCount: 2
Fore
SplineSet
606 1552 m 1,0,-1
 809 1552 l 1,1,-1
 809 1350 l 1,2,-1
 606 1350 l 1,3,-1
 606 1552 l 1,0,-1
215 1552 m 1,4,-1
 418 1552 l 1,5,-1
 418 1350 l 1,6,-1
 215 1350 l 1,7,-1
 215 1552 l 1,4,-1
EndSplineSet
Validated: 1
EndChar

StartChar: copyright
Encoding: 169 169 111
Width: 2048
GlyphClass: 2
Flags: W
LayerCount: 2
Fore
SplineSet
1024 1485 m 256,0,1
 1176 1485 1176 1485 1307.5 1430 c 128,-1,2
 1439 1375 1439 1375 1548 1266 c 256,3,4
 1657 1157 1657 1157 1711 1026 c 128,-1,5
 1765 895 1765 895 1765 741 c 0,6,7
 1765 589 1765 589 1711 458.5 c 128,-1,8
 1657 328 1657 328 1548 219 c 256,9,10
 1439 110 1439 110 1307.5 55 c 128,-1,11
 1176 0 1176 0 1024 0 c 256,12,13
 872 0 872 0 740.5 55 c 128,-1,14
 609 110 609 110 500 219 c 256,15,16
 391 328 391 328 337 458.5 c 128,-1,17
 283 589 283 589 283 741 c 0,18,19
 283 895 283 895 337 1026 c 128,-1,20
 391 1157 391 1157 500 1266 c 256,21,22
 609 1375 609 1375 740.5 1430 c 128,-1,23
 872 1485 872 1485 1024 1485 c 256,0,1
1024 1382 m 0,24,25
 893 1382 893 1382 780 1335 c 128,-1,26
 667 1288 667 1288 573 1194 c 256,27,28
 479 1100 479 1100 431 985.5 c 128,-1,29
 383 871 383 871 383 741 c 0,30,31
 383 612 383 612 431 498.5 c 128,-1,32
 479 385 479 385 573 291 c 256,33,34
 667 197 667 197 780 149.5 c 128,-1,35
 893 102 893 102 1024 102 c 0,36,37
 1156 102 1156 102 1269.5 149.5 c 128,-1,38
 1383 197 1383 197 1477 291 c 0,39,40
 1570 384 1570 384 1616.5 497 c 128,-1,41
 1663 610 1663 610 1663 741 c 0,42,43
 1663 874 1663 874 1616 987.5 c 128,-1,44
 1569 1101 1569 1101 1477 1194 c 0,45,46
 1383 1288 1383 1288 1269.5 1335 c 128,-1,47
 1156 1382 1156 1382 1024 1382 c 0,24,25
1323 1137 m 1,48,-1
 1323 1008 l 1,49,50
 1257 1041 1257 1041 1192 1057 c 128,-1,51
 1127 1073 1127 1073 1061 1073 c 0,52,53
 912 1073 912 1073 828.5 985.5 c 128,-1,54
 745 898 745 898 745 741 c 0,55,56
 745 582 745 582 830.5 495 c 128,-1,57
 916 408 916 408 1071 408 c 0,58,59
 1135 408 1135 408 1196 423.5 c 128,-1,60
 1257 439 1257 439 1323 473 c 1,61,-1
 1323 346 l 1,62,63
 1256 317 1256 317 1187.5 303 c 128,-1,64
 1119 289 1119 289 1049 289 c 0,65,66
 833 289 833 289 707.5 411 c 128,-1,67
 582 533 582 533 582 741 c 0,68,69
 582 950 582 950 707.5 1071 c 128,-1,70
 833 1192 833 1192 1049 1192 c 0,71,72
 1122 1192 1122 1192 1190 1178 c 128,-1,73
 1258 1164 1258 1164 1323 1137 c 1,48,-1
EndSplineSet
Validated: 1
EndChar

StartChar: ordfeminine
Encoding: 170 170 112
Width: 965
GlyphClass: 2
Flags: W
LayerCount: 2
Fore
SplineSet
139 592 m 1,0,-1
 827 592 l 1,1,-1
 827 469 l 1,2,-1
 139 469 l 1,3,-1
 139 592 l 1,0,-1
825 1165 m 2,4,-1
 825 717 l 1,5,-1
 676 717 l 1,6,-1
 676 829 l 1,7,8
 632 766 632 766 560 732 c 128,-1,9
 488 698 488 698 395 698 c 0,10,11
 267 698 267 698 191 765.5 c 128,-1,12
 115 833 115 833 115 946 c 0,13,14
 115 1081 115 1081 210.5 1150 c 128,-1,15
 306 1219 306 1219 494 1219 c 2,16,-1
 676 1219 l 1,17,-1
 676 1223 l 2,18,19
 676 1314 676 1314 617.5 1359.5 c 128,-1,20
 559 1405 559 1405 442 1405 c 0,21,22
 380 1405 380 1405 312 1388 c 128,-1,23
 244 1371 244 1371 176 1337 c 1,24,-1
 176 1464 l 1,25,26
 249 1492 249 1492 321.5 1506 c 128,-1,27
 394 1520 394 1520 463 1520 c 0,28,29
 646 1520 646 1520 735.5 1432 c 128,-1,30
 825 1344 825 1344 825 1165 c 2,4,-1
549 1104 m 2,31,32
 388 1104 388 1104 325 1070.5 c 128,-1,33
 262 1037 262 1037 262 958 c 0,34,35
 262 894 262 894 311 855.5 c 128,-1,36
 360 817 360 817 442 817 c 0,37,38
 546 817 546 817 611 889 c 128,-1,39
 676 961 676 961 676 1075 c 2,40,-1
 676 1104 l 1,41,-1
 549 1104 l 2,31,32
EndSplineSet
Validated: 1
EndChar

StartChar: guillemotleft
Encoding: 171 171 113
Width: 1253
GlyphClass: 2
Flags: W
LayerCount: 2
Fore
SplineSet
1061 1059 m 1,0,-1
 1061 868 l 1,1,-1
 760 600 l 1,2,-1
 1061 332 l 1,3,-1
 1061 141 l 1,4,-1
 592 559 l 1,5,-1
 592 641 l 1,6,-1
 1061 1059 l 1,0,-1
627 1059 m 1,7,-1
 627 868 l 1,8,-1
 326 600 l 1,9,-1
 627 332 l 1,10,-1
 627 141 l 1,11,-1
 158 559 l 1,12,-1
 158 641 l 1,13,-1
 627 1059 l 1,7,-1
EndSplineSet
Validated: 1
EndChar

StartChar: logicalnot
Encoding: 172 172 114
Width: 1478
GlyphClass: 2
Flags: W
LayerCount: 2
Fore
SplineSet
1354 717 m 2,0,-1
 1354 271 l 2,1,2
 1354 257 1354 257 1354 250 c 128,-1,3
 1354 243 1354 243 1351.5 231 c 128,-1,4
 1349 219 1349 219 1344.5 213 c 128,-1,5
 1340 207 1340 207 1331.5 202.5 c 128,-1,6
 1323 198 1323 198 1310 198 c 128,-1,7
 1297 198 1297 198 1288 202.5 c 128,-1,8
 1279 207 1279 207 1275 213 c 128,-1,9
 1271 219 1271 219 1268.5 231 c 128,-1,10
 1266 243 1266 243 1265.5 250 c 128,-1,11
 1265 257 1265 257 1265 271 c 2,12,-1
 1265 702 l 1,13,-1
 198 702 l 2,14,15
 181 702 181 702 172 702.5 c 128,-1,16
 163 703 163 703 150 707 c 128,-1,17
 137 711 137 711 130.5 720.5 c 128,-1,18
 124 730 124 730 124 746 c 128,-1,19
 124 762 124 762 130.5 771.5 c 128,-1,20
 137 781 137 781 150 785 c 128,-1,21
 163 789 163 789 172 789.5 c 128,-1,22
 181 790 181 790 198 790 c 2,23,-1
 1281 790 l 2,24,25
 1329 790 1329 790 1341.5 777.5 c 128,-1,26
 1354 765 1354 765 1354 717 c 2,0,-1
EndSplineSet
Validated: 1
EndChar

StartChar: sfthyphen
Encoding: 173 173 115
Width: 739
GlyphClass: 2
Flags: W
LayerCount: 2
Fore
SplineSet
100 643 m 1,0,-1
 639 643 l 1,1,-1
 639 479 l 1,2,-1
 100 479 l 1,3,-1
 100 643 l 1,0,-1
EndSplineSet
Validated: 1
EndChar

StartChar: registered
Encoding: 174 174 116
Width: 2048
GlyphClass: 2
Flags: W
LayerCount: 2
Fore
SplineSet
1024 1382 m 0,0,1
 893 1382 893 1382 780 1335 c 128,-1,2
 667 1288 667 1288 573 1194 c 256,3,4
 479 1100 479 1100 431 985.5 c 128,-1,5
 383 871 383 871 383 741 c 0,6,7
 383 612 383 612 431 498.5 c 128,-1,8
 479 385 479 385 573 291 c 256,9,10
 667 197 667 197 780 149.5 c 128,-1,11
 893 102 893 102 1024 102 c 0,12,13
 1156 102 1156 102 1269.5 149.5 c 128,-1,14
 1383 197 1383 197 1477 291 c 0,15,16
 1570 384 1570 384 1616.5 497 c 128,-1,17
 1663 610 1663 610 1663 741 c 0,18,19
 1663 874 1663 874 1616 987.5 c 128,-1,20
 1569 1101 1569 1101 1477 1194 c 0,21,22
 1383 1288 1383 1288 1269.5 1335 c 128,-1,23
 1156 1382 1156 1382 1024 1382 c 0,0,1
1024 1485 m 256,24,25
 1176 1485 1176 1485 1307.5 1430 c 128,-1,26
 1439 1375 1439 1375 1548 1266 c 256,27,28
 1657 1157 1657 1157 1711 1026 c 128,-1,29
 1765 895 1765 895 1765 741 c 0,30,31
 1765 589 1765 589 1711 458.5 c 128,-1,32
 1657 328 1657 328 1548 219 c 256,33,34
 1439 110 1439 110 1307.5 55 c 128,-1,35
 1176 0 1176 0 1024 0 c 256,36,37
 872 0 872 0 740.5 55 c 128,-1,38
 609 110 609 110 500 219 c 256,39,40
 391 328 391 328 337 458.5 c 128,-1,41
 283 589 283 589 283 741 c 0,42,43
 283 895 283 895 337 1026 c 128,-1,44
 391 1157 391 1157 500 1266 c 256,45,46
 609 1375 609 1375 740.5 1430 c 128,-1,47
 872 1485 872 1485 1024 1485 c 256,24,25
997 1071 m 2,48,-1
 874 1071 l 1,49,-1
 874 795 l 1,50,-1
 997 795 l 2,51,52
 1107 795 1107 795 1150.5 826 c 128,-1,53
 1194 857 1194 857 1194 932 c 0,54,55
 1194 1008 1194 1008 1150 1039.5 c 128,-1,56
 1106 1071 1106 1071 997 1071 c 2,48,-1
1004 1174 m 2,57,58
 1180 1174 1180 1174 1267 1114.5 c 128,-1,59
 1354 1055 1354 1055 1354 934 c 0,60,61
 1354 848 1354 848 1301.5 792 c 128,-1,62
 1249 736 1249 736 1153 719 c 1,63,64
 1177 711 1177 711 1210.5 672.5 c 128,-1,65
 1244 634 1244 634 1290 561 c 2,66,-1
 1427 338 l 1,67,-1
 1255 338 l 1,68,-1
 1126 547 l 2,69,70
 1067 643 1067 643 1030.5 668.5 c 128,-1,71
 994 694 994 694 940 694 c 2,72,-1
 874 694 l 1,73,-1
 874 338 l 1,74,-1
 719 338 l 1,75,-1
 719 1174 l 1,76,-1
 1004 1174 l 2,57,58
EndSplineSet
Validated: 1
EndChar

StartChar: macron
Encoding: 175 175 117
Width: 1558
GlyphClass: 2
Flags: W
GlyphCompositionHorizontal: 2  macron%0,0,40,598 macron%1,40,0,598
LayerCount: 2
Fore
SplineSet
915 778 m 1,0,-1
 1099 778 l 1,1,-1
 1099 1389 l 1,2,-1
 898 1348 l 1,3,-1
 898 1464 l 1,4,-1
 1105 1503 l 1,5,-1
 1229 1503 l 1,6,-1
 1229 778 l 1,7,-1
 1413 778 l 1,8,-1
 1413 668 l 1,9,-1
 915 668 l 1,10,-1
 915 778 l 1,0,-1
123 1075 m 1,11,-1
 850 1075 l 1,12,-1
 850 980 l 1,13,-1
 123 980 l 1,14,-1
 123 1075 l 1,11,-1
EndSplineSet
Validated: 1
EndChar

StartChar: degree
Encoding: 176 176 118
Width: 1233
GlyphClass: 2
Flags: W
LayerCount: 2
Fore
SplineSet
616 1520 m 0,0,1
 681 1520 681 1520 739.5 1495.5 c 128,-1,2
 798 1471 798 1471 842 1425 c 0,3,4
 887 1380 887 1380 910.5 1323 c 128,-1,5
 934 1266 934 1266 934 1200 c 0,6,7
 934 1068 934 1068 841 976.5 c 128,-1,8
 748 885 748 885 614 885 c 0,9,10
 479 885 479 885 389 975 c 128,-1,11
 299 1065 299 1065 299 1200 c 0,12,13
 299 1334 299 1334 391 1427 c 128,-1,14
 483 1520 483 1520 616 1520 c 0,0,1
616 1391 m 256,15,16
 537 1391 537 1391 481.5 1335.5 c 128,-1,17
 426 1280 426 1280 426 1200 c 256,18,19
 426 1120 426 1120 480.5 1066 c 128,-1,20
 535 1012 535 1012 614 1012 c 0,21,22
 694 1012 694 1012 750.5 1067 c 128,-1,23
 807 1122 807 1122 807 1200 c 0,24,25
 807 1279 807 1279 751 1335 c 128,-1,26
 695 1391 695 1391 616 1391 c 256,15,16
EndSplineSet
Validated: 1
EndChar

StartChar: plusminus
Encoding: 177 177 119
Width: 1724
GlyphClass: 2
Flags: W
LayerCount: 2
Fore
SplineSet
908 695 m 1,0,-1
 908 89 l 1,1,-1
 1527 89 l 2,2,3
 1543 89 1543 89 1552.5 88 c 128,-1,4
 1562 87 1562 87 1575 83.5 c 128,-1,5
 1588 80 1588 80 1594.5 70 c 128,-1,6
 1601 60 1601 60 1601 44.5 c 128,-1,7
 1601 29 1601 29 1594.5 19 c 128,-1,8
 1588 9 1588 9 1575 5.5 c 128,-1,9
 1562 2 1562 2 1553 1 c 128,-1,10
 1544 0 1544 0 1527 0 c 2,11,-1
 198 0 l 2,12,13
 182 0 182 0 172.5 1 c 128,-1,14
 163 2 163 2 150 5.5 c 128,-1,15
 137 9 137 9 130.5 19 c 128,-1,16
 124 29 124 29 124 44.5 c 128,-1,17
 124 60 124 60 130.5 70 c 128,-1,18
 137 80 137 80 150 83.5 c 128,-1,19
 163 87 163 87 172 88 c 128,-1,20
 181 89 181 89 198 89 c 2,21,-1
 819 89 l 1,22,-1
 819 695 l 1,23,-1
 198 695 l 2,24,25
 182 695 182 695 172.5 696 c 128,-1,26
 163 697 163 697 150 700.5 c 128,-1,27
 137 704 137 704 130.5 714 c 128,-1,28
 124 724 124 724 124 739.5 c 128,-1,29
 124 755 124 755 130.5 765 c 128,-1,30
 137 775 137 775 150 778.5 c 128,-1,31
 163 782 163 782 172 783 c 128,-1,32
 181 784 181 784 198 784 c 2,33,-1
 819 784 l 1,34,-1
 819 1407 l 2,35,36
 819 1423 819 1423 820 1432 c 128,-1,37
 821 1441 821 1441 824.5 1454 c 128,-1,38
 828 1467 828 1467 838 1473 c 128,-1,39
 848 1479 848 1479 863.5 1478.5 c 128,-1,40
 879 1478 879 1478 889 1471.5 c 128,-1,41
 899 1465 899 1465 902.5 1450.5 c 128,-1,42
 906 1436 906 1436 907 1426 c 128,-1,43
 908 1416 908 1416 908 1399 c 2,44,-1
 908 784 l 1,45,-1
 1527 784 l 2,46,47
 1543 784 1543 784 1552.5 783 c 128,-1,48
 1562 782 1562 782 1575 778.5 c 128,-1,49
 1588 775 1588 775 1594.5 765 c 128,-1,50
 1601 755 1601 755 1601 739.5 c 128,-1,51
 1601 724 1601 724 1594.5 714 c 128,-1,52
 1588 704 1588 704 1575 700.5 c 128,-1,53
 1562 697 1562 697 1553 696 c 128,-1,54
 1544 695 1544 695 1527 695 c 2,55,-1
 908 695 l 1,0,-1
EndSplineSet
Validated: 1
EndChar

StartChar: twosuperior
Encoding: 178 178 120
Width: 821
GlyphClass: 2
Flags: W
LayerCount: 2
Fore
SplineSet
268 782 m 1,0,-1
 692 782 l 1,1,-1
 692 668 l 1,2,-1
 94 668 l 1,3,-1
 94 778 l 1,4,5
 128 809 128 809 191 865 c 0,6,7
 535 1170 535 1170 535 1264 c 0,8,9
 535 1330 535 1330 483 1370.5 c 128,-1,10
 431 1411 431 1411 346 1411 c 0,11,12
 294 1411 294 1411 233 1393.5 c 128,-1,13
 172 1376 172 1376 100 1341 c 1,14,-1
 100 1464 l 1,15,16
 177 1492 177 1492 243.5 1506 c 128,-1,17
 310 1520 310 1520 367 1520 c 0,18,19
 512 1520 512 1520 599 1454 c 128,-1,20
 686 1388 686 1388 686 1280 c 0,21,22
 686 1141 686 1141 355 857 c 0,23,24
 299 809 299 809 268 782 c 1,0,-1
EndSplineSet
Validated: 1
EndChar

StartChar: threesuperior
Encoding: 179 179 121
Width: 821
GlyphClass: 2
Flags: W
LayerCount: 2
Fore
SplineSet
524 1120 m 1,0,1
 616 1102 616 1102 666.5 1047.5 c 128,-1,2
 717 993 717 993 717 911 c 0,3,4
 717 787 717 787 622 720 c 128,-1,5
 527 653 527 653 350 653 c 0,6,7
 293 653 293 653 230.5 663.5 c 128,-1,8
 168 674 168 674 98 694 c 1,9,-1
 98 815 l 1,10,11
 150 788 150 788 209.5 775 c 128,-1,12
 269 762 269 762 336 762 c 0,13,14
 445 762 445 762 505 801.5 c 128,-1,15
 565 841 565 841 565 911 c 0,16,17
 565 985 565 985 509.5 1023 c 128,-1,18
 454 1061 454 1061 346 1061 c 2,19,-1
 260 1061 l 1,20,-1
 260 1169 l 1,21,-1
 354 1169 l 2,22,23
 448 1169 448 1169 496.5 1200.5 c 128,-1,24
 545 1232 545 1232 545 1292 c 0,25,26
 545 1350 545 1350 495 1380.5 c 128,-1,27
 445 1411 445 1411 350 1411 c 0,28,29
 310 1411 310 1411 259 1402 c 128,-1,30
 208 1393 208 1393 127 1370 c 1,31,-1
 127 1485 l 1,32,33
 200 1502 200 1502 264 1511 c 128,-1,34
 328 1520 328 1520 383 1520 c 0,35,36
 527 1520 527 1520 611.5 1461 c 128,-1,37
 696 1402 696 1402 696 1303 c 0,38,39
 696 1234 696 1234 651 1186 c 128,-1,40
 606 1138 606 1138 524 1120 c 1,0,1
EndSplineSet
Validated: 1
EndChar

StartChar: acute
Encoding: 180 180 122
Width: 1024
GlyphClass: 2
Flags: W
LayerCount: 2
Fore
SplineSet
651 1638 m 1,0,-1
 850 1638 l 1,1,-1
 524 1262 l 1,2,-1
 371 1262 l 1,3,-1
 651 1638 l 1,0,-1
EndSplineSet
Validated: 1
EndChar

StartChar: mu
Encoding: 181 181 123
Width: 1303
GlyphClass: 2
Flags: W
LayerCount: 2
Fore
SplineSet
174 -426 m 1,0,-1
 174 1120 l 1,1,-1
 358 1120 l 1,2,-1
 358 424 l 2,3,4
 358 279 358 279 427 205 c 128,-1,5
 496 131 496 131 631 131 c 0,6,7
 779 131 779 131 853.5 215 c 128,-1,8
 928 299 928 299 928 467 c 2,9,-1
 928 1120 l 1,10,-1
 1112 1120 l 1,11,-1
 1112 258 l 2,12,13
 1112 198 1112 198 1129.5 169.5 c 128,-1,14
 1147 141 1147 141 1184 141 c 0,15,16
 1193 141 1193 141 1209 146.5 c 128,-1,17
 1225 152 1225 152 1253 164 c 1,18,-1
 1253 16 l 1,19,20
 1212 -7 1212 -7 1175.5 -18 c 128,-1,21
 1139 -29 1139 -29 1104 -29 c 0,22,23
 1035 -29 1035 -29 994 10 c 128,-1,24
 953 49 953 49 938 129 c 1,25,26
 888 50 888 50 815.5 10.5 c 128,-1,27
 743 -29 743 -29 645 -29 c 0,28,29
 543 -29 543 -29 471.5 10 c 128,-1,30
 400 49 400 49 358 127 c 1,31,-1
 358 -426 l 1,32,-1
 174 -426 l 1,0,-1
EndSplineSet
Validated: 1
EndChar

StartChar: paragraph
Encoding: 182 182 124
Width: 1303
GlyphClass: 2
Flags: W
LayerCount: 2
Fore
SplineSet
633 1493 m 2,0,-1
 1081 1493 l 1,1,-1
 1081 -197 l 1,2,-1
 940 -197 l 1,3,-1
 940 1370 l 1,4,-1
 750 1370 l 1,5,-1
 750 -197 l 1,6,-1
 608 -197 l 1,7,-1
 608 649 l 1,8,9
 393 666 393 666 275.5 776.5 c 128,-1,10
 158 887 158 887 158 1071 c 0,11,12
 158 1261 158 1261 288 1377 c 128,-1,13
 418 1493 418 1493 633 1493 c 2,0,-1
EndSplineSet
Validated: 1
EndChar

StartChar: periodcentered
Encoding: 183 183 125
Width: 614
GlyphClass: 2
Flags: W
LayerCount: 2
Fore
SplineSet
115 791 m 1,0,-1
 499 791 l 1,1,-1
 499 415 l 1,2,-1
 115 415 l 1,3,-1
 115 791 l 1,0,-1
EndSplineSet
Validated: 1
EndChar

StartChar: cedilla
Encoding: 184 184 126
Width: 1024
GlyphClass: 2
Flags: W
LayerCount: 2
Fore
SplineSet
596 0 m 1,0,1
 651 -62 651 -62 678 -114.5 c 128,-1,2
 705 -167 705 -167 705 -215 c 0,3,4
 705 -304 705 -304 645 -349.5 c 128,-1,5
 585 -395 585 -395 467 -395 c 0,6,7
 421 -395 421 -395 377.5 -389 c 128,-1,8
 334 -383 334 -383 291 -371 c 1,9,-1
 291 -240 l 1,10,11
 325 -257 325 -257 362 -264.5 c 128,-1,12
 399 -272 399 -272 446 -272 c 0,13,14
 505 -272 505 -272 535 -248 c 128,-1,15
 565 -224 565 -224 565 -178 c 0,16,17
 565 -148 565 -148 543.5 -104.5 c 128,-1,18
 522 -61 522 -61 477 0 c 1,19,-1
 596 0 l 1,0,1
EndSplineSet
Validated: 1
EndChar

StartChar: onesuperior
Encoding: 185 185 127
Width: 821
GlyphClass: 2
Flags: W
LayerCount: 2
Fore
SplineSet
156 778 m 1,0,-1
 360 778 l 1,1,-1
 360 1389 l 1,2,-1
 137 1348 l 1,3,-1
 137 1464 l 1,4,-1
 367 1503 l 1,5,-1
 504 1503 l 1,6,-1
 504 778 l 1,7,-1
 709 778 l 1,8,-1
 709 668 l 1,9,-1
 156 668 l 1,10,-1
 156 778 l 1,0,-1
EndSplineSet
Validated: 1
EndChar

StartChar: ordmasculine
Encoding: 186 186 128
Width: 965
GlyphClass: 2
Flags: W
LayerCount: 2
Fore
SplineSet
139 592 m 1,0,-1
 827 592 l 1,1,-1
 827 469 l 1,2,-1
 139 469 l 1,3,-1
 139 592 l 1,0,-1
483 1520 m 256,4,5
 662 1520 662 1520 765 1409.5 c 128,-1,6
 868 1299 868 1299 868 1108 c 256,7,8
 868 917 868 917 765 807.5 c 128,-1,9
 662 698 662 698 483 698 c 256,10,11
 304 698 304 698 200 808 c 128,-1,12
 96 918 96 918 96 1108 c 0,13,14
 96 1299 96 1299 200 1409.5 c 128,-1,15
 304 1520 304 1520 483 1520 c 256,4,5
483 1405 m 0,16,17
 378 1405 378 1405 315 1324.5 c 128,-1,18
 252 1244 252 1244 252 1108 c 0,19,20
 252 975 252 975 315.5 895 c 128,-1,21
 379 815 379 815 483 815 c 0,22,23
 588 815 588 815 650.5 895 c 128,-1,24
 713 975 713 975 713 1108 c 0,25,26
 713 1245 713 1245 651 1325 c 128,-1,27
 589 1405 589 1405 483 1405 c 0,16,17
EndSplineSet
Validated: 1
EndChar

StartChar: guillemotright
Encoding: 187 187 129
Width: 1253
GlyphClass: 2
Flags: W
LayerCount: 2
Fore
SplineSet
193 1059 m 1,0,-1
 662 641 l 1,1,-1
 662 559 l 1,2,-1
 193 141 l 1,3,-1
 193 332 l 1,4,-1
 494 600 l 1,5,-1
 193 868 l 1,6,-1
 193 1059 l 1,0,-1
627 1059 m 1,7,-1
 1096 641 l 1,8,-1
 1096 559 l 1,9,-1
 627 141 l 1,10,-1
 627 332 l 1,11,-1
 928 600 l 1,12,-1
 627 868 l 1,13,-1
 627 1059 l 1,7,-1
EndSplineSet
Validated: 1
EndChar

StartChar: onequarter
Encoding: 188 188 130
Width: 1985
GlyphClass: 2
Flags: W
LayerCount: 2
Fore
SplineSet
1640 714 m 1,0,-1
 1331 295 l 1,1,-1
 1640 295 l 1,2,-1
 1640 714 l 1,0,-1
1618 835 m 1,3,-1
 1784 835 l 1,4,-1
 1784 295 l 1,5,-1
 1919 295 l 1,6,-1
 1919 186 l 1,7,-1
 1784 186 l 1,8,-1
 1784 0 l 1,9,-1
 1640 0 l 1,10,-1
 1640 186 l 1,11,-1
 1226 186 l 1,12,-1
 1226 307 l 1,13,-1
 1618 835 l 1,3,-1
1378 1520 m 1,14,-1
 1538 1520 l 1,15,-1
 606 -29 l 1,16,-1
 446 -29 l 1,17,-1
 1378 1520 l 1,14,-1
156 778 m 1,18,-1
 360 778 l 1,19,-1
 360 1389 l 1,20,-1
 137 1348 l 1,21,-1
 137 1464 l 1,22,-1
 367 1503 l 1,23,-1
 504 1503 l 1,24,-1
 504 778 l 1,25,-1
 709 778 l 1,26,-1
 709 668 l 1,27,-1
 156 668 l 1,28,-1
 156 778 l 1,18,-1
EndSplineSet
Validated: 1
EndChar

StartChar: onehalf
Encoding: 189 189 131
Width: 1985
GlyphClass: 2
Flags: W
LayerCount: 2
Fore
SplineSet
1378 1520 m 1,0,-1
 1538 1520 l 1,1,-1
 606 -29 l 1,2,-1
 446 -29 l 1,3,-1
 1378 1520 l 1,0,-1
156 778 m 1,4,-1
 360 778 l 1,5,-1
 360 1389 l 1,6,-1
 137 1348 l 1,7,-1
 137 1464 l 1,8,-1
 367 1503 l 1,9,-1
 504 1503 l 1,10,-1
 504 778 l 1,11,-1
 709 778 l 1,12,-1
 709 668 l 1,13,-1
 156 668 l 1,14,-1
 156 778 l 1,4,-1
1431 114 m 1,15,-1
 1855 114 l 1,16,-1
 1855 0 l 1,17,-1
 1257 0 l 1,18,-1
 1257 110 l 1,19,20
 1291 141 1291 141 1354 197 c 0,21,22
 1698 502 1698 502 1698 596 c 0,23,24
 1698 662 1698 662 1646 702.5 c 128,-1,25
 1594 743 1594 743 1509 743 c 0,26,27
 1457 743 1457 743 1396 725.5 c 128,-1,28
 1335 708 1335 708 1263 673 c 1,29,-1
 1263 796 l 1,30,31
 1340 824 1340 824 1406.5 838 c 128,-1,32
 1473 852 1473 852 1530 852 c 0,33,34
 1675 852 1675 852 1762 786 c 128,-1,35
 1849 720 1849 720 1849 612 c 0,36,37
 1849 473 1849 473 1518 189 c 0,38,39
 1462 141 1462 141 1431 114 c 1,15,-1
EndSplineSet
Validated: 1
EndChar

StartChar: threequarters
Encoding: 190 190 132
Width: 1985
GlyphClass: 2
Flags: W
LayerCount: 2
Fore
SplineSet
1640 714 m 1,0,-1
 1331 295 l 1,1,-1
 1640 295 l 1,2,-1
 1640 714 l 1,0,-1
1618 835 m 1,3,-1
 1784 835 l 1,4,-1
 1784 295 l 1,5,-1
 1919 295 l 1,6,-1
 1919 186 l 1,7,-1
 1784 186 l 1,8,-1
 1784 0 l 1,9,-1
 1640 0 l 1,10,-1
 1640 186 l 1,11,-1
 1226 186 l 1,12,-1
 1226 307 l 1,13,-1
 1618 835 l 1,3,-1
1378 1520 m 1,14,-1
 1538 1520 l 1,15,-1
 606 -29 l 1,16,-1
 446 -29 l 1,17,-1
 1378 1520 l 1,14,-1
524 1120 m 1,18,19
 616 1102 616 1102 666.5 1047.5 c 128,-1,20
 717 993 717 993 717 911 c 0,21,22
 717 787 717 787 622 720 c 128,-1,23
 527 653 527 653 350 653 c 0,24,25
 293 653 293 653 230.5 663.5 c 128,-1,26
 168 674 168 674 98 694 c 1,27,-1
 98 815 l 1,28,29
 150 788 150 788 209.5 775 c 128,-1,30
 269 762 269 762 336 762 c 0,31,32
 445 762 445 762 505 801.5 c 128,-1,33
 565 841 565 841 565 911 c 0,34,35
 565 985 565 985 509.5 1023 c 128,-1,36
 454 1061 454 1061 346 1061 c 2,37,-1
 260 1061 l 1,38,-1
 260 1169 l 1,39,-1
 354 1169 l 2,40,41
 448 1169 448 1169 496.5 1200.5 c 128,-1,42
 545 1232 545 1232 545 1292 c 0,43,44
 545 1350 545 1350 495 1380.5 c 128,-1,45
 445 1411 445 1411 350 1411 c 0,46,47
 310 1411 310 1411 259 1402 c 128,-1,48
 208 1393 208 1393 127 1370 c 1,49,-1
 127 1485 l 1,50,51
 200 1502 200 1502 264 1511 c 128,-1,52
 328 1520 328 1520 383 1520 c 0,53,54
 527 1520 527 1520 611.5 1461 c 128,-1,55
 696 1402 696 1402 696 1303 c 0,56,57
 696 1234 696 1234 651 1186 c 128,-1,58
 606 1138 606 1138 524 1120 c 1,18,19
EndSplineSet
Validated: 1
EndChar

StartChar: questiondown
Encoding: 191 191 133
Width: 1087
GlyphClass: 2
Flags: W
LayerCount: 2
Fore
SplineSet
500 719 m 1,0,-1
 690 719 l 1,1,-1
 690 563 l 2,2,3
 690 462 690 462 662.5 397 c 128,-1,4
 635 332 635 332 545 245 c 2,5,-1
 455 157 l 2,6,7
 397 104 397 104 371.5 57 c 128,-1,8
 346 10 346 10 346 -39 c 0,9,10
 346 -128 346 -128 411.5 -183 c 128,-1,11
 477 -238 477 -238 586 -238 c 0,12,13
 664 -238 664 -238 754 -203 c 128,-1,14
 844 -168 844 -168 940 -101 c 1,15,-1
 940 -289 l 1,16,17
 846 -346 846 -346 750 -374 c 128,-1,18
 654 -402 654 -402 551 -402 c 0,19,20
 367 -402 367 -402 255 -305 c 128,-1,21
 143 -208 143 -208 143 -49 c 0,22,23
 143 27 143 27 179.5 95.5 c 128,-1,24
 216 164 216 164 305 250 c 2,25,-1
 393 336 l 2,26,27
 441 383 441 383 460 409.5 c 128,-1,28
 479 436 479 436 487 461 c 0,29,30
 494 482 494 482 497 512 c 128,-1,31
 500 542 500 542 500 596 c 2,32,-1
 500 719 l 1,0,-1
696 866 m 1,33,-1
 494 866 l 1,34,-1
 494 1120 l 1,35,-1
 696 1120 l 1,36,-1
 696 866 l 1,33,-1
EndSplineSet
Validated: 1
EndChar

StartChar: Agrave
Encoding: 192 192 134
Width: 1401
GlyphClass: 2
Flags: W
LayerCount: 2
Fore
SplineSet
643 1899 m 1,0,-1
 839 1635 l 1,1,-1
 686 1635 l 1,2,-1
 456 1899 l 1,3,-1
 643 1899 l 1,0,-1
700 1294 m 1,4,-1
 426 551 l 1,5,-1
 975 551 l 1,6,-1
 700 1294 l 1,4,-1
586 1493 m 1,7,-1
 815 1493 l 1,8,-1
 1384 0 l 1,9,-1
 1174 0 l 1,10,-1
 1038 383 l 1,11,-1
 365 383 l 1,12,-1
 229 0 l 1,13,-1
 16 0 l 1,14,-1
 586 1493 l 1,7,-1
EndSplineSet
Validated: 1
EndChar

StartChar: Aacute
Encoding: 193 193 135
Width: 1401
GlyphClass: 2
Flags: W
LayerCount: 2
Fore
SplineSet
755 1899 m 1,0,-1
 940 1899 l 1,1,-1
 712 1635 l 1,2,-1
 559 1635 l 1,3,-1
 755 1899 l 1,0,-1
700 1294 m 1,4,-1
 426 551 l 1,5,-1
 975 551 l 1,6,-1
 700 1294 l 1,4,-1
586 1493 m 1,7,-1
 815 1493 l 1,8,-1
 1384 0 l 1,9,-1
 1174 0 l 1,10,-1
 1038 383 l 1,11,-1
 365 383 l 1,12,-1
 229 0 l 1,13,-1
 16 0 l 1,14,-1
 586 1493 l 1,7,-1
EndSplineSet
Validated: 1
EndChar

StartChar: Acircumflex
Encoding: 194 194 136
Width: 1401
GlyphClass: 2
Flags: W
LayerCount: 2
Fore
SplineSet
606 1901 m 1,0,-1
 794 1901 l 1,1,-1
 1005 1635 l 1,2,-1
 866 1635 l 1,3,-1
 700 1813 l 1,4,-1
 534 1635 l 1,5,-1
 395 1635 l 1,6,-1
 606 1901 l 1,0,-1
700 1294 m 1,7,-1
 426 551 l 1,8,-1
 975 551 l 1,9,-1
 700 1294 l 1,7,-1
586 1493 m 1,10,-1
 815 1493 l 1,11,-1
 1384 0 l 1,12,-1
 1174 0 l 1,13,-1
 1038 383 l 1,14,-1
 365 383 l 1,15,-1
 229 0 l 1,16,-1
 16 0 l 1,17,-1
 586 1493 l 1,10,-1
EndSplineSet
Validated: 1
EndChar

StartChar: Atilde
Encoding: 195 195 137
Width: 1401
GlyphClass: 2
Flags: W
LayerCount: 2
Fore
SplineSet
696 1710 m 2,0,-1
 639 1743 l 2,1,2
 614 1757 614 1757 598.5 1762.5 c 128,-1,3
 583 1768 583 1768 571 1768 c 0,4,5
 535 1768 535 1768 515 1743 c 128,-1,6
 495 1718 495 1718 495 1673 c 2,7,-1
 495 1667 l 1,8,-1
 370 1667 l 1,9,10
 370 1768 370 1768 421.5 1827 c 128,-1,11
 473 1886 473 1886 559 1886 c 0,12,13
 595 1886 595 1886 625.5 1878 c 128,-1,14
 656 1870 656 1870 704 1843 c 2,15,-1
 761 1813 l 2,16,17
 784 1800 784 1800 801 1794 c 128,-1,18
 818 1788 818 1788 833 1788 c 0,19,20
 865 1788 865 1788 885 1813.5 c 128,-1,21
 905 1839 905 1839 905 1880 c 2,22,-1
 905 1886 l 1,23,-1
 1030 1886 l 1,24,25
 1028 1786 1028 1786 976.5 1726.5 c 128,-1,26
 925 1667 925 1667 841 1667 c 0,27,28
 807 1667 807 1667 777.5 1675 c 128,-1,29
 748 1683 748 1683 696 1710 c 2,0,-1
700 1294 m 1,30,-1
 426 551 l 1,31,-1
 975 551 l 1,32,-1
 700 1294 l 1,30,-1
586 1493 m 1,33,-1
 815 1493 l 1,34,-1
 1384 0 l 1,35,-1
 1174 0 l 1,36,-1
 1038 383 l 1,37,-1
 365 383 l 1,38,-1
 229 0 l 1,39,-1
 16 0 l 1,40,-1
 586 1493 l 1,33,-1
EndSplineSet
Validated: 1
EndChar

StartChar: Adieresis
Encoding: 196 196 138
Width: 1401
GlyphClass: 2
Flags: W
LayerCount: 2
Fore
SplineSet
794 1870 m 1,0,-1
 997 1870 l 1,1,-1
 997 1667 l 1,2,-1
 794 1667 l 1,3,-1
 794 1870 l 1,0,-1
403 1870 m 1,4,-1
 606 1870 l 1,5,-1
 606 1667 l 1,6,-1
 403 1667 l 1,7,-1
 403 1870 l 1,4,-1
700 1294 m 1,8,-1
 426 551 l 1,9,-1
 975 551 l 1,10,-1
 700 1294 l 1,8,-1
586 1493 m 1,11,-1
 815 1493 l 1,12,-1
 1384 0 l 1,13,-1
 1174 0 l 1,14,-1
 1038 383 l 1,15,-1
 365 383 l 1,16,-1
 229 0 l 1,17,-1
 16 0 l 1,18,-1
 586 1493 l 1,11,-1
EndSplineSet
Validated: 1
EndChar

StartChar: Aring
Encoding: 197 197 139
Width: 1401
GlyphClass: 2
Flags: W
LayerCount: 2
Fore
SplineSet
852 1626 m 256,0,1
 852 1689 852 1689 807.5 1733.5 c 128,-1,2
 763 1778 763 1778 700 1778 c 0,3,4
 636 1778 636 1778 592.5 1734.5 c 128,-1,5
 549 1691 549 1691 549 1626 c 0,6,7
 549 1563 549 1563 593 1519 c 128,-1,8
 637 1475 637 1475 700 1475 c 256,9,10
 763 1475 763 1475 807.5 1519 c 128,-1,11
 852 1563 852 1563 852 1626 c 256,0,1
700 1294 m 1,12,-1
 428 551 l 1,13,-1
 973 551 l 1,14,-1
 700 1294 l 1,12,-1
549 1397 m 1,15,16
 488 1438 488 1438 457 1495.5 c 128,-1,17
 426 1553 426 1553 426 1626 c 0,18,19
 426 1741 426 1741 505.5 1821 c 128,-1,20
 585 1901 585 1901 700 1901 c 0,21,22
 814 1901 814 1901 894.5 1820.5 c 128,-1,23
 975 1740 975 1740 975 1626 c 0,24,25
 975 1556 975 1556 943.5 1497 c 128,-1,26
 912 1438 912 1438 852 1397 c 1,27,-1
 1384 0 l 1,28,-1
 1174 0 l 1,29,-1
 1038 383 l 1,30,-1
 365 383 l 1,31,-1
 229 0 l 1,32,-1
 16 0 l 1,33,-1
 549 1397 l 1,15,16
EndSplineSet
Validated: 1
EndChar

StartChar: AE
Encoding: 198 198 140
Width: 1995
GlyphClass: 2
Flags: W
LayerCount: 2
Fore
SplineSet
1845 1493 m 1,0,-1
 1845 1323 l 1,1,-1
 1104 1323 l 1,2,-1
 1104 881 l 1,3,-1
 1815 881 l 1,4,-1
 1815 711 l 1,5,-1
 1104 711 l 1,6,-1
 1104 170 l 1,7,-1
 1864 170 l 1,8,-1
 1864 0 l 1,9,-1
 901 0 l 1,10,-1
 901 383 l 1,11,-1
 373 383 l 1,12,-1
 213 0 l 1,13,-1
 8 0 l 1,14,-1
 633 1493 l 1,15,-1
 1845 1493 l 1,0,-1
772 1335 m 1,16,-1
 442 551 l 1,17,-1
 901 551 l 1,18,-1
 901 1335 l 1,19,-1
 772 1335 l 1,16,-1
EndSplineSet
Validated: 1
EndChar

StartChar: Egrave
Encoding: 200 200 142
Width: 1294
GlyphClass: 2
Flags: W
LayerCount: 2
Fore
SplineSet
613 1899 m 1,0,-1
 809 1635 l 1,1,-1
 656 1635 l 1,2,-1
 426 1899 l 1,3,-1
 613 1899 l 1,0,-1
201 1493 m 1,4,-1
 1145 1493 l 1,5,-1
 1145 1323 l 1,6,-1
 403 1323 l 1,7,-1
 403 881 l 1,8,-1
 1114 881 l 1,9,-1
 1114 711 l 1,10,-1
 403 711 l 1,11,-1
 403 170 l 1,12,-1
 1163 170 l 1,13,-1
 1163 0 l 1,14,-1
 201 0 l 1,15,-1
 201 1493 l 1,4,-1
EndSplineSet
Validated: 1
EndChar

StartChar: Eacute
Encoding: 201 201 143
Width: 1294
GlyphClass: 2
Flags: W
LayerCount: 2
Fore
SplineSet
725 1899 m 1,0,-1
 910 1899 l 1,1,-1
 682 1635 l 1,2,-1
 529 1635 l 1,3,-1
 725 1899 l 1,0,-1
201 1493 m 1,4,-1
 1145 1493 l 1,5,-1
 1145 1323 l 1,6,-1
 403 1323 l 1,7,-1
 403 881 l 1,8,-1
 1114 881 l 1,9,-1
 1114 711 l 1,10,-1
 403 711 l 1,11,-1
 403 170 l 1,12,-1
 1163 170 l 1,13,-1
 1163 0 l 1,14,-1
 201 0 l 1,15,-1
 201 1493 l 1,4,-1
EndSplineSet
Validated: 1
EndChar

StartChar: Ecircumflex
Encoding: 202 202 144
Width: 1294
GlyphClass: 2
Flags: W
LayerCount: 2
Fore
SplineSet
576 1901 m 1,0,-1
 764 1901 l 1,1,-1
 975 1635 l 1,2,-1
 836 1635 l 1,3,-1
 670 1813 l 1,4,-1
 504 1635 l 1,5,-1
 365 1635 l 1,6,-1
 576 1901 l 1,0,-1
201 1493 m 1,7,-1
 1145 1493 l 1,8,-1
 1145 1323 l 1,9,-1
 403 1323 l 1,10,-1
 403 881 l 1,11,-1
 1114 881 l 1,12,-1
 1114 711 l 1,13,-1
 403 711 l 1,14,-1
 403 170 l 1,15,-1
 1163 170 l 1,16,-1
 1163 0 l 1,17,-1
 201 0 l 1,18,-1
 201 1493 l 1,7,-1
EndSplineSet
Validated: 1
EndChar

StartChar: Edieresis
Encoding: 203 203 145
Width: 1294
GlyphClass: 2
Flags: W
LayerCount: 2
Fore
SplineSet
764 1870 m 1,0,-1
 967 1870 l 1,1,-1
 967 1667 l 1,2,-1
 764 1667 l 1,3,-1
 764 1870 l 1,0,-1
373 1870 m 1,4,-1
 576 1870 l 1,5,-1
 576 1667 l 1,6,-1
 373 1667 l 1,7,-1
 373 1870 l 1,4,-1
201 1493 m 1,8,-1
 1145 1493 l 1,9,-1
 1145 1323 l 1,10,-1
 403 1323 l 1,11,-1
 403 881 l 1,12,-1
 1114 881 l 1,13,-1
 1114 711 l 1,14,-1
 403 711 l 1,15,-1
 403 170 l 1,16,-1
 1163 170 l 1,17,-1
 1163 0 l 1,18,-1
 201 0 l 1,19,-1
 201 1493 l 1,8,-1
EndSplineSet
Validated: 1
EndChar

StartChar: Igrave
Encoding: 204 204 146
Width: 604
GlyphClass: 2
Flags: W
LayerCount: 2
Fore
SplineSet
246 1899 m 1,0,-1
 442 1635 l 1,1,-1
 289 1635 l 1,2,-1
 59 1899 l 1,3,-1
 246 1899 l 1,0,-1
201 1493 m 1,4,-1
 403 1493 l 1,5,-1
 403 0 l 1,6,-1
 201 0 l 1,7,-1
 201 1493 l 1,4,-1
EndSplineSet
Validated: 1
EndChar

StartChar: Iacute
Encoding: 205 205 147
Width: 604
GlyphClass: 2
Flags: W
LayerCount: 2
Fore
SplineSet
358 1899 m 1,0,-1
 543 1899 l 1,1,-1
 315 1635 l 1,2,-1
 162 1635 l 1,3,-1
 358 1899 l 1,0,-1
201 1493 m 1,4,-1
 403 1493 l 1,5,-1
 403 0 l 1,6,-1
 201 0 l 1,7,-1
 201 1493 l 1,4,-1
EndSplineSet
Validated: 1
EndChar

StartChar: Icircumflex
Encoding: 206 206 148
Width: 604
GlyphClass: 2
Flags: W
LayerCount: 2
Fore
SplineSet
209 1901 m 1,0,-1
 397 1901 l 1,1,-1
 608 1635 l 1,2,-1
 469 1635 l 1,3,-1
 303 1813 l 1,4,-1
 137 1635 l 1,5,-1
 -2 1635 l 1,6,-1
 209 1901 l 1,0,-1
201 1493 m 1,7,-1
 403 1493 l 1,8,-1
 403 0 l 1,9,-1
 201 0 l 1,10,-1
 201 1493 l 1,7,-1
EndSplineSet
Validated: 1
EndChar

StartChar: Idieresis
Encoding: 207 207 149
Width: 604
GlyphClass: 2
Flags: W
LayerCount: 2
Fore
SplineSet
397 1870 m 1,0,-1
 600 1870 l 1,1,-1
 600 1667 l 1,2,-1
 397 1667 l 1,3,-1
 397 1870 l 1,0,-1
6 1870 m 1,4,-1
 209 1870 l 1,5,-1
 209 1667 l 1,6,-1
 6 1667 l 1,7,-1
 6 1870 l 1,4,-1
201 1493 m 1,8,-1
 403 1493 l 1,9,-1
 403 0 l 1,10,-1
 201 0 l 1,11,-1
 201 1493 l 1,8,-1
EndSplineSet
Validated: 1
EndChar

StartChar: Eth
Encoding: 208 208 150
Width: 1587
GlyphClass: 2
Flags: W
LayerCount: 2
Fore
SplineSet
211 1493 m 1,0,-1
 627 1493 l 2,1,2
 1060 1493 1060 1493 1263 1312.5 c 128,-1,3
 1466 1132 1466 1132 1466 748 c 0,4,5
 1466 362 1466 362 1262.5 181 c 128,-1,6
 1059 0 1059 0 627 0 c 2,7,-1
 211 0 l 1,8,-1
 211 700 l 1,9,-1
 10 700 l 1,10,-1
 10 844 l 1,11,-1
 211 844 l 1,12,-1
 211 1493 l 1,0,-1
414 1327 m 1,13,-1
 414 844 l 1,14,-1
 750 844 l 1,15,-1
 750 700 l 1,16,-1
 414 700 l 1,17,-1
 414 166 l 1,18,-1
 657 166 l 2,19,20
 966 166 966 166 1109.5 306 c 128,-1,21
 1253 446 1253 446 1253 748 c 0,22,23
 1253 1048 1253 1048 1109.5 1187.5 c 128,-1,24
 966 1327 966 1327 657 1327 c 2,25,-1
 414 1327 l 1,13,-1
EndSplineSet
Validated: 1
EndChar

StartChar: Ntilde
Encoding: 209 209 151
Width: 1532
GlyphClass: 2
Flags: W
LayerCount: 2
Fore
SplineSet
762 1710 m 2,0,-1
 705 1743 l 2,1,2
 680 1757 680 1757 664.5 1762.5 c 128,-1,3
 649 1768 649 1768 637 1768 c 0,4,5
 601 1768 601 1768 581 1743 c 128,-1,6
 561 1718 561 1718 561 1673 c 2,7,-1
 561 1667 l 1,8,-1
 436 1667 l 1,9,10
 436 1768 436 1768 487.5 1827 c 128,-1,11
 539 1886 539 1886 625 1886 c 0,12,13
 661 1886 661 1886 691.5 1878 c 128,-1,14
 722 1870 722 1870 770 1843 c 2,15,-1
 827 1813 l 2,16,17
 850 1800 850 1800 867 1794 c 128,-1,18
 884 1788 884 1788 899 1788 c 0,19,20
 931 1788 931 1788 951 1813.5 c 128,-1,21
 971 1839 971 1839 971 1880 c 2,22,-1
 971 1886 l 1,23,-1
 1096 1886 l 1,24,25
 1094 1786 1094 1786 1042.5 1726.5 c 128,-1,26
 991 1667 991 1667 907 1667 c 0,27,28
 873 1667 873 1667 843.5 1675 c 128,-1,29
 814 1683 814 1683 762 1710 c 2,0,-1
201 1493 m 1,30,-1
 473 1493 l 1,31,-1
 1135 244 l 1,32,-1
 1135 1493 l 1,33,-1
 1331 1493 l 1,34,-1
 1331 0 l 1,35,-1
 1059 0 l 1,36,-1
 397 1249 l 1,37,-1
 397 0 l 1,38,-1
 201 0 l 1,39,-1
 201 1493 l 1,30,-1
EndSplineSet
Validated: 1
EndChar

StartChar: Ograve
Encoding: 210 210 152
Width: 1612
GlyphClass: 2
Flags: W
LayerCount: 2
Fore
SplineSet
750 1899 m 1,0,-1
 946 1635 l 1,1,-1
 793 1635 l 1,2,-1
 563 1899 l 1,3,-1
 750 1899 l 1,0,-1
807 1356 m 256,4,5
 587 1356 587 1356 457.5 1192 c 128,-1,6
 328 1028 328 1028 328 745 c 0,7,8
 328 463 328 463 457.5 299 c 128,-1,9
 587 135 587 135 807 135 c 256,10,11
 1027 135 1027 135 1155.5 299 c 128,-1,12
 1284 463 1284 463 1284 745 c 0,13,14
 1284 1028 1284 1028 1155.5 1192 c 128,-1,15
 1027 1356 1027 1356 807 1356 c 256,4,5
807 1520 m 0,16,17
 1121 1520 1121 1520 1309 1309.5 c 128,-1,18
 1497 1099 1497 1099 1497 745 c 0,19,20
 1497 392 1497 392 1309 181.5 c 128,-1,21
 1121 -29 1121 -29 807 -29 c 0,22,23
 492 -29 492 -29 303.5 181 c 128,-1,24
 115 391 115 391 115 745 c 256,25,26
 115 1099 115 1099 303.5 1309.5 c 128,-1,27
 492 1520 492 1520 807 1520 c 0,16,17
EndSplineSet
Validated: 1
EndChar

StartChar: Oacute
Encoding: 211 211 153
Width: 1612
GlyphClass: 2
Flags: W
LayerCount: 2
Fore
SplineSet
862 1899 m 1,0,-1
 1047 1899 l 1,1,-1
 819 1635 l 1,2,-1
 666 1635 l 1,3,-1
 862 1899 l 1,0,-1
807 1356 m 256,4,5
 587 1356 587 1356 457.5 1192 c 128,-1,6
 328 1028 328 1028 328 745 c 0,7,8
 328 463 328 463 457.5 299 c 128,-1,9
 587 135 587 135 807 135 c 256,10,11
 1027 135 1027 135 1155.5 299 c 128,-1,12
 1284 463 1284 463 1284 745 c 0,13,14
 1284 1028 1284 1028 1155.5 1192 c 128,-1,15
 1027 1356 1027 1356 807 1356 c 256,4,5
807 1520 m 0,16,17
 1121 1520 1121 1520 1309 1309.5 c 128,-1,18
 1497 1099 1497 1099 1497 745 c 0,19,20
 1497 392 1497 392 1309 181.5 c 128,-1,21
 1121 -29 1121 -29 807 -29 c 0,22,23
 492 -29 492 -29 303.5 181 c 128,-1,24
 115 391 115 391 115 745 c 256,25,26
 115 1099 115 1099 303.5 1309.5 c 128,-1,27
 492 1520 492 1520 807 1520 c 0,16,17
EndSplineSet
Validated: 1
EndChar

StartChar: Ocircumflex
Encoding: 212 212 154
Width: 1612
GlyphClass: 2
Flags: W
LayerCount: 2
Fore
SplineSet
713 1901 m 1,0,-1
 901 1901 l 1,1,-1
 1112 1635 l 1,2,-1
 973 1635 l 1,3,-1
 807 1813 l 1,4,-1
 641 1635 l 1,5,-1
 502 1635 l 1,6,-1
 713 1901 l 1,0,-1
807 1356 m 256,7,8
 587 1356 587 1356 457.5 1192 c 128,-1,9
 328 1028 328 1028 328 745 c 0,10,11
 328 463 328 463 457.5 299 c 128,-1,12
 587 135 587 135 807 135 c 256,13,14
 1027 135 1027 135 1155.5 299 c 128,-1,15
 1284 463 1284 463 1284 745 c 0,16,17
 1284 1028 1284 1028 1155.5 1192 c 128,-1,18
 1027 1356 1027 1356 807 1356 c 256,7,8
807 1520 m 0,19,20
 1121 1520 1121 1520 1309 1309.5 c 128,-1,21
 1497 1099 1497 1099 1497 745 c 0,22,23
 1497 392 1497 392 1309 181.5 c 128,-1,24
 1121 -29 1121 -29 807 -29 c 0,25,26
 492 -29 492 -29 303.5 181 c 128,-1,27
 115 391 115 391 115 745 c 256,28,29
 115 1099 115 1099 303.5 1309.5 c 128,-1,30
 492 1520 492 1520 807 1520 c 0,19,20
EndSplineSet
Validated: 1
EndChar

StartChar: Otilde
Encoding: 213 213 155
Width: 1612
GlyphClass: 2
Flags: W
LayerCount: 2
Fore
SplineSet
803 1710 m 2,0,-1
 746 1743 l 2,1,2
 721 1757 721 1757 705.5 1762.5 c 128,-1,3
 690 1768 690 1768 678 1768 c 0,4,5
 642 1768 642 1768 622 1743 c 128,-1,6
 602 1718 602 1718 602 1673 c 2,7,-1
 602 1667 l 1,8,-1
 477 1667 l 1,9,10
 477 1768 477 1768 528.5 1827 c 128,-1,11
 580 1886 580 1886 666 1886 c 0,12,13
 702 1886 702 1886 732.5 1878 c 128,-1,14
 763 1870 763 1870 811 1843 c 2,15,-1
 868 1813 l 2,16,17
 891 1800 891 1800 908 1794 c 128,-1,18
 925 1788 925 1788 940 1788 c 0,19,20
 972 1788 972 1788 992 1813.5 c 128,-1,21
 1012 1839 1012 1839 1012 1880 c 2,22,-1
 1012 1886 l 1,23,-1
 1137 1886 l 1,24,25
 1135 1786 1135 1786 1083.5 1726.5 c 128,-1,26
 1032 1667 1032 1667 948 1667 c 0,27,28
 914 1667 914 1667 884.5 1675 c 128,-1,29
 855 1683 855 1683 803 1710 c 2,0,-1
807 1356 m 256,30,31
 587 1356 587 1356 457.5 1192 c 128,-1,32
 328 1028 328 1028 328 745 c 0,33,34
 328 463 328 463 457.5 299 c 128,-1,35
 587 135 587 135 807 135 c 256,36,37
 1027 135 1027 135 1155.5 299 c 128,-1,38
 1284 463 1284 463 1284 745 c 0,39,40
 1284 1028 1284 1028 1155.5 1192 c 128,-1,41
 1027 1356 1027 1356 807 1356 c 256,30,31
807 1520 m 0,42,43
 1121 1520 1121 1520 1309 1309.5 c 128,-1,44
 1497 1099 1497 1099 1497 745 c 0,45,46
 1497 392 1497 392 1309 181.5 c 128,-1,47
 1121 -29 1121 -29 807 -29 c 0,48,49
 492 -29 492 -29 303.5 181 c 128,-1,50
 115 391 115 391 115 745 c 256,51,52
 115 1099 115 1099 303.5 1309.5 c 128,-1,53
 492 1520 492 1520 807 1520 c 0,42,43
EndSplineSet
Validated: 1
EndChar

StartChar: Odieresis
Encoding: 214 214 156
Width: 1612
GlyphClass: 2
Flags: W
LayerCount: 2
Fore
SplineSet
901 1870 m 1,0,-1
 1104 1870 l 1,1,-1
 1104 1667 l 1,2,-1
 901 1667 l 1,3,-1
 901 1870 l 1,0,-1
510 1870 m 1,4,-1
 713 1870 l 1,5,-1
 713 1667 l 1,6,-1
 510 1667 l 1,7,-1
 510 1870 l 1,4,-1
807 1356 m 256,8,9
 587 1356 587 1356 457.5 1192 c 128,-1,10
 328 1028 328 1028 328 745 c 0,11,12
 328 463 328 463 457.5 299 c 128,-1,13
 587 135 587 135 807 135 c 256,14,15
 1027 135 1027 135 1155.5 299 c 128,-1,16
 1284 463 1284 463 1284 745 c 0,17,18
 1284 1028 1284 1028 1155.5 1192 c 128,-1,19
 1027 1356 1027 1356 807 1356 c 256,8,9
807 1520 m 0,20,21
 1121 1520 1121 1520 1309 1309.5 c 128,-1,22
 1497 1099 1497 1099 1497 745 c 0,23,24
 1497 392 1497 392 1309 181.5 c 128,-1,25
 1121 -29 1121 -29 807 -29 c 0,26,27
 492 -29 492 -29 303.5 181 c 128,-1,28
 115 391 115 391 115 745 c 256,29,30
 115 1099 115 1099 303.5 1309.5 c 128,-1,31
 492 1520 492 1520 807 1520 c 0,20,21
EndSplineSet
Validated: 1
EndChar

StartChar: multiply
Encoding: 215 215 157
Width: 1724
GlyphClass: 2
Flags: W
LayerCount: 2
Fore
SplineSet
928 555 m 1,0,-1
 1370 111 l 2,1,2
 1389 92 1389 92 1394 84.5 c 128,-1,3
 1399 77 1399 77 1399 64 c 0,4,5
 1399 45 1399 45 1386.5 32.5 c 128,-1,6
 1374 20 1374 20 1354 20 c 128,-1,7
 1334 20 1334 20 1305 49 c 2,8,-1
 861 493 l 1,9,-1
 417 49 l 2,10,11
 398 30 398 30 390.5 25 c 128,-1,12
 383 20 383 20 371 20 c 0,13,14
 354 20 354 20 340 33 c 128,-1,15
 326 46 326 46 326 64 c 0,16,17
 326 84 326 84 355 113 c 2,18,-1
 797 555 l 1,19,-1
 355 999 l 2,20,21
 338 1016 338 1016 332 1024.5 c 128,-1,22
 326 1033 326 1033 326 1046 c 0,23,24
 326 1064 326 1064 340 1077 c 128,-1,25
 354 1090 354 1090 371 1090 c 0,26,27
 384 1090 384 1090 391 1085.5 c 128,-1,28
 398 1081 398 1081 417 1061 c 2,29,-1
 864 617 l 1,30,-1
 1308 1061 l 2,31,32
 1325 1078 1325 1078 1333.5 1084 c 128,-1,33
 1342 1090 1342 1090 1354 1090 c 0,34,35
 1372 1090 1372 1090 1385.5 1077 c 128,-1,36
 1399 1064 1399 1064 1399 1046 c 0,37,38
 1399 1033 1399 1033 1394 1025.5 c 128,-1,39
 1389 1018 1389 1018 1370 999 c 2,40,-1
 928 555 l 1,0,-1
EndSplineSet
Validated: 1
EndChar

StartChar: Oslash
Encoding: 216 216 158
Width: 1612
GlyphClass: 2
Flags: W
AnchorPoint: "Anchor-4" 807 1520 basechar 0
LayerCount: 2
Fore
SplineSet
1206 1112 m 1,0,-1
 489 266 l 1,1,2
 551 202 551 202 631.5 168.5 c 128,-1,3
 712 135 712 135 807 135 c 0,4,5
 1027 135 1027 135 1155.5 299 c 128,-1,6
 1284 463 1284 463 1284 745 c 0,7,8
 1284 857 1284 857 1264.5 949 c 128,-1,9
 1245 1041 1245 1041 1206 1112 c 1,0,-1
1124 1225 m 1,10,11
 1063 1289 1063 1289 982.5 1322.5 c 128,-1,12
 902 1356 902 1356 807 1356 c 0,13,14
 587 1356 587 1356 457.5 1192 c 128,-1,15
 328 1028 328 1028 328 745 c 0,16,17
 328 633 328 633 347.5 539 c 128,-1,18
 367 445 367 445 406 377 c 1,19,-1
 1124 1225 l 1,10,11
272 219 m 1,20,21
 194 321 194 321 154.5 453 c 128,-1,22
 115 585 115 585 115 745 c 0,23,24
 115 1099 115 1099 303.5 1309.5 c 128,-1,25
 492 1520 492 1520 807 1520 c 0,26,27
 937 1520 937 1520 1047.5 1481.5 c 128,-1,28
 1158 1443 1158 1443 1245 1368 c 1,29,-1
 1407 1559 l 1,30,-1
 1509 1470 l 1,31,-1
 1339 1272 l 1,32,33
 1417 1169 1417 1169 1457 1036 c 128,-1,34
 1497 903 1497 903 1497 745 c 0,35,36
 1497 392 1497 392 1309 181.5 c 128,-1,37
 1121 -29 1121 -29 807 -29 c 0,38,39
 679 -29 679 -29 568.5 8.5 c 128,-1,40
 458 46 458 46 367 121 c 1,41,-1
 205 -70 l 1,42,-1
 102 18 l 1,43,-1
 272 219 l 1,20,21
EndSplineSet
Validated: 1
EndChar

StartChar: Ugrave
Encoding: 217 217 159
Width: 1499
GlyphClass: 2
Flags: W
LayerCount: 2
Fore
SplineSet
693 1899 m 1,0,-1
 889 1635 l 1,1,-1
 736 1635 l 1,2,-1
 506 1899 l 1,3,-1
 693 1899 l 1,0,-1
178 1493 m 1,4,-1
 381 1493 l 1,5,-1
 381 586 l 2,6,7
 381 346 381 346 468 240.5 c 128,-1,8
 555 135 555 135 750 135 c 0,9,10
 944 135 944 135 1031 240.5 c 128,-1,11
 1118 346 1118 346 1118 586 c 2,12,-1
 1118 1493 l 1,13,-1
 1321 1493 l 1,14,-1
 1321 561 l 2,15,16
 1321 269 1321 269 1176.5 120 c 128,-1,17
 1032 -29 1032 -29 750 -29 c 0,18,19
 467 -29 467 -29 322.5 120 c 128,-1,20
 178 269 178 269 178 561 c 2,21,-1
 178 1493 l 1,4,-1
EndSplineSet
Validated: 1
EndChar

StartChar: Uacute
Encoding: 218 218 160
Width: 1499
GlyphClass: 2
Flags: W
LayerCount: 2
Fore
SplineSet
805 1899 m 1,0,-1
 990 1899 l 1,1,-1
 762 1635 l 1,2,-1
 609 1635 l 1,3,-1
 805 1899 l 1,0,-1
178 1493 m 1,4,-1
 381 1493 l 1,5,-1
 381 586 l 2,6,7
 381 346 381 346 468 240.5 c 128,-1,8
 555 135 555 135 750 135 c 0,9,10
 944 135 944 135 1031 240.5 c 128,-1,11
 1118 346 1118 346 1118 586 c 2,12,-1
 1118 1493 l 1,13,-1
 1321 1493 l 1,14,-1
 1321 561 l 2,15,16
 1321 269 1321 269 1176.5 120 c 128,-1,17
 1032 -29 1032 -29 750 -29 c 0,18,19
 467 -29 467 -29 322.5 120 c 128,-1,20
 178 269 178 269 178 561 c 2,21,-1
 178 1493 l 1,4,-1
EndSplineSet
Validated: 1
EndChar

StartChar: Ucircumflex
Encoding: 219 219 161
Width: 1499
GlyphClass: 2
Flags: W
LayerCount: 2
Fore
SplineSet
656 1901 m 1,0,-1
 844 1901 l 1,1,-1
 1055 1635 l 1,2,-1
 916 1635 l 1,3,-1
 750 1813 l 1,4,-1
 584 1635 l 1,5,-1
 445 1635 l 1,6,-1
 656 1901 l 1,0,-1
178 1493 m 1,7,-1
 381 1493 l 1,8,-1
 381 586 l 2,9,10
 381 346 381 346 468 240.5 c 128,-1,11
 555 135 555 135 750 135 c 0,12,13
 944 135 944 135 1031 240.5 c 128,-1,14
 1118 346 1118 346 1118 586 c 2,15,-1
 1118 1493 l 1,16,-1
 1321 1493 l 1,17,-1
 1321 561 l 2,18,19
 1321 269 1321 269 1176.5 120 c 128,-1,20
 1032 -29 1032 -29 750 -29 c 0,21,22
 467 -29 467 -29 322.5 120 c 128,-1,23
 178 269 178 269 178 561 c 2,24,-1
 178 1493 l 1,7,-1
EndSplineSet
Validated: 1
EndChar

StartChar: Udieresis
Encoding: 220 220 162
Width: 1499
GlyphClass: 2
Flags: W
LayerCount: 2
Fore
SplineSet
844 1870 m 1,0,-1
 1047 1870 l 1,1,-1
 1047 1667 l 1,2,-1
 844 1667 l 1,3,-1
 844 1870 l 1,0,-1
453 1870 m 1,4,-1
 656 1870 l 1,5,-1
 656 1667 l 1,6,-1
 453 1667 l 1,7,-1
 453 1870 l 1,4,-1
178 1493 m 1,8,-1
 381 1493 l 1,9,-1
 381 586 l 2,10,11
 381 346 381 346 468 240.5 c 128,-1,12
 555 135 555 135 750 135 c 0,13,14
 944 135 944 135 1031 240.5 c 128,-1,15
 1118 346 1118 346 1118 586 c 2,16,-1
 1118 1493 l 1,17,-1
 1321 1493 l 1,18,-1
 1321 561 l 2,19,20
 1321 269 1321 269 1176.5 120 c 128,-1,21
 1032 -29 1032 -29 750 -29 c 0,22,23
 467 -29 467 -29 322.5 120 c 128,-1,24
 178 269 178 269 178 561 c 2,25,-1
 178 1493 l 1,8,-1
EndSplineSet
Validated: 1
EndChar

StartChar: Yacute
Encoding: 221 221 163
Width: 1251
GlyphClass: 2
Flags: W
LayerCount: 2
Fore
SplineSet
682 1899 m 1,0,-1
 867 1899 l 1,1,-1
 639 1635 l 1,2,-1
 486 1635 l 1,3,-1
 682 1899 l 1,0,-1
-4 1493 m 1,4,-1
 213 1493 l 1,5,-1
 627 879 l 1,6,-1
 1038 1493 l 1,7,-1
 1255 1493 l 1,8,-1
 727 711 l 1,9,-1
 727 0 l 1,10,-1
 524 0 l 1,11,-1
 524 711 l 1,12,-1
 -4 1493 l 1,4,-1
EndSplineSet
Validated: 1
EndChar

StartChar: Thorn
Encoding: 222 222 164
Width: 1239
GlyphClass: 2
Flags: W
LayerCount: 2
Fore
SplineSet
201 1493 m 1,0,-1
 403 1493 l 1,1,-1
 403 1229 l 1,2,-1
 657 1229 l 2,3,4
 908 1229 908 1229 1036.5 1116.5 c 128,-1,5
 1165 1004 1165 1004 1165 784 c 256,6,7
 1165 564 1165 564 1036.5 451 c 128,-1,8
 908 338 908 338 657 338 c 2,9,-1
 403 338 l 1,10,-1
 403 0 l 1,11,-1
 201 0 l 1,12,-1
 201 1493 l 1,0,-1
403 1063 m 1,13,-1
 403 504 l 1,14,-1
 657 504 l 2,15,16
 798 504 798 504 875 577 c 128,-1,17
 952 650 952 650 952 784 c 256,18,19
 952 918 952 918 875.5 990.5 c 128,-1,20
 799 1063 799 1063 657 1063 c 2,21,-1
 403 1063 l 1,13,-1
EndSplineSet
Validated: 1
EndChar

StartChar: germandbls
Encoding: 223 223 165
Width: 1290
GlyphClass: 2
Flags: W
LayerCount: 2
Fore
SplineSet
186 1137 m 2,0,1
 186 1337 186 1337 305.5 1446.5 c 128,-1,2
 425 1556 425 1556 643 1556 c 0,3,4
 851 1556 851 1556 960.5 1440 c 128,-1,5
 1070 1324 1070 1324 1073 1100 c 1,6,7
 922 1092 922 1092 838 1034.5 c 128,-1,8
 754 977 754 977 754 881 c 0,9,10
 754 834 754 834 783 793.5 c 128,-1,11
 812 753 812 753 877 711 c 2,12,-1
 934 674 l 2,13,14
 1100 568 1100 568 1148 497 c 128,-1,15
 1196 426 1196 426 1196 326 c 0,16,17
 1196 154 1196 154 1083.5 62.5 c 128,-1,18
 971 -29 971 -29 760 -29 c 0,19,20
 696 -29 696 -29 628 -16.5 c 128,-1,21
 560 -4 560 -4 487 20 c 1,22,-1
 487 184 l 1,23,24
 567 154 567 154 637 139.5 c 128,-1,25
 707 125 707 125 772 125 c 0,26,27
 888 125 888 125 948 172.5 c 128,-1,28
 1008 220 1008 220 1008 311 c 0,29,30
 1008 374 1008 374 978.5 416 c 128,-1,31
 949 458 949 458 848 520 c 2,32,-1
 756 575 l 2,33,34
 660 634 660 634 616.5 701.5 c 128,-1,35
 573 769 573 769 573 860 c 0,36,37
 573 987 573 987 656.5 1073 c 128,-1,38
 740 1159 740 1159 891 1188 c 1,39,40
 883 1291 883 1291 817.5 1347 c 128,-1,41
 752 1403 752 1403 639 1403 c 0,42,43
 509 1403 509 1403 441 1333.5 c 128,-1,44
 373 1264 373 1264 373 1133 c 2,45,-1
 373 0 l 1,46,-1
 186 0 l 1,47,-1
 186 1137 l 2,0,1
EndSplineSet
Validated: 1
EndChar

StartChar: acircumflex
Encoding: 226 226 168
Width: 1255
GlyphClass: 2
Flags: W
LayerCount: 2
Fore
SplineSet
520 1638 m 1,0,-1
 668 1638 l 1,1,-1
 913 1262 l 1,2,-1
 774 1262 l 1,3,-1
 594 1507 l 1,4,-1
 414 1262 l 1,5,-1
 275 1262 l 1,6,-1
 520 1638 l 1,0,-1
702 563 m 2,7,8
 479 563 479 563 393 512 c 128,-1,9
 307 461 307 461 307 338 c 0,10,11
 307 240 307 240 371.5 182.5 c 128,-1,12
 436 125 436 125 547 125 c 0,13,14
 700 125 700 125 792.5 233.5 c 128,-1,15
 885 342 885 342 885 522 c 2,16,-1
 885 563 l 1,17,-1
 702 563 l 2,7,8
1069 639 m 2,18,-1
 1069 0 l 1,19,-1
 885 0 l 1,20,-1
 885 170 l 1,21,22
 822 68 822 68 728 19.5 c 128,-1,23
 634 -29 634 -29 498 -29 c 0,24,25
 326 -29 326 -29 224.5 67.5 c 128,-1,26
 123 164 123 164 123 326 c 0,27,28
 123 515 123 515 249.5 611 c 128,-1,29
 376 707 376 707 627 707 c 2,30,-1
 885 707 l 1,31,-1
 885 725 l 2,32,33
 885 852 885 852 801.5 921.5 c 128,-1,34
 718 991 718 991 567 991 c 0,35,36
 471 991 471 991 380 968 c 128,-1,37
 289 945 289 945 205 899 c 1,38,-1
 205 1069 l 1,39,40
 306 1108 306 1108 401 1127.5 c 128,-1,41
 496 1147 496 1147 586 1147 c 0,42,43
 829 1147 829 1147 949 1021 c 128,-1,44
 1069 895 1069 895 1069 639 c 2,18,-1
EndSplineSet
Validated: 1
EndChar

StartChar: atilde
Encoding: 227 227 169
Width: 1255
GlyphClass: 2
Flags: W
LayerCount: 2
Fore
SplineSet
590 1370 m 2,0,-1
 533 1425 l 2,1,2
 511 1445 511 1445 494.5 1454.5 c 128,-1,3
 478 1464 478 1464 465 1464 c 0,4,5
 427 1464 427 1464 409 1427.5 c 128,-1,6
 391 1391 391 1391 389 1309 c 1,7,-1
 264 1309 l 1,8,9
 266 1444 266 1444 317 1517.5 c 128,-1,10
 368 1591 368 1591 459 1591 c 0,11,12
 497 1591 497 1591 529 1577 c 128,-1,13
 561 1563 561 1563 598 1530 c 2,14,-1
 655 1475 l 2,15,16
 677 1455 677 1455 693.5 1445.5 c 128,-1,17
 710 1436 710 1436 723 1436 c 0,18,19
 761 1436 761 1436 779 1472.5 c 128,-1,20
 797 1509 797 1509 799 1591 c 1,21,-1
 924 1591 l 1,22,23
 922 1456 922 1456 871 1382.5 c 128,-1,24
 820 1309 820 1309 729 1309 c 0,25,26
 691 1309 691 1309 659 1323 c 128,-1,27
 627 1337 627 1337 590 1370 c 2,0,-1
702 563 m 2,28,29
 479 563 479 563 393 512 c 128,-1,30
 307 461 307 461 307 338 c 0,31,32
 307 240 307 240 371.5 182.5 c 128,-1,33
 436 125 436 125 547 125 c 0,34,35
 700 125 700 125 792.5 233.5 c 128,-1,36
 885 342 885 342 885 522 c 2,37,-1
 885 563 l 1,38,-1
 702 563 l 2,28,29
1069 639 m 2,39,-1
 1069 0 l 1,40,-1
 885 0 l 1,41,-1
 885 170 l 1,42,43
 822 68 822 68 728 19.5 c 128,-1,44
 634 -29 634 -29 498 -29 c 0,45,46
 326 -29 326 -29 224.5 67.5 c 128,-1,47
 123 164 123 164 123 326 c 0,48,49
 123 515 123 515 249.5 611 c 128,-1,50
 376 707 376 707 627 707 c 2,51,-1
 885 707 l 1,52,-1
 885 725 l 2,53,54
 885 852 885 852 801.5 921.5 c 128,-1,55
 718 991 718 991 567 991 c 0,56,57
 471 991 471 991 380 968 c 128,-1,58
 289 945 289 945 205 899 c 1,59,-1
 205 1069 l 1,60,61
 306 1108 306 1108 401 1127.5 c 128,-1,62
 496 1147 496 1147 586 1147 c 0,63,64
 829 1147 829 1147 949 1021 c 128,-1,65
 1069 895 1069 895 1069 639 c 2,39,-1
EndSplineSet
Validated: 1
EndChar

StartChar: aring
Encoding: 229 229 171
Width: 1255
GlyphClass: 2
Flags: W
LayerCount: 2
Fore
SplineSet
746 1524 m 0,0,1
 746 1587 746 1587 702 1631 c 128,-1,2
 658 1675 658 1675 594 1675 c 0,3,4
 529 1675 529 1675 485.5 1631.5 c 128,-1,5
 442 1588 442 1588 442 1524 c 0,6,7
 442 1459 442 1459 485.5 1415.5 c 128,-1,8
 529 1372 529 1372 594 1372 c 0,9,10
 658 1372 658 1372 702 1416 c 128,-1,11
 746 1460 746 1460 746 1524 c 0,0,1
868 1524 m 256,12,13
 868 1409 868 1409 788.5 1329 c 128,-1,14
 709 1249 709 1249 594 1249 c 256,15,16
 479 1249 479 1249 399.5 1329 c 128,-1,17
 320 1409 320 1409 320 1524 c 256,18,19
 320 1639 320 1639 399.5 1718.5 c 128,-1,20
 479 1798 479 1798 594 1798 c 256,21,22
 709 1798 709 1798 788.5 1718.5 c 128,-1,23
 868 1639 868 1639 868 1524 c 256,12,13
702 563 m 2,24,25
 479 563 479 563 393 512 c 128,-1,26
 307 461 307 461 307 338 c 0,27,28
 307 240 307 240 371.5 182.5 c 128,-1,29
 436 125 436 125 547 125 c 0,30,31
 700 125 700 125 792.5 233.5 c 128,-1,32
 885 342 885 342 885 522 c 2,33,-1
 885 563 l 1,34,-1
 702 563 l 2,24,25
1069 639 m 2,35,-1
 1069 0 l 1,36,-1
 885 0 l 1,37,-1
 885 170 l 1,38,39
 822 68 822 68 728 19.5 c 128,-1,40
 634 -29 634 -29 498 -29 c 0,41,42
 326 -29 326 -29 224.5 67.5 c 128,-1,43
 123 164 123 164 123 326 c 0,44,45
 123 515 123 515 249.5 611 c 128,-1,46
 376 707 376 707 627 707 c 2,47,-1
 885 707 l 1,48,-1
 885 725 l 2,49,50
 885 852 885 852 801.5 921.5 c 128,-1,51
 718 991 718 991 567 991 c 0,52,53
 471 991 471 991 380 968 c 128,-1,54
 289 945 289 945 205 899 c 1,55,-1
 205 1069 l 1,56,57
 306 1108 306 1108 401 1127.5 c 128,-1,58
 496 1147 496 1147 586 1147 c 0,59,60
 829 1147 829 1147 949 1021 c 128,-1,61
 1069 895 1069 895 1069 639 c 2,35,-1
EndSplineSet
Validated: 1
EndChar

StartChar: ae
Encoding: 230 230 172
Width: 2011
GlyphClass: 2
Flags: W
AnchorPoint: "Anchor-4" 995 1147 basechar 0
LayerCount: 2
Fore
SplineSet
1718 660 m 1,0,1
 1717 811 1717 811 1634.5 901 c 128,-1,2
 1552 991 1552 991 1415 991 c 0,3,4
 1262 991 1262 991 1169.5 904 c 128,-1,5
 1077 817 1077 817 1063 659 c 1,6,-1
 1718 660 l 1,0,1
995 963 m 1,7,8
 1069 1053 1069 1053 1175 1100 c 128,-1,9
 1281 1147 1281 1147 1413 1147 c 0,10,11
 1639 1147 1639 1147 1771 1001.5 c 128,-1,12
 1903 856 1903 856 1903 606 c 2,13,-1
 1903 516 l 1,14,-1
 1057 516 l 1,15,16
 1069 325 1069 325 1171 225 c 128,-1,17
 1273 125 1273 125 1456 125 c 0,18,19
 1560 125 1560 125 1660 151.5 c 128,-1,20
 1760 178 1760 178 1860 231 c 1,21,-1
 1860 57 l 1,22,23
 1760 15 1760 15 1656 -7 c 128,-1,24
 1552 -29 1552 -29 1446 -29 c 0,25,26
 1279 -29 1279 -29 1155 31.5 c 128,-1,27
 1031 92 1031 92 954 211 c 1,28,29
 881 91 881 91 773 31 c 128,-1,30
 665 -29 665 -29 522 -29 c 0,31,32
 333 -29 333 -29 228 64.5 c 128,-1,33
 123 158 123 158 123 326 c 0,34,35
 123 515 123 515 249.5 611 c 128,-1,36
 376 707 376 707 627 707 c 2,37,-1
 885 707 l 1,38,-1
 885 725 l 2,39,40
 885 852 885 852 801.5 921.5 c 128,-1,41
 718 991 718 991 567 991 c 0,42,43
 471 991 471 991 380 968 c 128,-1,44
 289 945 289 945 205 899 c 1,45,-1
 205 1069 l 1,46,47
 306 1108 306 1108 401 1127.5 c 128,-1,48
 496 1147 496 1147 586 1147 c 0,49,50
 728 1147 728 1147 834.5 1099 c 128,-1,51
 941 1051 941 1051 995 963 c 1,7,8
702 563 m 2,52,53
 479 563 479 563 393 512 c 128,-1,54
 307 461 307 461 307 338 c 0,55,56
 307 240 307 240 371.5 182.5 c 128,-1,57
 436 125 436 125 547 125 c 0,58,59
 700 125 700 125 792.5 233.5 c 128,-1,60
 885 342 885 342 885 522 c 2,61,-1
 885 563 l 1,62,-1
 702 563 l 2,52,53
EndSplineSet
Validated: 1
EndChar

StartChar: ecircumflex
Encoding: 234 234 176
Width: 1260
GlyphClass: 2
Flags: W
LayerCount: 2
Fore
SplineSet
577 1638 m 1,0,-1
 725 1638 l 1,1,-1
 970 1262 l 1,2,-1
 831 1262 l 1,3,-1
 651 1507 l 1,4,-1
 471 1262 l 1,5,-1
 332 1262 l 1,6,-1
 577 1638 l 1,0,-1
1151 606 m 2,7,-1
 1151 516 l 1,8,-1
 305 516 l 1,9,10
 317 326 317 326 419.5 226.5 c 128,-1,11
 522 127 522 127 705 127 c 0,12,13
 811 127 811 127 910.5 153 c 128,-1,14
 1010 179 1010 179 1108 231 c 1,15,-1
 1108 57 l 1,16,17
 1009 15 1009 15 905 -7 c 128,-1,18
 801 -29 801 -29 694 -29 c 0,19,20
 426 -29 426 -29 269.5 127 c 128,-1,21
 113 283 113 283 113 549 c 0,22,23
 113 824 113 824 261.5 985.5 c 128,-1,24
 410 1147 410 1147 662 1147 c 0,25,26
 888 1147 888 1147 1019.5 1001.5 c 128,-1,27
 1151 856 1151 856 1151 606 c 2,7,-1
967 660 m 1,28,29
 965 811 965 811 882.5 901 c 128,-1,30
 800 991 800 991 664 991 c 0,31,32
 510 991 510 991 417.5 904 c 128,-1,33
 325 817 325 817 311 659 c 1,34,-1
 967 660 l 1,28,29
EndSplineSet
Validated: 1
EndChar

StartChar: icircumflex
Encoding: 238 238 180
Width: 569
GlyphClass: 2
Flags: W
LayerCount: 2
Fore
SplineSet
211 1638 m 1,0,-1
 359 1638 l 1,1,-1
 604 1262 l 1,2,-1
 465 1262 l 1,3,-1
 285 1507 l 1,4,-1
 105 1262 l 1,5,-1
 -34 1262 l 1,6,-1
 211 1638 l 1,0,-1
193 1120 m 1,7,-1
 377 1120 l 1,8,-1
 377 0 l 1,9,-1
 193 0 l 1,10,-1
 193 1120 l 1,7,-1
285 1147 m 1024,11,-1
EndSplineSet
Validated: 1
EndChar

StartChar: eth
Encoding: 240 240 182
Width: 1253
GlyphClass: 2
Flags: W
AnchorPoint: "Anchor-4" 637 1520 basechar 0
LayerCount: 2
Fore
SplineSet
838 915 m 1,0,1
 788 932 788 932 744 940 c 128,-1,2
 700 948 700 948 659 948 c 0,3,4
 492 948 492 948 399.5 840 c 128,-1,5
 307 732 307 732 307 537 c 0,6,7
 307 349 307 349 394 238 c 128,-1,8
 481 127 481 127 627 127 c 0,9,10
 772 127 772 127 859 238 c 128,-1,11
 946 349 946 349 946 537 c 0,12,13
 946 659 946 659 919 753 c 128,-1,14
 892 847 892 847 838 915 c 1,0,1
901 1141 m 2,15,16
 1027 998 1027 998 1084 854 c 128,-1,17
 1141 710 1141 710 1141 537 c 0,18,19
 1141 282 1141 282 999 126.5 c 128,-1,20
 857 -29 857 -29 627 -29 c 0,21,22
 396 -29 396 -29 254.5 126.5 c 128,-1,23
 113 282 113 282 113 537 c 0,24,25
 113 787 113 787 251 942.5 c 128,-1,26
 389 1098 389 1098 610 1098 c 0,27,28
 628 1098 628 1098 654 1095.5 c 128,-1,29
 680 1093 680 1093 722 1088 c 1,30,-1
 563 1268 l 1,31,-1
 244 1161 l 1,32,-1
 211 1260 l 1,33,-1
 492 1352 l 1,34,-1
 311 1556 l 1,35,-1
 539 1556 l 1,36,-1
 666 1411 l 1,37,-1
 999 1522 l 1,38,-1
 1032 1425 l 1,39,-1
 737 1327 l 1,40,-1
 901 1141 l 2,15,16
EndSplineSet
Validated: 1
EndChar

StartChar: ntilde
Encoding: 241 241 183
Width: 1298
GlyphClass: 2
Flags: W
LayerCount: 2
Fore
SplineSet
660 1370 m 2,0,-1
 603 1425 l 2,1,2
 581 1445 581 1445 564.5 1454.5 c 128,-1,3
 548 1464 548 1464 535 1464 c 0,4,5
 497 1464 497 1464 479 1427.5 c 128,-1,6
 461 1391 461 1391 459 1309 c 1,7,-1
 334 1309 l 1,8,9
 336 1444 336 1444 387 1517.5 c 128,-1,10
 438 1591 438 1591 529 1591 c 0,11,12
 567 1591 567 1591 599 1577 c 128,-1,13
 631 1563 631 1563 668 1530 c 2,14,-1
 725 1475 l 2,15,16
 747 1455 747 1455 763.5 1445.5 c 128,-1,17
 780 1436 780 1436 793 1436 c 0,18,19
 831 1436 831 1436 849 1472.5 c 128,-1,20
 867 1509 867 1509 869 1591 c 1,21,-1
 994 1591 l 1,22,23
 992 1456 992 1456 941 1382.5 c 128,-1,24
 890 1309 890 1309 799 1309 c 0,25,26
 761 1309 761 1309 729 1323 c 128,-1,27
 697 1337 697 1337 660 1370 c 2,0,-1
1124 676 m 2,28,-1
 1124 0 l 1,29,-1
 940 0 l 1,30,-1
 940 670 l 2,31,32
 940 829 940 829 878 908 c 128,-1,33
 816 987 816 987 692 987 c 0,34,35
 543 987 543 987 457 892 c 128,-1,36
 371 797 371 797 371 633 c 2,37,-1
 371 0 l 1,38,-1
 186 0 l 1,39,-1
 186 1120 l 1,40,-1
 371 1120 l 1,41,-1
 371 946 l 1,42,43
 437 1047 437 1047 526.5 1097 c 128,-1,44
 616 1147 616 1147 733 1147 c 0,45,46
 926 1147 926 1147 1025 1027.5 c 128,-1,47
 1124 908 1124 908 1124 676 c 2,28,-1
EndSplineSet
Validated: 1
EndChar

StartChar: ocircumflex
Encoding: 244 244 186
Width: 1253
GlyphClass: 2
Flags: W
LayerCount: 2
Fore
SplineSet
553 1638 m 1,0,-1
 701 1638 l 1,1,-1
 946 1262 l 1,2,-1
 807 1262 l 1,3,-1
 627 1507 l 1,4,-1
 447 1262 l 1,5,-1
 308 1262 l 1,6,-1
 553 1638 l 1,0,-1
627 991 m 0,7,8
 479 991 479 991 393 875.5 c 128,-1,9
 307 760 307 760 307 559 c 256,10,11
 307 358 307 358 392.5 242.5 c 128,-1,12
 478 127 478 127 627 127 c 0,13,14
 774 127 774 127 860 243 c 128,-1,15
 946 359 946 359 946 559 c 0,16,17
 946 758 946 758 860 874.5 c 128,-1,18
 774 991 774 991 627 991 c 0,7,8
627 1147 m 0,19,20
 867 1147 867 1147 1004 991 c 128,-1,21
 1141 835 1141 835 1141 559 c 0,22,23
 1141 284 1141 284 1004 127.5 c 128,-1,24
 867 -29 867 -29 627 -29 c 0,25,26
 386 -29 386 -29 249.5 127.5 c 128,-1,27
 113 284 113 284 113 559 c 0,28,29
 113 835 113 835 249.5 991 c 128,-1,30
 386 1147 386 1147 627 1147 c 0,19,20
EndSplineSet
Validated: 1
EndChar

StartChar: otilde
Encoding: 245 245 187
Width: 1253
GlyphClass: 2
Flags: W
LayerCount: 2
Fore
SplineSet
623 1370 m 2,0,-1
 566 1425 l 2,1,2
 544 1445 544 1445 527.5 1454.5 c 128,-1,3
 511 1464 511 1464 498 1464 c 0,4,5
 460 1464 460 1464 442 1427.5 c 128,-1,6
 424 1391 424 1391 422 1309 c 1,7,-1
 297 1309 l 1,8,9
 299 1444 299 1444 350 1517.5 c 128,-1,10
 401 1591 401 1591 492 1591 c 0,11,12
 530 1591 530 1591 562 1577 c 128,-1,13
 594 1563 594 1563 631 1530 c 2,14,-1
 688 1475 l 2,15,16
 710 1455 710 1455 726.5 1445.5 c 128,-1,17
 743 1436 743 1436 756 1436 c 0,18,19
 794 1436 794 1436 812 1472.5 c 128,-1,20
 830 1509 830 1509 832 1591 c 1,21,-1
 957 1591 l 1,22,23
 955 1456 955 1456 904 1382.5 c 128,-1,24
 853 1309 853 1309 762 1309 c 0,25,26
 724 1309 724 1309 692 1323 c 128,-1,27
 660 1337 660 1337 623 1370 c 2,0,-1
627 991 m 0,28,29
 479 991 479 991 393 875.5 c 128,-1,30
 307 760 307 760 307 559 c 256,31,32
 307 358 307 358 392.5 242.5 c 128,-1,33
 478 127 478 127 627 127 c 0,34,35
 774 127 774 127 860 243 c 128,-1,36
 946 359 946 359 946 559 c 0,37,38
 946 758 946 758 860 874.5 c 128,-1,39
 774 991 774 991 627 991 c 0,28,29
627 1147 m 0,40,41
 867 1147 867 1147 1004 991 c 128,-1,42
 1141 835 1141 835 1141 559 c 0,43,44
 1141 284 1141 284 1004 127.5 c 128,-1,45
 867 -29 867 -29 627 -29 c 0,46,47
 386 -29 386 -29 249.5 127.5 c 128,-1,48
 113 284 113 284 113 559 c 0,49,50
 113 835 113 835 249.5 991 c 128,-1,51
 386 1147 386 1147 627 1147 c 0,40,41
EndSplineSet
Validated: 1
EndChar

StartChar: divide
Encoding: 247 247 189
Width: 1724
GlyphClass: 2
Flags: W
LayerCount: 2
Fore
SplineSet
1006 1035 m 0,0,1
 1006 976 1006 976 963.5 934 c 128,-1,2
 921 892 921 892 864 892 c 128,-1,3
 807 892 807 892 764.5 934.5 c 128,-1,4
 722 977 722 977 722 1035 c 0,5,6
 722 1094 722 1094 764 1135.5 c 128,-1,7
 806 1177 806 1177 864 1176 c 0,8,9
 921 1176 921 1176 963.5 1134.5 c 128,-1,10
 1006 1093 1006 1093 1006 1035 c 0,0,1
1006 75 m 0,11,12
 1006 16 1006 16 963.5 -25.5 c 128,-1,13
 921 -67 921 -67 864 -67 c 128,-1,14
 807 -67 807 -67 764.5 -24.5 c 128,-1,15
 722 18 722 18 722 75 c 0,16,17
 722 134 722 134 764 176 c 128,-1,18
 806 218 806 218 864 217 c 0,19,20
 921 217 921 217 963.5 175 c 128,-1,21
 1006 133 1006 133 1006 75 c 0,11,12
198 600 m 2,22,-1
 1530 600 l 2,23,24
 1546 600 1546 600 1555 599 c 128,-1,25
 1564 598 1564 598 1577 594 c 128,-1,26
 1590 590 1590 590 1596.5 580.5 c 128,-1,27
 1603 571 1603 571 1603 555 c 128,-1,28
 1603 539 1603 539 1596.5 529.5 c 128,-1,29
 1590 520 1590 520 1577 516 c 128,-1,30
 1564 512 1564 512 1555 511.5 c 128,-1,31
 1546 511 1546 511 1530 511 c 2,32,-1
 198 511 l 2,33,34
 182 511 182 511 172.5 511.5 c 128,-1,35
 163 512 163 512 150 516 c 128,-1,36
 137 520 137 520 130.5 529.5 c 128,-1,37
 124 539 124 539 124 555 c 128,-1,38
 124 571 124 571 130.5 580.5 c 128,-1,39
 137 590 137 590 150 594 c 128,-1,40
 163 598 163 598 172.5 599 c 128,-1,41
 182 600 182 600 198 600 c 2,22,-1
EndSplineSet
Validated: 33
EndChar

StartChar: oslash
Encoding: 248 248 190
Width: 1253
GlyphClass: 2
Flags: W
AnchorPoint: "Anchor-4" 627 1147 basechar 0 26
LayerCount: 2
Fore
SplineSet
905 801 m 1,0,-1
 418 209 l 1,1,2
 459 167 459 167 510.5 147 c 128,-1,3
 562 127 562 127 627 127 c 0,4,5
 774 127 774 127 860 243 c 128,-1,6
 946 359 946 359 946 559 c 0,7,8
 946 638 946 638 936 696.5 c 128,-1,9
 926 755 926 755 905 801 c 1,0,-1
834 909 m 1,10,11
 792 950 792 950 740.5 970.5 c 128,-1,12
 689 991 689 991 627 991 c 0,13,14
 476 991 476 991 391.5 873.5 c 128,-1,15
 307 756 307 756 307 545 c 0,16,17
 307 473 307 473 316.5 418 c 128,-1,18
 326 363 326 363 346 317 c 1,19,-1
 834 909 l 1,10,11
221 166 m 1,20,21
 167 243 167 243 140 341.5 c 128,-1,22
 113 440 113 440 113 559 c 0,23,24
 113 835 113 835 249.5 991 c 128,-1,25
 386 1147 386 1147 627 1147 c 0,26,27
 720 1147 720 1147 799.5 1121.5 c 128,-1,28
 879 1096 879 1096 946 1044 c 1,29,-1
 1085 1212 l 1,30,-1
 1180 1133 l 1,31,-1
 1034 954 l 1,32,33
 1087 877 1087 877 1114 778 c 128,-1,34
 1141 679 1141 679 1141 559 c 0,35,36
 1141 284 1141 284 1004 127.5 c 128,-1,37
 867 -29 867 -29 627 -29 c 0,38,39
 531 -29 531 -29 450.5 -3 c 128,-1,40
 370 23 370 23 307 74 c 1,41,-1
 168 -94 l 1,42,-1
 72 -16 l 1,43,-1
 221 166 l 1,20,21
EndSplineSet
Validated: 1
EndChar

StartChar: ucircumflex
Encoding: 251 251 193
Width: 1298
GlyphClass: 2
Flags: W
LayerCount: 2
Fore
SplineSet
561 1638 m 1,0,-1
 709 1638 l 1,1,-1
 954 1262 l 1,2,-1
 815 1262 l 1,3,-1
 635 1507 l 1,4,-1
 455 1262 l 1,5,-1
 316 1262 l 1,6,-1
 561 1638 l 1,0,-1
174 442 m 2,7,-1
 174 1120 l 1,8,-1
 358 1120 l 1,9,-1
 358 449 l 2,10,11
 358 290 358 290 420 210.5 c 128,-1,12
 482 131 482 131 606 131 c 0,13,14
 755 131 755 131 841.5 226 c 128,-1,15
 928 321 928 321 928 485 c 2,16,-1
 928 1120 l 1,17,-1
 1112 1120 l 1,18,-1
 1112 0 l 1,19,-1
 928 0 l 1,20,-1
 928 172 l 1,21,22
 861 70 861 70 772.5 20.5 c 128,-1,23
 684 -29 684 -29 567 -29 c 0,24,25
 374 -29 374 -29 274 91 c 128,-1,26
 174 211 174 211 174 442 c 2,7,-1
637 1147 m 1024,27,-1
EndSplineSet
Validated: 1
EndChar

StartChar: thorn
Encoding: 254 254 196
Width: 1300
GlyphClass: 2
Flags: W
AnchorPoint: "Anchor-4" 278 1520 basechar 0
LayerCount: 2
Fore
SplineSet
371 168 m 1,0,-1
 371 -426 l 1,1,-1
 186 -426 l 1,2,-1
 186 1556 l 1,3,-1
 371 1556 l 1,4,-1
 371 950 l 1,5,6
 429 1050 429 1050 517.5 1098.5 c 128,-1,7
 606 1147 606 1147 729 1147 c 0,8,9
 933 1147 933 1147 1060.5 985 c 128,-1,10
 1188 823 1188 823 1188 559 c 256,11,12
 1188 295 1188 295 1060.5 133 c 128,-1,13
 933 -29 933 -29 729 -29 c 0,14,15
 606 -29 606 -29 517.5 19.5 c 128,-1,16
 429 68 429 68 371 168 c 1,0,-1
997 559 m 256,17,18
 997 762 997 762 913.5 877.5 c 128,-1,19
 830 993 830 993 684 993 c 256,20,21
 538 993 538 993 454.5 877.5 c 128,-1,22
 371 762 371 762 371 559 c 256,23,24
 371 356 371 356 454.5 240.5 c 128,-1,25
 538 125 538 125 684 125 c 256,26,27
 830 125 830 125 913.5 240.5 c 128,-1,28
 997 356 997 356 997 559 c 256,17,18
EndSplineSet
Validated: 1
EndChar

StartChar: Abreve
Encoding: 258 258 200
Width: 1401
GlyphClass: 2
Flags: W
LayerCount: 2
Fore
SplineSet
405 1938 m 1,0,-1
 523 1938 l 1,1,2
 534 1863 534 1863 582.5 1825.5 c 128,-1,3
 631 1788 631 1788 718 1788 c 0,4,5
 804 1788 804 1788 852 1825 c 128,-1,6
 900 1862 900 1862 913 1938 c 1,7,-1
 1031 1938 l 1,8,9
 1021 1795 1021 1795 942 1723 c 128,-1,10
 863 1651 863 1651 718 1651 c 256,11,12
 573 1651 573 1651 494 1723 c 128,-1,13
 415 1795 415 1795 405 1938 c 1,0,-1
700 1294 m 1,14,-1
 426 551 l 1,15,-1
 975 551 l 1,16,-1
 700 1294 l 1,14,-1
586 1493 m 1,17,-1
 815 1493 l 1,18,-1
 1384 0 l 1,19,-1
 1174 0 l 1,20,-1
 1038 383 l 1,21,-1
 365 383 l 1,22,-1
 229 0 l 1,23,-1
 16 0 l 1,24,-1
 586 1493 l 1,17,-1
EndSplineSet
Validated: 1
EndChar

StartChar: abreve
Encoding: 259 259 201
Width: 1255
GlyphClass: 2
Flags: W
LayerCount: 2
Fore
SplineSet
278 1567 m 1,0,-1
 396 1567 l 1,1,2
 407 1492 407 1492 455.5 1454.5 c 128,-1,3
 504 1417 504 1417 591 1417 c 0,4,5
 677 1417 677 1417 725 1454 c 128,-1,6
 773 1491 773 1491 786 1567 c 1,7,-1
 904 1567 l 1,8,9
 894 1424 894 1424 815 1352 c 128,-1,10
 736 1280 736 1280 591 1280 c 256,11,12
 446 1280 446 1280 367 1352 c 128,-1,13
 288 1424 288 1424 278 1567 c 1,0,-1
702 563 m 2,14,15
 479 563 479 563 393 512 c 128,-1,16
 307 461 307 461 307 338 c 0,17,18
 307 240 307 240 371.5 182.5 c 128,-1,19
 436 125 436 125 547 125 c 0,20,21
 700 125 700 125 792.5 233.5 c 128,-1,22
 885 342 885 342 885 522 c 2,23,-1
 885 563 l 1,24,-1
 702 563 l 2,14,15
1069 639 m 2,25,-1
 1069 0 l 1,26,-1
 885 0 l 1,27,-1
 885 170 l 1,28,29
 822 68 822 68 728 19.5 c 128,-1,30
 634 -29 634 -29 498 -29 c 0,31,32
 326 -29 326 -29 224.5 67.5 c 128,-1,33
 123 164 123 164 123 326 c 0,34,35
 123 515 123 515 249.5 611 c 128,-1,36
 376 707 376 707 627 707 c 2,37,-1
 885 707 l 1,38,-1
 885 725 l 2,39,40
 885 852 885 852 801.5 921.5 c 128,-1,41
 718 991 718 991 567 991 c 0,42,43
 471 991 471 991 380 968 c 128,-1,44
 289 945 289 945 205 899 c 1,45,-1
 205 1069 l 1,46,47
 306 1108 306 1108 401 1127.5 c 128,-1,48
 496 1147 496 1147 586 1147 c 0,49,50
 829 1147 829 1147 949 1021 c 128,-1,51
 1069 895 1069 895 1069 639 c 2,25,-1
EndSplineSet
Validated: 1
EndChar

StartChar: Aogonek
Encoding: 260 260 202
Width: 1401
GlyphClass: 2
Flags: W
AnchorPoint: "Anchor-4" 700 1520 basechar 0
LayerCount: 2
Fore
SplineSet
1180 0 m 1,0,-1
 1299 0 l 1,1,2
 1254 -61 1254 -61 1232.5 -105 c 128,-1,3
 1211 -149 1211 -149 1211 -180 c 0,4,5
 1211 -226 1211 -226 1238.5 -249 c 128,-1,6
 1266 -272 1266 -272 1320 -272 c 0,7,8
 1352 -272 1352 -272 1383 -264.5 c 128,-1,9
 1414 -257 1414 -257 1445 -242 c 1,10,-1
 1445 -375 l 1,11,12
 1407 -385 1407 -385 1373 -390 c 128,-1,13
 1339 -395 1339 -395 1309 -395 c 0,14,15
 1187 -395 1187 -395 1129.5 -351.5 c 128,-1,16
 1072 -308 1072 -308 1072 -215 c 0,17,18
 1072 -167 1072 -167 1098.5 -114.5 c 128,-1,19
 1125 -62 1125 -62 1180 0 c 1,0,-1
700 1294 m 1,20,-1
 426 551 l 1,21,-1
 975 551 l 1,22,-1
 700 1294 l 1,20,-1
586 1493 m 1,23,-1
 815 1493 l 1,24,-1
 1384 0 l 1,25,-1
 1174 0 l 1,26,-1
 1038 383 l 1,27,-1
 365 383 l 1,28,-1
 229 0 l 1,29,-1
 16 0 l 1,30,-1
 586 1493 l 1,23,-1
EndSplineSet
Validated: 5
EndChar

StartChar: aogonek
Encoding: 261 261 203
Width: 1255
GlyphClass: 2
Flags: W
AnchorPoint: "Anchor-4" 586 1147 basechar 0
LayerCount: 2
Fore
SplineSet
887 0 m 1,0,-1
 1006 0 l 1,1,2
 961 -61 961 -61 939.5 -105 c 128,-1,3
 918 -149 918 -149 918 -180 c 0,4,5
 918 -226 918 -226 945.5 -249 c 128,-1,6
 973 -272 973 -272 1027 -272 c 0,7,8
 1059 -272 1059 -272 1090 -264.5 c 128,-1,9
 1121 -257 1121 -257 1152 -242 c 1,10,-1
 1152 -375 l 1,11,12
 1114 -385 1114 -385 1080 -390 c 128,-1,13
 1046 -395 1046 -395 1016 -395 c 0,14,15
 894 -395 894 -395 836.5 -351.5 c 128,-1,16
 779 -308 779 -308 779 -215 c 0,17,18
 779 -167 779 -167 805.5 -114.5 c 128,-1,19
 832 -62 832 -62 887 0 c 1,0,-1
702 563 m 2,20,21
 479 563 479 563 393 512 c 128,-1,22
 307 461 307 461 307 338 c 0,23,24
 307 240 307 240 371.5 182.5 c 128,-1,25
 436 125 436 125 547 125 c 0,26,27
 700 125 700 125 792.5 233.5 c 128,-1,28
 885 342 885 342 885 522 c 2,29,-1
 885 563 l 1,30,-1
 702 563 l 2,20,21
1069 639 m 2,31,-1
 1069 0 l 1,32,-1
 885 0 l 1,33,-1
 885 170 l 1,34,35
 822 68 822 68 728 19.5 c 128,-1,36
 634 -29 634 -29 498 -29 c 0,37,38
 326 -29 326 -29 224.5 67.5 c 128,-1,39
 123 164 123 164 123 326 c 0,40,41
 123 515 123 515 249.5 611 c 128,-1,42
 376 707 376 707 627 707 c 2,43,-1
 885 707 l 1,44,-1
 885 725 l 2,45,46
 885 852 885 852 801.5 921.5 c 128,-1,47
 718 991 718 991 567 991 c 0,48,49
 471 991 471 991 380 968 c 128,-1,50
 289 945 289 945 205 899 c 1,51,-1
 205 1069 l 1,52,53
 306 1108 306 1108 401 1127.5 c 128,-1,54
 496 1147 496 1147 586 1147 c 0,55,56
 829 1147 829 1147 949 1021 c 128,-1,57
 1069 895 1069 895 1069 639 c 2,31,-1
EndSplineSet
Validated: 5
EndChar

StartChar: Cacute
Encoding: 262 262 204
Width: 1430
GlyphClass: 2
Flags: W
LayerCount: 2
Fore
SplineSet
868 1899 m 1,0,-1
 1053 1899 l 1,1,-1
 825 1635 l 1,2,-1
 672 1635 l 1,3,-1
 868 1899 l 1,0,-1
1319 1378 m 1,4,-1
 1319 1165 l 1,5,6
 1217 1260 1217 1260 1101.5 1307 c 128,-1,7
 986 1354 986 1354 856 1354 c 0,8,9
 600 1354 600 1354 464 1197.5 c 128,-1,10
 328 1041 328 1041 328 745 c 0,11,12
 328 450 328 450 464 293.5 c 128,-1,13
 600 137 600 137 856 137 c 0,14,15
 986 137 986 137 1101.5 184 c 128,-1,16
 1217 231 1217 231 1319 326 c 1,17,-1
 1319 115 l 1,18,19
 1213 43 1213 43 1094.5 7 c 128,-1,20
 976 -29 976 -29 844 -29 c 0,21,22
 505 -29 505 -29 310 178.5 c 128,-1,23
 115 386 115 386 115 745 c 0,24,25
 115 1105 115 1105 310 1312.5 c 128,-1,26
 505 1520 505 1520 844 1520 c 0,27,28
 978 1520 978 1520 1096.5 1484.5 c 128,-1,29
 1215 1449 1215 1449 1319 1378 c 1,4,-1
EndSplineSet
Validated: 1
EndChar

StartChar: Ccircumflex
Encoding: 264 264 206
Width: 1430
GlyphClass: 2
Flags: W
LayerCount: 2
Fore
SplineSet
750 1901 m 1,0,-1
 938 1901 l 1,1,-1
 1149 1635 l 1,2,-1
 1010 1635 l 1,3,-1
 844 1813 l 1,4,-1
 678 1635 l 1,5,-1
 539 1635 l 1,6,-1
 750 1901 l 1,0,-1
1319 1378 m 1,7,-1
 1319 1165 l 1,8,9
 1217 1260 1217 1260 1101.5 1307 c 128,-1,10
 986 1354 986 1354 856 1354 c 0,11,12
 600 1354 600 1354 464 1197.5 c 128,-1,13
 328 1041 328 1041 328 745 c 0,14,15
 328 450 328 450 464 293.5 c 128,-1,16
 600 137 600 137 856 137 c 0,17,18
 986 137 986 137 1101.5 184 c 128,-1,19
 1217 231 1217 231 1319 326 c 1,20,-1
 1319 115 l 1,21,22
 1213 43 1213 43 1094.5 7 c 128,-1,23
 976 -29 976 -29 844 -29 c 0,24,25
 505 -29 505 -29 310 178.5 c 128,-1,26
 115 386 115 386 115 745 c 0,27,28
 115 1105 115 1105 310 1312.5 c 128,-1,29
 505 1520 505 1520 844 1520 c 0,30,31
 978 1520 978 1520 1096.5 1484.5 c 128,-1,32
 1215 1449 1215 1449 1319 1378 c 1,7,-1
EndSplineSet
Validated: 1
EndChar

StartChar: ccircumflex
Encoding: 265 265 207
Width: 1126
GlyphClass: 2
Flags: W
LayerCount: 2
Fore
SplineSet
602 1638 m 1,0,-1
 750 1638 l 1,1,-1
 995 1262 l 1,2,-1
 856 1262 l 1,3,-1
 676 1507 l 1,4,-1
 496 1262 l 1,5,-1
 357 1262 l 1,6,-1
 602 1638 l 1,0,-1
999 1077 m 1,7,-1
 999 905 l 1,8,9
 921 948 921 948 842.5 969.5 c 128,-1,10
 764 991 764 991 684 991 c 0,11,12
 505 991 505 991 406 877.5 c 128,-1,13
 307 764 307 764 307 559 c 256,14,15
 307 354 307 354 406 240.5 c 128,-1,16
 505 127 505 127 684 127 c 0,17,18
 764 127 764 127 842.5 148.5 c 128,-1,19
 921 170 921 170 999 213 c 1,20,-1
 999 43 l 1,21,22
 922 7 922 7 839.5 -11 c 128,-1,23
 757 -29 757 -29 664 -29 c 0,24,25
 411 -29 411 -29 262 130 c 128,-1,26
 113 289 113 289 113 559 c 0,27,28
 113 833 113 833 263.5 990 c 128,-1,29
 414 1147 414 1147 676 1147 c 0,30,31
 761 1147 761 1147 842 1129.5 c 128,-1,32
 923 1112 923 1112 999 1077 c 1,7,-1
EndSplineSet
Validated: 1
EndChar

StartChar: Cdotaccent
Encoding: 266 266 208
Width: 1430
GlyphClass: 2
Flags: W
LayerCount: 2
Fore
SplineSet
742 1872 m 1,0,-1
 946 1872 l 1,1,-1
 946 1667 l 1,2,-1
 742 1667 l 1,3,-1
 742 1872 l 1,0,-1
1319 1378 m 1,4,-1
 1319 1165 l 1,5,6
 1217 1260 1217 1260 1101.5 1307 c 128,-1,7
 986 1354 986 1354 856 1354 c 0,8,9
 600 1354 600 1354 464 1197.5 c 128,-1,10
 328 1041 328 1041 328 745 c 0,11,12
 328 450 328 450 464 293.5 c 128,-1,13
 600 137 600 137 856 137 c 0,14,15
 986 137 986 137 1101.5 184 c 128,-1,16
 1217 231 1217 231 1319 326 c 1,17,-1
 1319 115 l 1,18,19
 1213 43 1213 43 1094.5 7 c 128,-1,20
 976 -29 976 -29 844 -29 c 0,21,22
 505 -29 505 -29 310 178.5 c 128,-1,23
 115 386 115 386 115 745 c 0,24,25
 115 1105 115 1105 310 1312.5 c 128,-1,26
 505 1520 505 1520 844 1520 c 0,27,28
 978 1520 978 1520 1096.5 1484.5 c 128,-1,29
 1215 1449 1215 1449 1319 1378 c 1,4,-1
EndSplineSet
Validated: 1
EndChar

StartChar: cdotaccent
Encoding: 267 267 209
Width: 1126
GlyphClass: 2
Flags: W
LayerCount: 2
Fore
SplineSet
582 1556 m 1,0,-1
 766 1556 l 1,1,-1
 766 1323 l 1,2,-1
 582 1323 l 1,3,-1
 582 1556 l 1,0,-1
676 1147 m 1024,4,-1
999 1077 m 1,5,-1
 999 905 l 1,6,7
 921 948 921 948 842.5 969.5 c 128,-1,8
 764 991 764 991 684 991 c 0,9,10
 505 991 505 991 406 877.5 c 128,-1,11
 307 764 307 764 307 559 c 256,12,13
 307 354 307 354 406 240.5 c 128,-1,14
 505 127 505 127 684 127 c 0,15,16
 764 127 764 127 842.5 148.5 c 128,-1,17
 921 170 921 170 999 213 c 1,18,-1
 999 43 l 1,19,20
 922 7 922 7 839.5 -11 c 128,-1,21
 757 -29 757 -29 664 -29 c 0,22,23
 411 -29 411 -29 262 130 c 128,-1,24
 113 289 113 289 113 559 c 0,25,26
 113 833 113 833 263.5 990 c 128,-1,27
 414 1147 414 1147 676 1147 c 0,28,29
 761 1147 761 1147 842 1129.5 c 128,-1,30
 923 1112 923 1112 999 1077 c 1,5,-1
EndSplineSet
Validated: 1
EndChar

StartChar: Ccaron
Encoding: 268 268 210
Width: 1430
GlyphClass: 2
Flags: W
LayerCount: 2
Fore
SplineSet
719 1635 m 1,0,-1
 508 1901 l 1,1,-1
 647 1901 l 1,2,-1
 813 1723 l 1,3,-1
 979 1901 l 1,4,-1
 1118 1901 l 1,5,-1
 907 1635 l 1,6,-1
 719 1635 l 1,0,-1
1319 1378 m 1,7,-1
 1319 1165 l 1,8,9
 1217 1260 1217 1260 1101.5 1307 c 128,-1,10
 986 1354 986 1354 856 1354 c 0,11,12
 600 1354 600 1354 464 1197.5 c 128,-1,13
 328 1041 328 1041 328 745 c 0,14,15
 328 450 328 450 464 293.5 c 128,-1,16
 600 137 600 137 856 137 c 0,17,18
 986 137 986 137 1101.5 184 c 128,-1,19
 1217 231 1217 231 1319 326 c 1,20,-1
 1319 115 l 1,21,22
 1213 43 1213 43 1094.5 7 c 128,-1,23
 976 -29 976 -29 844 -29 c 0,24,25
 505 -29 505 -29 310 178.5 c 128,-1,26
 115 386 115 386 115 745 c 0,27,28
 115 1105 115 1105 310 1312.5 c 128,-1,29
 505 1520 505 1520 844 1520 c 0,30,31
 978 1520 978 1520 1096.5 1484.5 c 128,-1,32
 1215 1449 1215 1449 1319 1378 c 1,7,-1
EndSplineSet
Validated: 1
EndChar

StartChar: ccaron
Encoding: 269 269 211
Width: 1126
GlyphClass: 2
Flags: W
LayerCount: 2
Fore
SplineSet
575 1262 m 1,0,-1
 330 1638 l 1,1,-1
 469 1638 l 1,2,-1
 649 1393 l 1,3,-1
 829 1638 l 1,4,-1
 968 1638 l 1,5,-1
 723 1262 l 1,6,-1
 575 1262 l 1,0,-1
999 1077 m 1,7,-1
 999 905 l 1,8,9
 921 948 921 948 842.5 969.5 c 128,-1,10
 764 991 764 991 684 991 c 0,11,12
 505 991 505 991 406 877.5 c 128,-1,13
 307 764 307 764 307 559 c 256,14,15
 307 354 307 354 406 240.5 c 128,-1,16
 505 127 505 127 684 127 c 0,17,18
 764 127 764 127 842.5 148.5 c 128,-1,19
 921 170 921 170 999 213 c 1,20,-1
 999 43 l 1,21,22
 922 7 922 7 839.5 -11 c 128,-1,23
 757 -29 757 -29 664 -29 c 0,24,25
 411 -29 411 -29 262 130 c 128,-1,26
 113 289 113 289 113 559 c 0,27,28
 113 833 113 833 263.5 990 c 128,-1,29
 414 1147 414 1147 676 1147 c 0,30,31
 761 1147 761 1147 842 1129.5 c 128,-1,32
 923 1112 923 1112 999 1077 c 1,7,-1
EndSplineSet
Validated: 1
EndChar

StartChar: Dcaron
Encoding: 270 270 212
Width: 1577
GlyphClass: 2
Flags: W
LayerCount: 2
Fore
SplineSet
654 1635 m 1,0,-1
 443 1901 l 1,1,-1
 582 1901 l 1,2,-1
 748 1723 l 1,3,-1
 914 1901 l 1,4,-1
 1053 1901 l 1,5,-1
 842 1635 l 1,6,-1
 654 1635 l 1,0,-1
403 1327 m 1,7,-1
 403 166 l 1,8,-1
 647 166 l 2,9,10
 956 166 956 166 1099.5 306 c 128,-1,11
 1243 446 1243 446 1243 748 c 0,12,13
 1243 1048 1243 1048 1099.5 1187.5 c 128,-1,14
 956 1327 956 1327 647 1327 c 2,15,-1
 403 1327 l 1,7,-1
201 1493 m 1,16,-1
 616 1493 l 2,17,18
 1050 1493 1050 1493 1253 1312.5 c 128,-1,19
 1456 1132 1456 1132 1456 748 c 0,20,21
 1456 362 1456 362 1252 181 c 128,-1,22
 1048 0 1048 0 616 0 c 2,23,-1
 201 0 l 1,24,-1
 201 1493 l 1,16,-1
EndSplineSet
Validated: 1
EndChar

StartChar: dcaron
Encoding: 271 271 213
Width: 1300
GlyphClass: 2
Flags: W
AnchorPoint: "Anchor-4" 1022 1520 basechar 0
LayerCount: 2
Fore
SplineSet
1300 1554 m 1,0,-1
 1499 1554 l 1,1,-1
 1382 1178 l 1,2,-1
 1229 1178 l 1,3,-1
 1300 1554 l 1,0,-1
930 950 m 1,4,-1
 930 1556 l 1,5,-1
 1114 1556 l 1,6,-1
 1114 0 l 1,7,-1
 930 0 l 1,8,-1
 930 168 l 1,9,10
 872 68 872 68 783.5 19.5 c 128,-1,11
 695 -29 695 -29 571 -29 c 0,12,13
 368 -29 368 -29 240.5 133 c 128,-1,14
 113 295 113 295 113 559 c 256,15,16
 113 823 113 823 240.5 985 c 128,-1,17
 368 1147 368 1147 571 1147 c 0,18,19
 695 1147 695 1147 783.5 1098.5 c 128,-1,20
 872 1050 872 1050 930 950 c 1,4,-1
303 559 m 256,21,22
 303 356 303 356 386.5 240.5 c 128,-1,23
 470 125 470 125 616 125 c 256,24,25
 762 125 762 125 846 240.5 c 128,-1,26
 930 356 930 356 930 559 c 256,27,28
 930 762 930 762 846 877.5 c 128,-1,29
 762 993 762 993 616 993 c 256,30,31
 470 993 470 993 386.5 877.5 c 128,-1,32
 303 762 303 762 303 559 c 256,21,22
EndSplineSet
Validated: 1
EndChar

StartChar: dcroat
Encoding: 273 273 215
Width: 1300
GlyphClass: 2
Flags: W
LayerCount: 2
Fore
SplineSet
930 950 m 1,0,-1
 930 1284 l 1,1,-1
 604 1284 l 1,2,-1
 604 1409 l 1,3,-1
 930 1409 l 1,4,-1
 930 1556 l 1,5,-1
 1114 1556 l 1,6,-1
 1114 1409 l 1,7,-1
 1268 1409 l 1,8,-1
 1268 1284 l 1,9,-1
 1114 1284 l 1,10,-1
 1114 0 l 1,11,-1
 930 0 l 1,12,-1
 930 168 l 1,13,14
 872 68 872 68 783.5 19.5 c 128,-1,15
 695 -29 695 -29 571 -29 c 0,16,17
 368 -29 368 -29 240.5 133 c 128,-1,18
 113 295 113 295 113 559 c 256,19,20
 113 823 113 823 240.5 985 c 128,-1,21
 368 1147 368 1147 571 1147 c 0,22,23
 695 1147 695 1147 783.5 1098.5 c 128,-1,24
 872 1050 872 1050 930 950 c 1,0,-1
303 559 m 256,25,26
 303 356 303 356 386.5 240.5 c 128,-1,27
 470 125 470 125 616 125 c 256,28,29
 762 125 762 125 846 240.5 c 128,-1,30
 930 356 930 356 930 559 c 256,31,32
 930 762 930 762 846 877.5 c 128,-1,33
 762 993 762 993 616 993 c 256,34,35
 470 993 470 993 386.5 877.5 c 128,-1,36
 303 762 303 762 303 559 c 256,25,26
EndSplineSet
Validated: 1
EndChar

StartChar: Ebreve
Encoding: 276 276 218
Width: 1294
GlyphClass: 2
Flags: W
LayerCount: 2
Fore
SplineSet
360 1901 m 1,0,-1
 478 1901 l 1,1,2
 491 1847 491 1847 540.5 1818.5 c 128,-1,3
 590 1790 590 1790 673 1790 c 0,4,5
 755 1790 755 1790 803.5 1817.5 c 128,-1,6
 852 1845 852 1845 868 1901 c 1,7,-1
 986 1901 l 1,8,9
 976 1782 976 1782 896 1720.5 c 128,-1,10
 816 1659 816 1659 673 1659 c 0,11,12
 529 1659 529 1659 449.5 1720 c 128,-1,13
 370 1781 370 1781 360 1901 c 1,0,-1
201 1493 m 1,14,-1
 1145 1493 l 1,15,-1
 1145 1323 l 1,16,-1
 403 1323 l 1,17,-1
 403 881 l 1,18,-1
 1114 881 l 1,19,-1
 1114 711 l 1,20,-1
 403 711 l 1,21,-1
 403 170 l 1,22,-1
 1163 170 l 1,23,-1
 1163 0 l 1,24,-1
 201 0 l 1,25,-1
 201 1493 l 1,14,-1
EndSplineSet
Validated: 1
EndChar

StartChar: ebreve
Encoding: 277 277 219
Width: 1260
GlyphClass: 2
Flags: W
LayerCount: 2
Fore
SplineSet
349 1608 m 1,0,-1
 467 1608 l 1,1,2
 478 1533 478 1533 526.5 1495.5 c 128,-1,3
 575 1458 575 1458 662 1458 c 0,4,5
 748 1458 748 1458 796 1495 c 128,-1,6
 844 1532 844 1532 857 1608 c 1,7,-1
 975 1608 l 1,8,9
 965 1465 965 1465 886 1393 c 128,-1,10
 807 1321 807 1321 662 1321 c 256,11,12
 517 1321 517 1321 438 1393 c 128,-1,13
 359 1465 359 1465 349 1608 c 1,0,-1
1151 606 m 2,14,-1
 1151 516 l 1,15,-1
 305 516 l 1,16,17
 317 326 317 326 419.5 226.5 c 128,-1,18
 522 127 522 127 705 127 c 0,19,20
 811 127 811 127 910.5 153 c 128,-1,21
 1010 179 1010 179 1108 231 c 1,22,-1
 1108 57 l 1,23,24
 1009 15 1009 15 905 -7 c 128,-1,25
 801 -29 801 -29 694 -29 c 0,26,27
 426 -29 426 -29 269.5 127 c 128,-1,28
 113 283 113 283 113 549 c 0,29,30
 113 824 113 824 261.5 985.5 c 128,-1,31
 410 1147 410 1147 662 1147 c 0,32,33
 888 1147 888 1147 1019.5 1001.5 c 128,-1,34
 1151 856 1151 856 1151 606 c 2,14,-1
967 660 m 1,35,36
 965 811 965 811 882.5 901 c 128,-1,37
 800 991 800 991 664 991 c 0,38,39
 510 991 510 991 417.5 904 c 128,-1,40
 325 817 325 817 311 659 c 1,41,-1
 967 660 l 1,35,36
EndSplineSet
Validated: 1
EndChar

StartChar: Edotaccent
Encoding: 278 278 220
Width: 1294
GlyphClass: 2
Flags: W
LayerCount: 2
Fore
SplineSet
568 1872 m 1,0,-1
 772 1872 l 1,1,-1
 772 1667 l 1,2,-1
 568 1667 l 1,3,-1
 568 1872 l 1,0,-1
201 1493 m 1,4,-1
 1145 1493 l 1,5,-1
 1145 1323 l 1,6,-1
 403 1323 l 1,7,-1
 403 881 l 1,8,-1
 1114 881 l 1,9,-1
 1114 711 l 1,10,-1
 403 711 l 1,11,-1
 403 170 l 1,12,-1
 1163 170 l 1,13,-1
 1163 0 l 1,14,-1
 201 0 l 1,15,-1
 201 1493 l 1,4,-1
EndSplineSet
Validated: 1
EndChar

StartChar: edotaccent
Encoding: 279 279 221
Width: 1260
GlyphClass: 2
Flags: W
LayerCount: 2
Fore
SplineSet
568 1556 m 1,0,-1
 752 1556 l 1,1,-1
 752 1323 l 1,2,-1
 568 1323 l 1,3,-1
 568 1556 l 1,0,-1
662 1147 m 1024,4,-1
1151 606 m 2,5,-1
 1151 516 l 1,6,-1
 305 516 l 1,7,8
 317 326 317 326 419.5 226.5 c 128,-1,9
 522 127 522 127 705 127 c 0,10,11
 811 127 811 127 910.5 153 c 128,-1,12
 1010 179 1010 179 1108 231 c 1,13,-1
 1108 57 l 1,14,15
 1009 15 1009 15 905 -7 c 128,-1,16
 801 -29 801 -29 694 -29 c 0,17,18
 426 -29 426 -29 269.5 127 c 128,-1,19
 113 283 113 283 113 549 c 0,20,21
 113 824 113 824 261.5 985.5 c 128,-1,22
 410 1147 410 1147 662 1147 c 0,23,24
 888 1147 888 1147 1019.5 1001.5 c 128,-1,25
 1151 856 1151 856 1151 606 c 2,5,-1
967 660 m 1,26,27
 965 811 965 811 882.5 901 c 128,-1,28
 800 991 800 991 664 991 c 0,29,30
 510 991 510 991 417.5 904 c 128,-1,31
 325 817 325 817 311 659 c 1,32,-1
 967 660 l 1,26,27
EndSplineSet
Validated: 1
EndChar

StartChar: Eogonek
Encoding: 280 280 222
Width: 1294
GlyphClass: 2
Flags: W
LayerCount: 2
Fore
SplineSet
900 0 m 1,0,-1
 1019 0 l 1,1,2
 974 -61 974 -61 952.5 -105 c 128,-1,3
 931 -149 931 -149 931 -180 c 0,4,5
 931 -226 931 -226 958.5 -249 c 128,-1,6
 986 -272 986 -272 1040 -272 c 0,7,8
 1072 -272 1072 -272 1103 -264.5 c 128,-1,9
 1134 -257 1134 -257 1165 -242 c 1,10,-1
 1165 -375 l 1,11,12
 1127 -385 1127 -385 1093 -390 c 128,-1,13
 1059 -395 1059 -395 1029 -395 c 0,14,15
 907 -395 907 -395 849.5 -351.5 c 128,-1,16
 792 -308 792 -308 792 -215 c 0,17,18
 792 -167 792 -167 818.5 -114.5 c 128,-1,19
 845 -62 845 -62 900 0 c 1,0,-1
201 1493 m 1,20,-1
 1145 1493 l 1,21,-1
 1145 1323 l 1,22,-1
 403 1323 l 1,23,-1
 403 881 l 1,24,-1
 1114 881 l 1,25,-1
 1114 711 l 1,26,-1
 403 711 l 1,27,-1
 403 170 l 1,28,-1
 1163 170 l 1,29,-1
 1163 0 l 1,30,-1
 201 0 l 1,31,-1
 201 1493 l 1,20,-1
EndSplineSet
Validated: 5
EndChar

StartChar: eogonek
Encoding: 281 281 223
Width: 1260
GlyphClass: 2
Flags: W
LayerCount: 2
Fore
SplineSet
816 0 m 1,0,-1
 935 0 l 1,1,2
 890 -61 890 -61 868.5 -105 c 128,-1,3
 847 -149 847 -149 847 -180 c 0,4,5
 847 -226 847 -226 874.5 -249 c 128,-1,6
 902 -272 902 -272 956 -272 c 0,7,8
 988 -272 988 -272 1019 -264.5 c 128,-1,9
 1050 -257 1050 -257 1081 -242 c 1,10,-1
 1081 -375 l 1,11,12
 1043 -385 1043 -385 1009 -390 c 128,-1,13
 975 -395 975 -395 945 -395 c 0,14,15
 823 -395 823 -395 765.5 -351.5 c 128,-1,16
 708 -308 708 -308 708 -215 c 0,17,18
 708 -167 708 -167 734.5 -114.5 c 128,-1,19
 761 -62 761 -62 816 0 c 1,0,-1
1151 606 m 2,20,-1
 1151 516 l 1,21,-1
 305 516 l 1,22,23
 317 326 317 326 419.5 226.5 c 128,-1,24
 522 127 522 127 705 127 c 0,25,26
 811 127 811 127 910.5 153 c 128,-1,27
 1010 179 1010 179 1108 231 c 1,28,-1
 1108 57 l 1,29,30
 1009 15 1009 15 905 -7 c 128,-1,31
 801 -29 801 -29 694 -29 c 0,32,33
 426 -29 426 -29 269.5 127 c 128,-1,34
 113 283 113 283 113 549 c 0,35,36
 113 824 113 824 261.5 985.5 c 128,-1,37
 410 1147 410 1147 662 1147 c 0,38,39
 888 1147 888 1147 1019.5 1001.5 c 128,-1,40
 1151 856 1151 856 1151 606 c 2,20,-1
967 660 m 1,41,42
 965 811 965 811 882.5 901 c 128,-1,43
 800 991 800 991 664 991 c 0,44,45
 510 991 510 991 417.5 904 c 128,-1,46
 325 817 325 817 311 659 c 1,47,-1
 967 660 l 1,41,42
EndSplineSet
Validated: 5
EndChar

StartChar: Ecaron
Encoding: 282 282 224
Width: 1294
GlyphClass: 2
Flags: W
LayerCount: 2
Fore
SplineSet
584 1629 m 1,0,-1
 373 1895 l 1,1,-1
 512 1895 l 1,2,-1
 678 1717 l 1,3,-1
 844 1895 l 1,4,-1
 983 1895 l 1,5,-1
 772 1629 l 1,6,-1
 584 1629 l 1,0,-1
201 1493 m 1,7,-1
 1145 1493 l 1,8,-1
 1145 1323 l 1,9,-1
 403 1323 l 1,10,-1
 403 881 l 1,11,-1
 1114 881 l 1,12,-1
 1114 711 l 1,13,-1
 403 711 l 1,14,-1
 403 170 l 1,15,-1
 1163 170 l 1,16,-1
 1163 0 l 1,17,-1
 201 0 l 1,18,-1
 201 1493 l 1,7,-1
EndSplineSet
Validated: 1
EndChar

StartChar: ecaron
Encoding: 283 283 225
Width: 1260
GlyphClass: 2
Flags: W
LayerCount: 2
Fore
SplineSet
586 1257 m 1,0,-1
 341 1633 l 1,1,-1
 480 1633 l 1,2,-1
 660 1388 l 1,3,-1
 840 1633 l 1,4,-1
 979 1633 l 1,5,-1
 734 1257 l 1,6,-1
 586 1257 l 1,0,-1
1151 606 m 2,7,-1
 1151 516 l 1,8,-1
 305 516 l 1,9,10
 317 326 317 326 419.5 226.5 c 128,-1,11
 522 127 522 127 705 127 c 0,12,13
 811 127 811 127 910.5 153 c 128,-1,14
 1010 179 1010 179 1108 231 c 1,15,-1
 1108 57 l 1,16,17
 1009 15 1009 15 905 -7 c 128,-1,18
 801 -29 801 -29 694 -29 c 0,19,20
 426 -29 426 -29 269.5 127 c 128,-1,21
 113 283 113 283 113 549 c 0,22,23
 113 824 113 824 261.5 985.5 c 128,-1,24
 410 1147 410 1147 662 1147 c 0,25,26
 888 1147 888 1147 1019.5 1001.5 c 128,-1,27
 1151 856 1151 856 1151 606 c 2,7,-1
967 660 m 1,28,29
 965 811 965 811 882.5 901 c 128,-1,30
 800 991 800 991 664 991 c 0,31,32
 510 991 510 991 417.5 904 c 128,-1,33
 325 817 325 817 311 659 c 1,34,-1
 967 660 l 1,28,29
EndSplineSet
Validated: 1
EndChar

StartChar: Gcircumflex
Encoding: 284 284 226
Width: 1587
GlyphClass: 2
Flags: W
LayerCount: 2
Fore
SplineSet
766 1901 m 1,0,-1
 954 1901 l 1,1,-1
 1165 1635 l 1,2,-1
 1026 1635 l 1,3,-1
 860 1813 l 1,4,-1
 694 1635 l 1,5,-1
 555 1635 l 1,6,-1
 766 1901 l 1,0,-1
1219 213 m 1,7,-1
 1219 614 l 1,8,-1
 889 614 l 1,9,-1
 889 780 l 1,10,-1
 1419 780 l 1,11,-1
 1419 139 l 1,12,13
 1302 56 1302 56 1161 13.5 c 128,-1,14
 1020 -29 1020 -29 860 -29 c 0,15,16
 510 -29 510 -29 312.5 175.5 c 128,-1,17
 115 380 115 380 115 745 c 0,18,19
 115 1111 115 1111 312.5 1315.5 c 128,-1,20
 510 1520 510 1520 860 1520 c 0,21,22
 1006 1520 1006 1520 1137.5 1484 c 128,-1,23
 1269 1448 1269 1448 1380 1378 c 1,24,-1
 1380 1163 l 1,25,26
 1268 1258 1268 1258 1142 1306 c 128,-1,27
 1016 1354 1016 1354 877 1354 c 0,28,29
 603 1354 603 1354 465.5 1201 c 128,-1,30
 328 1048 328 1048 328 745 c 0,31,32
 328 443 328 443 465.5 290 c 128,-1,33
 603 137 603 137 877 137 c 0,34,35
 984 137 984 137 1068 155.5 c 128,-1,36
 1152 174 1152 174 1219 213 c 1,7,-1
EndSplineSet
Validated: 1
EndChar

StartChar: gcircumflex
Encoding: 285 285 227
Width: 1300
GlyphClass: 2
Flags: W
LayerCount: 2
Fore
SplineSet
542 1638 m 1,0,-1
 690 1638 l 1,1,-1
 935 1262 l 1,2,-1
 796 1262 l 1,3,-1
 616 1507 l 1,4,-1
 436 1262 l 1,5,-1
 297 1262 l 1,6,-1
 542 1638 l 1,0,-1
930 573 m 0,7,8
 930 773 930 773 847.5 883 c 128,-1,9
 765 993 765 993 616 993 c 0,10,11
 468 993 468 993 385.5 883 c 128,-1,12
 303 773 303 773 303 573 c 0,13,14
 303 374 303 374 385.5 264 c 128,-1,15
 468 154 468 154 616 154 c 0,16,17
 765 154 765 154 847.5 264 c 128,-1,18
 930 374 930 374 930 573 c 0,7,8
1114 139 m 2,19,20
 1114 -147 1114 -147 987 -286.5 c 128,-1,21
 860 -426 860 -426 598 -426 c 0,22,23
 501 -426 501 -426 415 -411.5 c 128,-1,24
 329 -397 329 -397 248 -367 c 1,25,-1
 248 -188 l 1,26,27
 329 -232 329 -232 408 -253 c 128,-1,28
 487 -274 487 -274 569 -274 c 0,29,30
 750 -274 750 -274 840 -179.5 c 128,-1,31
 930 -85 930 -85 930 106 c 2,32,-1
 930 197 l 1,33,34
 873 98 873 98 784 49 c 128,-1,35
 695 0 695 0 571 0 c 0,36,37
 365 0 365 0 239 157 c 128,-1,38
 113 314 113 314 113 573 c 0,39,40
 113 833 113 833 239 990 c 128,-1,41
 365 1147 365 1147 571 1147 c 0,42,43
 695 1147 695 1147 784 1098 c 128,-1,44
 873 1049 873 1049 930 950 c 1,45,-1
 930 1120 l 1,46,-1
 1114 1120 l 1,47,-1
 1114 139 l 2,19,20
EndSplineSet
Validated: 1
EndChar

StartChar: Gbreve
Encoding: 286 286 228
Width: 1587
GlyphClass: 2
Flags: W
LayerCount: 2
Fore
SplineSet
482 1901 m 1,0,-1
 600 1901 l 1,1,2
 613 1847 613 1847 662.5 1818.5 c 128,-1,3
 712 1790 712 1790 795 1790 c 0,4,5
 877 1790 877 1790 925.5 1817.5 c 128,-1,6
 974 1845 974 1845 990 1901 c 1,7,-1
 1108 1901 l 1,8,9
 1098 1782 1098 1782 1018 1720.5 c 128,-1,10
 938 1659 938 1659 795 1659 c 0,11,12
 651 1659 651 1659 571.5 1720 c 128,-1,13
 492 1781 492 1781 482 1901 c 1,0,-1
1219 213 m 1,14,-1
 1219 614 l 1,15,-1
 889 614 l 1,16,-1
 889 780 l 1,17,-1
 1419 780 l 1,18,-1
 1419 139 l 1,19,20
 1302 56 1302 56 1161 13.5 c 128,-1,21
 1020 -29 1020 -29 860 -29 c 0,22,23
 510 -29 510 -29 312.5 175.5 c 128,-1,24
 115 380 115 380 115 745 c 0,25,26
 115 1111 115 1111 312.5 1315.5 c 128,-1,27
 510 1520 510 1520 860 1520 c 0,28,29
 1006 1520 1006 1520 1137.5 1484 c 128,-1,30
 1269 1448 1269 1448 1380 1378 c 1,31,-1
 1380 1163 l 1,32,33
 1268 1258 1268 1258 1142 1306 c 128,-1,34
 1016 1354 1016 1354 877 1354 c 0,35,36
 603 1354 603 1354 465.5 1201 c 128,-1,37
 328 1048 328 1048 328 745 c 0,38,39
 328 443 328 443 465.5 290 c 128,-1,40
 603 137 603 137 877 137 c 0,41,42
 984 137 984 137 1068 155.5 c 128,-1,43
 1152 174 1152 174 1219 213 c 1,14,-1
EndSplineSet
Validated: 1
EndChar

StartChar: gbreve
Encoding: 287 287 229
Width: 1300
GlyphClass: 2
Flags: W
LayerCount: 2
Fore
SplineSet
338 1608 m 1,0,-1
 456 1608 l 1,1,2
 467 1533 467 1533 515.5 1495.5 c 128,-1,3
 564 1458 564 1458 651 1458 c 0,4,5
 737 1458 737 1458 785 1495 c 128,-1,6
 833 1532 833 1532 846 1608 c 1,7,-1
 964 1608 l 1,8,9
 954 1465 954 1465 875 1393 c 128,-1,10
 796 1321 796 1321 651 1321 c 256,11,12
 506 1321 506 1321 427 1393 c 128,-1,13
 348 1465 348 1465 338 1608 c 1,0,-1
930 573 m 0,14,15
 930 773 930 773 847.5 883 c 128,-1,16
 765 993 765 993 616 993 c 0,17,18
 468 993 468 993 385.5 883 c 128,-1,19
 303 773 303 773 303 573 c 0,20,21
 303 374 303 374 385.5 264 c 128,-1,22
 468 154 468 154 616 154 c 0,23,24
 765 154 765 154 847.5 264 c 128,-1,25
 930 374 930 374 930 573 c 0,14,15
1114 139 m 2,26,27
 1114 -147 1114 -147 987 -286.5 c 128,-1,28
 860 -426 860 -426 598 -426 c 0,29,30
 501 -426 501 -426 415 -411.5 c 128,-1,31
 329 -397 329 -397 248 -367 c 1,32,-1
 248 -188 l 1,33,34
 329 -232 329 -232 408 -253 c 128,-1,35
 487 -274 487 -274 569 -274 c 0,36,37
 750 -274 750 -274 840 -179.5 c 128,-1,38
 930 -85 930 -85 930 106 c 2,39,-1
 930 197 l 1,40,41
 873 98 873 98 784 49 c 128,-1,42
 695 0 695 0 571 0 c 0,43,44
 365 0 365 0 239 157 c 128,-1,45
 113 314 113 314 113 573 c 0,46,47
 113 833 113 833 239 990 c 128,-1,48
 365 1147 365 1147 571 1147 c 0,49,50
 695 1147 695 1147 784 1098 c 128,-1,51
 873 1049 873 1049 930 950 c 1,52,-1
 930 1120 l 1,53,-1
 1114 1120 l 1,54,-1
 1114 139 l 2,26,27
EndSplineSet
Validated: 1
EndChar

StartChar: Gdotaccent
Encoding: 288 288 230
Width: 1587
GlyphClass: 2
Flags: W
LayerCount: 2
Fore
SplineSet
758 1872 m 1,0,-1
 962 1872 l 1,1,-1
 962 1667 l 1,2,-1
 758 1667 l 1,3,-1
 758 1872 l 1,0,-1
1219 213 m 1,4,-1
 1219 614 l 1,5,-1
 889 614 l 1,6,-1
 889 780 l 1,7,-1
 1419 780 l 1,8,-1
 1419 139 l 1,9,10
 1302 56 1302 56 1161 13.5 c 128,-1,11
 1020 -29 1020 -29 860 -29 c 0,12,13
 510 -29 510 -29 312.5 175.5 c 128,-1,14
 115 380 115 380 115 745 c 0,15,16
 115 1111 115 1111 312.5 1315.5 c 128,-1,17
 510 1520 510 1520 860 1520 c 0,18,19
 1006 1520 1006 1520 1137.5 1484 c 128,-1,20
 1269 1448 1269 1448 1380 1378 c 1,21,-1
 1380 1163 l 1,22,23
 1268 1258 1268 1258 1142 1306 c 128,-1,24
 1016 1354 1016 1354 877 1354 c 0,25,26
 603 1354 603 1354 465.5 1201 c 128,-1,27
 328 1048 328 1048 328 745 c 0,28,29
 328 443 328 443 465.5 290 c 128,-1,30
 603 137 603 137 877 137 c 0,31,32
 984 137 984 137 1068 155.5 c 128,-1,33
 1152 174 1152 174 1219 213 c 1,4,-1
EndSplineSet
Validated: 1
EndChar

StartChar: gdotaccent
Encoding: 289 289 231
Width: 1300
GlyphClass: 2
Flags: W
LayerCount: 2
Fore
SplineSet
524 1556 m 1,0,-1
 708 1556 l 1,1,-1
 708 1323 l 1,2,-1
 524 1323 l 1,3,-1
 524 1556 l 1,0,-1
618 1147 m 1024,4,-1
930 573 m 0,5,6
 930 773 930 773 847.5 883 c 128,-1,7
 765 993 765 993 616 993 c 0,8,9
 468 993 468 993 385.5 883 c 128,-1,10
 303 773 303 773 303 573 c 0,11,12
 303 374 303 374 385.5 264 c 128,-1,13
 468 154 468 154 616 154 c 0,14,15
 765 154 765 154 847.5 264 c 128,-1,16
 930 374 930 374 930 573 c 0,5,6
1114 139 m 2,17,18
 1114 -147 1114 -147 987 -286.5 c 128,-1,19
 860 -426 860 -426 598 -426 c 0,20,21
 501 -426 501 -426 415 -411.5 c 128,-1,22
 329 -397 329 -397 248 -367 c 1,23,-1
 248 -188 l 1,24,25
 329 -232 329 -232 408 -253 c 128,-1,26
 487 -274 487 -274 569 -274 c 0,27,28
 750 -274 750 -274 840 -179.5 c 128,-1,29
 930 -85 930 -85 930 106 c 2,30,-1
 930 197 l 1,31,32
 873 98 873 98 784 49 c 128,-1,33
 695 0 695 0 571 0 c 0,34,35
 365 0 365 0 239 157 c 128,-1,36
 113 314 113 314 113 573 c 0,37,38
 113 833 113 833 239 990 c 128,-1,39
 365 1147 365 1147 571 1147 c 0,40,41
 695 1147 695 1147 784 1098 c 128,-1,42
 873 1049 873 1049 930 950 c 1,43,-1
 930 1120 l 1,44,-1
 1114 1120 l 1,45,-1
 1114 139 l 2,17,18
EndSplineSet
Validated: 1
EndChar

StartChar: Gcommaaccent
Encoding: 290 290 232
Width: 1587
GlyphClass: 2
Flags: W
LayerCount: 2
Fore
SplineSet
794 -191 m 1,0,-1
 1005 -191 l 1,1,-1
 841 -511 l 1,2,-1
 712 -511 l 1,3,-1
 794 -191 l 1,0,-1
1219 213 m 1,4,-1
 1219 614 l 1,5,-1
 889 614 l 1,6,-1
 889 780 l 1,7,-1
 1419 780 l 1,8,-1
 1419 139 l 1,9,10
 1302 56 1302 56 1161 13.5 c 128,-1,11
 1020 -29 1020 -29 860 -29 c 0,12,13
 510 -29 510 -29 312.5 175.5 c 128,-1,14
 115 380 115 380 115 745 c 0,15,16
 115 1111 115 1111 312.5 1315.5 c 128,-1,17
 510 1520 510 1520 860 1520 c 0,18,19
 1006 1520 1006 1520 1137.5 1484 c 128,-1,20
 1269 1448 1269 1448 1380 1378 c 1,21,-1
 1380 1163 l 1,22,23
 1268 1258 1268 1258 1142 1306 c 128,-1,24
 1016 1354 1016 1354 877 1354 c 0,25,26
 603 1354 603 1354 465.5 1201 c 128,-1,27
 328 1048 328 1048 328 745 c 0,28,29
 328 443 328 443 465.5 290 c 128,-1,30
 603 137 603 137 877 137 c 0,31,32
 984 137 984 137 1068 155.5 c 128,-1,33
 1152 174 1152 174 1219 213 c 1,4,-1
EndSplineSet
Validated: 1
EndChar

StartChar: gcommaaccent
Encoding: 291 291 233
Width: 1300
GlyphClass: 2
Flags: W
LayerCount: 2
Fore
SplineSet
722 1269 m 1,0,-1
 511 1269 l 1,1,-1
 675 1588 l 1,2,-1
 804 1588 l 1,3,-1
 722 1269 l 1,0,-1
930 573 m 0,4,5
 930 773 930 773 847.5 883 c 128,-1,6
 765 993 765 993 616 993 c 0,7,8
 468 993 468 993 385.5 883 c 128,-1,9
 303 773 303 773 303 573 c 0,10,11
 303 374 303 374 385.5 264 c 128,-1,12
 468 154 468 154 616 154 c 0,13,14
 765 154 765 154 847.5 264 c 128,-1,15
 930 374 930 374 930 573 c 0,4,5
1114 139 m 2,16,17
 1114 -147 1114 -147 987 -286.5 c 128,-1,18
 860 -426 860 -426 598 -426 c 0,19,20
 501 -426 501 -426 415 -411.5 c 128,-1,21
 329 -397 329 -397 248 -367 c 1,22,-1
 248 -188 l 1,23,24
 329 -232 329 -232 408 -253 c 128,-1,25
 487 -274 487 -274 569 -274 c 0,26,27
 750 -274 750 -274 840 -179.5 c 128,-1,28
 930 -85 930 -85 930 106 c 2,29,-1
 930 197 l 1,30,31
 873 98 873 98 784 49 c 128,-1,32
 695 0 695 0 571 0 c 0,33,34
 365 0 365 0 239 157 c 128,-1,35
 113 314 113 314 113 573 c 0,36,37
 113 833 113 833 239 990 c 128,-1,38
 365 1147 365 1147 571 1147 c 0,39,40
 695 1147 695 1147 784 1098 c 128,-1,41
 873 1049 873 1049 930 950 c 1,42,-1
 930 1120 l 1,43,-1
 1114 1120 l 1,44,-1
 1114 139 l 2,16,17
EndSplineSet
Validated: 1
EndChar

StartChar: Hcircumflex
Encoding: 292 292 234
Width: 1540
GlyphClass: 2
Flags: W
LayerCount: 2
Fore
SplineSet
676 1901 m 1,0,-1
 864 1901 l 1,1,-1
 1075 1635 l 1,2,-1
 936 1635 l 1,3,-1
 770 1813 l 1,4,-1
 604 1635 l 1,5,-1
 465 1635 l 1,6,-1
 676 1901 l 1,0,-1
201 1493 m 1,7,-1
 403 1493 l 1,8,-1
 403 881 l 1,9,-1
 1137 881 l 1,10,-1
 1137 1493 l 1,11,-1
 1339 1493 l 1,12,-1
 1339 0 l 1,13,-1
 1137 0 l 1,14,-1
 1137 711 l 1,15,-1
 403 711 l 1,16,-1
 403 0 l 1,17,-1
 201 0 l 1,18,-1
 201 1493 l 1,7,-1
EndSplineSet
Validated: 1
EndChar

StartChar: hcircumflex
Encoding: 293 293 235
Width: 1298
GlyphClass: 2
Flags: W
LayerCount: 2
Fore
SplineSet
184 1901 m 1,0,-1
 372 1901 l 1,1,-1
 583 1635 l 1,2,-1
 444 1635 l 1,3,-1
 278 1813 l 1,4,-1
 112 1635 l 1,5,-1
 -27 1635 l 1,6,-1
 184 1901 l 1,0,-1
1124 676 m 2,7,-1
 1124 0 l 1,8,-1
 940 0 l 1,9,-1
 940 670 l 2,10,11
 940 829 940 829 878 908 c 128,-1,12
 816 987 816 987 692 987 c 0,13,14
 543 987 543 987 457 892 c 128,-1,15
 371 797 371 797 371 633 c 2,16,-1
 371 0 l 1,17,-1
 186 0 l 1,18,-1
 186 1556 l 1,19,-1
 371 1556 l 1,20,-1
 371 946 l 1,21,22
 437 1047 437 1047 526.5 1097 c 128,-1,23
 616 1147 616 1147 733 1147 c 0,24,25
 926 1147 926 1147 1025 1027.5 c 128,-1,26
 1124 908 1124 908 1124 676 c 2,7,-1
EndSplineSet
Validated: 1
EndChar

StartChar: Hbar
Encoding: 294 294 236
Width: 1876
GlyphClass: 2
Flags: W
AnchorPoint: "Anchor-4" 938 1520 basechar 0
LayerCount: 2
Fore
SplineSet
369 1493 m 1,0,-1
 571 1493 l 1,1,-1
 571 1269 l 1,2,-1
 1305 1269 l 1,3,-1
 1305 1493 l 1,4,-1
 1507 1493 l 1,5,-1
 1507 1269 l 1,6,-1
 1675 1269 l 1,7,-1
 1675 1105 l 1,8,-1
 1507 1105 l 1,9,-1
 1507 0 l 1,10,-1
 1305 0 l 1,11,-1
 1305 711 l 1,12,-1
 571 711 l 1,13,-1
 571 0 l 1,14,-1
 369 0 l 1,15,-1
 369 1105 l 1,16,-1
 201 1105 l 1,17,-1
 201 1269 l 1,18,-1
 369 1269 l 1,19,-1
 369 1493 l 1,0,-1
571 1105 m 1,20,-1
 571 881 l 1,21,-1
 1305 881 l 1,22,-1
 1305 1105 l 1,23,-1
 571 1105 l 1,20,-1
EndSplineSet
Validated: 1
EndChar

StartChar: hbar
Encoding: 295 295 237
Width: 1423
GlyphClass: 2
Flags: W
AnchorPoint: "Anchor-4" 337 1520 basechar 0
LayerCount: 2
Fore
SplineSet
1183 676 m 2,0,-1
 1183 0 l 1,1,-1
 999 0 l 1,2,-1
 999 670 l 2,3,4
 999 829 999 829 937 908 c 128,-1,5
 875 987 875 987 751 987 c 0,6,7
 602 987 602 987 516 892 c 128,-1,8
 430 797 430 797 430 633 c 2,9,-1
 430 0 l 1,10,-1
 245 0 l 1,11,-1
 245 1270 l 1,12,-1
 120 1270 l 1,13,-1
 120 1434 l 1,14,-1
 245 1434 l 1,15,-1
 245 1556 l 1,16,-1
 430 1556 l 1,17,-1
 430 1434 l 1,18,-1
 782 1434 l 1,19,-1
 782 1270 l 1,20,-1
 430 1270 l 1,21,-1
 430 946 l 1,22,23
 496 1047 496 1047 585.5 1097 c 128,-1,24
 675 1147 675 1147 792 1147 c 0,25,26
 985 1147 985 1147 1084 1027.5 c 128,-1,27
 1183 908 1183 908 1183 676 c 2,0,-1
EndSplineSet
Validated: 1
EndChar

StartChar: Itilde
Encoding: 296 296 238
Width: 604
GlyphClass: 2
Flags: W
LayerCount: 2
Fore
SplineSet
298 1710 m 2,0,-1
 241 1743 l 2,1,2
 216 1757 216 1757 200.5 1762.5 c 128,-1,3
 185 1768 185 1768 173 1768 c 0,4,5
 137 1768 137 1768 117 1743 c 128,-1,6
 97 1718 97 1718 97 1673 c 2,7,-1
 97 1667 l 1,8,-1
 -28 1667 l 1,9,10
 -28 1768 -28 1768 23.5 1827 c 128,-1,11
 75 1886 75 1886 161 1886 c 0,12,13
 197 1886 197 1886 227.5 1878 c 128,-1,14
 258 1870 258 1870 306 1843 c 2,15,-1
 363 1813 l 2,16,17
 386 1800 386 1800 403 1794 c 128,-1,18
 420 1788 420 1788 435 1788 c 0,19,20
 467 1788 467 1788 487 1813.5 c 128,-1,21
 507 1839 507 1839 507 1880 c 2,22,-1
 507 1886 l 1,23,-1
 632 1886 l 1,24,25
 630 1786 630 1786 578.5 1726.5 c 128,-1,26
 527 1667 527 1667 443 1667 c 0,27,28
 409 1667 409 1667 379.5 1675 c 128,-1,29
 350 1683 350 1683 298 1710 c 2,0,-1
201 1493 m 1,30,-1
 403 1493 l 1,31,-1
 403 0 l 1,32,-1
 201 0 l 1,33,-1
 201 1493 l 1,30,-1
EndSplineSet
Validated: 1
EndChar

StartChar: itilde
Encoding: 297 297 239
Width: 569
GlyphClass: 2
Flags: W
LayerCount: 2
Fore
SplineSet
281 1370 m 2,0,-1
 224 1425 l 2,1,2
 202 1445 202 1445 185.5 1454.5 c 128,-1,3
 169 1464 169 1464 156 1464 c 0,4,5
 118 1464 118 1464 100 1427.5 c 128,-1,6
 82 1391 82 1391 80 1309 c 1,7,-1
 -45 1309 l 1,8,9
 -43 1444 -43 1444 8 1517.5 c 128,-1,10
 59 1591 59 1591 150 1591 c 0,11,12
 188 1591 188 1591 220 1577 c 128,-1,13
 252 1563 252 1563 289 1530 c 2,14,-1
 346 1475 l 2,15,16
 368 1455 368 1455 384.5 1445.5 c 128,-1,17
 401 1436 401 1436 414 1436 c 0,18,19
 452 1436 452 1436 470 1472.5 c 128,-1,20
 488 1509 488 1509 490 1591 c 1,21,-1
 615 1591 l 1,22,23
 613 1456 613 1456 562 1382.5 c 128,-1,24
 511 1309 511 1309 420 1309 c 0,25,26
 382 1309 382 1309 350 1323 c 128,-1,27
 318 1337 318 1337 281 1370 c 2,0,-1
193 1120 m 1,28,-1
 377 1120 l 1,29,-1
 377 0 l 1,30,-1
 193 0 l 1,31,-1
 193 1120 l 1,28,-1
285 1147 m 1024,32,-1
EndSplineSet
Validated: 1
EndChar

StartChar: Ibreve
Encoding: 300 300 242
Width: 604
GlyphClass: 2
Flags: W
LayerCount: 2
Fore
SplineSet
-11 1901 m 1,0,-1
 107 1901 l 1,1,2
 120 1847 120 1847 169.5 1818.5 c 128,-1,3
 219 1790 219 1790 302 1790 c 0,4,5
 384 1790 384 1790 432.5 1817.5 c 128,-1,6
 481 1845 481 1845 497 1901 c 1,7,-1
 615 1901 l 1,8,9
 605 1782 605 1782 525 1720.5 c 128,-1,10
 445 1659 445 1659 302 1659 c 0,11,12
 158 1659 158 1659 78.5 1720 c 128,-1,13
 -1 1781 -1 1781 -11 1901 c 1,0,-1
201 1493 m 1,14,-1
 403 1493 l 1,15,-1
 403 0 l 1,16,-1
 201 0 l 1,17,-1
 201 1493 l 1,14,-1
EndSplineSet
Validated: 1
EndChar

StartChar: ibreve
Encoding: 301 301 243
Width: 569
GlyphClass: 2
Flags: W
LayerCount: 2
Fore
SplineSet
-28 1608 m 1,0,-1
 90 1608 l 1,1,2
 101 1533 101 1533 149.5 1495.5 c 128,-1,3
 198 1458 198 1458 285 1458 c 0,4,5
 371 1458 371 1458 419 1495 c 128,-1,6
 467 1532 467 1532 480 1608 c 1,7,-1
 598 1608 l 1,8,9
 588 1465 588 1465 509 1393 c 128,-1,10
 430 1321 430 1321 285 1321 c 256,11,12
 140 1321 140 1321 61 1393 c 128,-1,13
 -18 1465 -18 1465 -28 1608 c 1,0,-1
193 1120 m 1,14,-1
 377 1120 l 1,15,-1
 377 0 l 1,16,-1
 193 0 l 1,17,-1
 193 1120 l 1,14,-1
285 1147 m 1024,18,-1
EndSplineSet
Validated: 1
EndChar

StartChar: Iogonek
Encoding: 302 302 244
Width: 604
GlyphClass: 2
Flags: W
LayerCount: 2
Fore
SplineSet
284 0 m 1,0,-1
 403 0 l 1,1,2
 358 -61 358 -61 336.5 -105 c 128,-1,3
 315 -149 315 -149 315 -180 c 0,4,5
 315 -226 315 -226 342.5 -249 c 128,-1,6
 370 -272 370 -272 424 -272 c 0,7,8
 456 -272 456 -272 487 -264.5 c 128,-1,9
 518 -257 518 -257 549 -242 c 1,10,-1
 549 -375 l 1,11,12
 511 -385 511 -385 477 -390 c 128,-1,13
 443 -395 443 -395 413 -395 c 0,14,15
 291 -395 291 -395 233.5 -351.5 c 128,-1,16
 176 -308 176 -308 176 -215 c 0,17,18
 176 -167 176 -167 202.5 -114.5 c 128,-1,19
 229 -62 229 -62 284 0 c 1,0,-1
201 1493 m 1,20,-1
 403 1493 l 1,21,-1
 403 0 l 1,22,-1
 201 0 l 1,23,-1
 201 1493 l 1,20,-1
EndSplineSet
Validated: 5
EndChar

StartChar: iogonek
Encoding: 303 303 245
Width: 569
GlyphClass: 2
Flags: W
LayerCount: 2
Fore
SplineSet
258 0 m 1,0,-1
 377 0 l 1,1,2
 332 -61 332 -61 310.5 -105 c 128,-1,3
 289 -149 289 -149 289 -180 c 0,4,5
 289 -226 289 -226 316.5 -249 c 128,-1,6
 344 -272 344 -272 398 -272 c 0,7,8
 430 -272 430 -272 461 -264.5 c 128,-1,9
 492 -257 492 -257 523 -242 c 1,10,-1
 523 -375 l 1,11,12
 485 -385 485 -385 451 -390 c 128,-1,13
 417 -395 417 -395 387 -395 c 0,14,15
 265 -395 265 -395 207.5 -351.5 c 128,-1,16
 150 -308 150 -308 150 -215 c 0,17,18
 150 -167 150 -167 176.5 -114.5 c 128,-1,19
 203 -62 203 -62 258 0 c 1,0,-1
193 1120 m 1,20,-1
 377 1120 l 1,21,-1
 377 0 l 1,22,-1
 193 0 l 1,23,-1
 193 1120 l 1,20,-1
193 1556 m 1,24,-1
 377 1556 l 1,25,-1
 377 1323 l 1,26,-1
 193 1323 l 1,27,-1
 193 1556 l 1,24,-1
EndSplineSet
Validated: 5
EndChar

StartChar: Idotaccent
Encoding: 304 304 246
Width: 604
GlyphClass: 2
Flags: W
LayerCount: 2
Fore
SplineSet
201 1872 m 1,0,-1
 405 1872 l 1,1,-1
 405 1667 l 1,2,-1
 201 1667 l 1,3,-1
 201 1872 l 1,0,-1
201 1493 m 1,4,-1
 403 1493 l 1,5,-1
 403 0 l 1,6,-1
 201 0 l 1,7,-1
 201 1493 l 1,4,-1
EndSplineSet
Validated: 1
EndChar

StartChar: dotlessi
Encoding: 305 305 247
Width: 569
GlyphClass: 2
Flags: W
AnchorPoint: "Anchor-4" 285 1147 basechar 0 4
LayerCount: 2
Fore
SplineSet
193 1120 m 1,0,-1
 377 1120 l 1,1,-1
 377 0 l 1,2,-1
 193 0 l 1,3,-1
 193 1120 l 1,0,-1
285 1147 m 1024,4,-1
EndSplineSet
Validated: 1
EndChar

StartChar: Jcircumflex
Encoding: 308 308 250
Width: 604
GlyphClass: 2
Flags: W
LayerCount: 2
Fore
SplineSet
208 1901 m 1,0,-1
 396 1901 l 1,1,-1
 607 1635 l 1,2,-1
 468 1635 l 1,3,-1
 302 1813 l 1,4,-1
 136 1635 l 1,5,-1
 -3 1635 l 1,6,-1
 208 1901 l 1,0,-1
201 1493 m 1,7,-1
 403 1493 l 1,8,-1
 403 104 l 2,9,10
 403 -166 403 -166 300.5 -288 c 128,-1,11
 198 -410 198 -410 -29 -410 c 2,12,-1
 -106 -410 l 1,13,-1
 -106 -240 l 1,14,-1
 -43 -240 l 2,15,16
 91 -240 91 -240 146 -165 c 128,-1,17
 201 -90 201 -90 201 104 c 2,18,-1
 201 1493 l 1,7,-1
EndSplineSet
Validated: 1
EndChar

StartChar: jcircumflex
Encoding: 309 309 251
Width: 569
GlyphClass: 2
Flags: W
LayerCount: 2
Fore
SplineSet
211 1638 m 1,0,-1
 359 1638 l 1,1,-1
 604 1262 l 1,2,-1
 465 1262 l 1,3,-1
 285 1507 l 1,4,-1
 105 1262 l 1,5,-1
 -34 1262 l 1,6,-1
 211 1638 l 1,0,-1
193 1120 m 1,7,-1
 377 1120 l 1,8,-1
 377 -20 l 2,9,10
 377 -234 377 -234 295.5 -330 c 128,-1,11
 214 -426 214 -426 33 -426 c 2,12,-1
 -37 -426 l 1,13,-1
 -37 -270 l 1,14,-1
 12 -270 l 2,15,16
 117 -270 117 -270 155 -221.5 c 128,-1,17
 193 -173 193 -173 193 -20 c 2,18,-1
 193 1120 l 1,7,-1
EndSplineSet
Validated: 1
EndChar

StartChar: Kcommaaccent
Encoding: 310 310 252
Width: 1343
GlyphClass: 2
Flags: W
LayerCount: 2
Fore
SplineSet
727 -162 m 1,0,-1
 938 -162 l 1,1,-1
 774 -482 l 1,2,-1
 645 -482 l 1,3,-1
 727 -162 l 1,0,-1
201 1493 m 1,4,-1
 403 1493 l 1,5,-1
 403 862 l 1,6,-1
 1073 1493 l 1,7,-1
 1333 1493 l 1,8,-1
 592 797 l 1,9,-1
 1386 0 l 1,10,-1
 1120 0 l 1,11,-1
 403 719 l 1,12,-1
 403 0 l 1,13,-1
 201 0 l 1,14,-1
 201 1493 l 1,4,-1
EndSplineSet
Validated: 1
EndChar

StartChar: kcommaaccent
Encoding: 311 311 253
Width: 1186
GlyphClass: 2
Flags: W
LayerCount: 2
Fore
SplineSet
616 -162 m 1,0,-1
 827 -162 l 1,1,-1
 663 -482 l 1,2,-1
 534 -482 l 1,3,-1
 616 -162 l 1,0,-1
186 1556 m 1,4,-1
 371 1556 l 1,5,-1
 371 637 l 1,6,-1
 920 1120 l 1,7,-1
 1155 1120 l 1,8,-1
 561 596 l 1,9,-1
 1180 0 l 1,10,-1
 940 0 l 1,11,-1
 371 547 l 1,12,-1
 371 0 l 1,13,-1
 186 0 l 1,14,-1
 186 1556 l 1,4,-1
EndSplineSet
Validated: 1
EndChar

StartChar: kgreenlandic
Encoding: 312 312 254
Width: 1186
GlyphClass: 2
Flags: W
AnchorPoint: "Anchor-4" 678 1147 basechar 0
LayerCount: 2
Fore
SplineSet
186 1120 m 1,0,-1
 371 1120 l 1,1,-1
 371 635 l 1,2,-1
 920 1120 l 1,3,-1
 1155 1120 l 1,4,-1
 561 594 l 1,5,-1
 1180 0 l 1,6,-1
 940 0 l 1,7,-1
 371 545 l 1,8,-1
 371 0 l 1,9,-1
 186 0 l 1,10,-1
 186 1120 l 1,0,-1
EndSplineSet
Validated: 1
EndChar

StartChar: Lacute
Encoding: 313 313 255
Width: 1141
GlyphClass: 2
Flags: W
LayerCount: 2
Fore
SplineSet
421 1900 m 1,0,-1
 606 1900 l 1,1,-1
 378 1636 l 1,2,-1
 225 1636 l 1,3,-1
 421 1900 l 1,0,-1
201 1493 m 1,4,-1
 403 1493 l 1,5,-1
 403 170 l 1,6,-1
 1130 170 l 1,7,-1
 1130 0 l 1,8,-1
 201 0 l 1,9,-1
 201 1493 l 1,4,-1
EndSplineSet
Validated: 1
EndChar

StartChar: lacute
Encoding: 314 314 256
Width: 569
GlyphClass: 2
Flags: W
LayerCount: 2
Fore
SplineSet
401 1900 m 1,0,-1
 586 1900 l 1,1,-1
 358 1636 l 1,2,-1
 205 1636 l 1,3,-1
 401 1900 l 1,0,-1
193 1556 m 1,4,-1
 377 1556 l 1,5,-1
 377 0 l 1,6,-1
 193 0 l 1,7,-1
 193 1556 l 1,4,-1
EndSplineSet
Validated: 1
EndChar

StartChar: Lcommaaccent
Encoding: 315 315 257
Width: 1141
GlyphClass: 2
Flags: W
LayerCount: 2
Fore
SplineSet
599 -162 m 1,0,-1
 810 -162 l 1,1,-1
 646 -482 l 1,2,-1
 517 -482 l 1,3,-1
 599 -162 l 1,0,-1
201 1493 m 1,4,-1
 403 1493 l 1,5,-1
 403 170 l 1,6,-1
 1130 170 l 1,7,-1
 1130 0 l 1,8,-1
 201 0 l 1,9,-1
 201 1493 l 1,4,-1
EndSplineSet
Validated: 1
EndChar

StartChar: lcommaaccent
Encoding: 316 316 258
Width: 569
GlyphClass: 2
Flags: W
LayerCount: 2
Fore
SplineSet
218 -162 m 1,0,-1
 429 -162 l 1,1,-1
 265 -482 l 1,2,-1
 136 -482 l 1,3,-1
 218 -162 l 1,0,-1
193 1556 m 1,4,-1
 377 1556 l 1,5,-1
 377 0 l 1,6,-1
 193 0 l 1,7,-1
 193 1556 l 1,4,-1
EndSplineSet
Validated: 1
EndChar

StartChar: Lcaron
Encoding: 317 317 259
Width: 1141
GlyphClass: 2
Flags: W
LayerCount: 2
Fore
SplineSet
671 1493 m 1,0,-1
 870 1493 l 1,1,-1
 753 1117 l 1,2,-1
 600 1117 l 1,3,-1
 671 1493 l 1,0,-1
201 1493 m 1,4,-1
 403 1493 l 1,5,-1
 403 170 l 1,6,-1
 1130 170 l 1,7,-1
 1130 0 l 1,8,-1
 201 0 l 1,9,-1
 201 1493 l 1,4,-1
EndSplineSet
Validated: 1
EndChar

StartChar: lcaron
Encoding: 318 318 260
Width: 768
GlyphClass: 2
Flags: W
LayerCount: 2
Fore
SplineSet
569 1556 m 1,0,-1
 768 1556 l 1,1,-1
 651 1180 l 1,2,-1
 498 1180 l 1,3,-1
 569 1556 l 1,0,-1
193 1556 m 1,4,-1
 377 1556 l 1,5,-1
 377 0 l 1,6,-1
 193 0 l 1,7,-1
 193 1556 l 1,4,-1
EndSplineSet
Validated: 1
EndChar

StartChar: Lslash
Encoding: 321 321 263
Width: 1151
GlyphClass: 2
Flags: W
LayerCount: 2
Fore
SplineSet
211 1493 m 1,0,-1
 414 1493 l 1,1,-1
 414 877 l 1,2,-1
 727 1096 l 1,3,-1
 807 985 l 1,4,-1
 414 711 l 1,5,-1
 414 170 l 1,6,-1
 1141 170 l 1,7,-1
 1141 0 l 1,8,-1
 211 0 l 1,9,-1
 211 571 l 1,10,-1
 63 465 l 1,11,-1
 -14 575 l 1,12,-1
 211 733 l 1,13,-1
 211 1493 l 1,0,-1
EndSplineSet
Validated: 1
EndChar

StartChar: lslash
Encoding: 322 322 264
Width: 582
GlyphClass: 2
Flags: W
LayerCount: 2
Fore
SplineSet
199 1556 m 1,0,-1
 383 1556 l 1,1,-1
 383 954 l 1,2,-1
 508 1044 l 1,3,-1
 584 938 l 1,4,-1
 383 797 l 1,5,-1
 383 0 l 1,6,-1
 199 0 l 1,7,-1
 199 666 l 1,8,-1
 76 578 l 1,9,-1
 2 684 l 1,10,-1
 199 825 l 1,11,-1
 199 1556 l 1,0,-1
EndSplineSet
Validated: 1
EndChar

StartChar: Nacute
Encoding: 323 323 265
Width: 1532
GlyphClass: 2
Flags: W
LayerCount: 2
Fore
SplineSet
764 1900 m 1,0,-1
 949 1900 l 1,1,-1
 721 1636 l 1,2,-1
 568 1636 l 1,3,-1
 764 1900 l 1,0,-1
201 1493 m 1,4,-1
 473 1493 l 1,5,-1
 1135 244 l 1,6,-1
 1135 1493 l 1,7,-1
 1331 1493 l 1,8,-1
 1331 0 l 1,9,-1
 1059 0 l 1,10,-1
 397 1249 l 1,11,-1
 397 0 l 1,12,-1
 201 0 l 1,13,-1
 201 1493 l 1,4,-1
EndSplineSet
Validated: 1
EndChar

StartChar: Ncommaaccent
Encoding: 325 325 267
Width: 1532
GlyphClass: 2
Flags: W
LayerCount: 2
Fore
SplineSet
700 -162 m 1,0,-1
 911 -162 l 1,1,-1
 747 -482 l 1,2,-1
 618 -482 l 1,3,-1
 700 -162 l 1,0,-1
201 1493 m 1,4,-1
 473 1493 l 1,5,-1
 1135 244 l 1,6,-1
 1135 1493 l 1,7,-1
 1331 1493 l 1,8,-1
 1331 0 l 1,9,-1
 1059 0 l 1,10,-1
 397 1249 l 1,11,-1
 397 0 l 1,12,-1
 201 0 l 1,13,-1
 201 1493 l 1,4,-1
EndSplineSet
Validated: 1
EndChar

StartChar: ncommaaccent
Encoding: 326 326 268
Width: 1298
GlyphClass: 2
Flags: W
LayerCount: 2
Fore
SplineSet
588 -162 m 1,0,-1
 799 -162 l 1,1,-1
 635 -482 l 1,2,-1
 506 -482 l 1,3,-1
 588 -162 l 1,0,-1
1124 676 m 2,4,-1
 1124 0 l 1,5,-1
 940 0 l 1,6,-1
 940 670 l 2,7,8
 940 829 940 829 878 908 c 128,-1,9
 816 987 816 987 692 987 c 0,10,11
 543 987 543 987 457 892 c 128,-1,12
 371 797 371 797 371 633 c 2,13,-1
 371 0 l 1,14,-1
 186 0 l 1,15,-1
 186 1120 l 1,16,-1
 371 1120 l 1,17,-1
 371 946 l 1,18,19
 437 1047 437 1047 526.5 1097 c 128,-1,20
 616 1147 616 1147 733 1147 c 0,21,22
 926 1147 926 1147 1025 1027.5 c 128,-1,23
 1124 908 1124 908 1124 676 c 2,4,-1
EndSplineSet
Validated: 1
EndChar

StartChar: Ncaron
Encoding: 327 327 269
Width: 1532
GlyphClass: 2
Flags: W
LayerCount: 2
Fore
SplineSet
663 1621 m 1,0,-1
 452 1887 l 1,1,-1
 591 1887 l 1,2,-1
 757 1709 l 1,3,-1
 923 1887 l 1,4,-1
 1062 1887 l 1,5,-1
 851 1621 l 1,6,-1
 663 1621 l 1,0,-1
201 1493 m 1,7,-1
 473 1493 l 1,8,-1
 1135 244 l 1,9,-1
 1135 1493 l 1,10,-1
 1331 1493 l 1,11,-1
 1331 0 l 1,12,-1
 1059 0 l 1,13,-1
 397 1249 l 1,14,-1
 397 0 l 1,15,-1
 201 0 l 1,16,-1
 201 1493 l 1,7,-1
EndSplineSet
Validated: 1
EndChar

StartChar: ncaron
Encoding: 328 328 270
Width: 1298
GlyphClass: 2
Flags: W
LayerCount: 2
Fore
SplineSet
579 1262 m 1,0,-1
 334 1638 l 1,1,-1
 473 1638 l 1,2,-1
 653 1393 l 1,3,-1
 833 1638 l 1,4,-1
 972 1638 l 1,5,-1
 727 1262 l 1,6,-1
 579 1262 l 1,0,-1
1124 676 m 2,7,-1
 1124 0 l 1,8,-1
 940 0 l 1,9,-1
 940 670 l 2,10,11
 940 829 940 829 878 908 c 128,-1,12
 816 987 816 987 692 987 c 0,13,14
 543 987 543 987 457 892 c 128,-1,15
 371 797 371 797 371 633 c 2,16,-1
 371 0 l 1,17,-1
 186 0 l 1,18,-1
 186 1120 l 1,19,-1
 371 1120 l 1,20,-1
 371 946 l 1,21,22
 437 1047 437 1047 526.5 1097 c 128,-1,23
 616 1147 616 1147 733 1147 c 0,24,25
 926 1147 926 1147 1025 1027.5 c 128,-1,26
 1124 908 1124 908 1124 676 c 2,7,-1
EndSplineSet
Validated: 1
EndChar

StartChar: napostrophe
Encoding: 329 329 271
Width: 1666
GlyphClass: 2
Flags: W
LayerCount: 2
Fore
SplineSet
287 1493 m 1,0,-1
 498 1493 l 1,1,-1
 498 1341 l 1,2,-1
 334 1022 l 1,3,-1
 205 1022 l 1,4,-1
 287 1341 l 1,5,-1
 287 1493 l 1,0,-1
1465 676 m 2,6,-1
 1465 0 l 1,7,-1
 1281 0 l 1,8,-1
 1281 670 l 2,9,10
 1281 829 1281 829 1219 908 c 128,-1,11
 1157 987 1157 987 1033 987 c 0,12,13
 884 987 884 987 798 892 c 128,-1,14
 712 797 712 797 712 633 c 2,15,-1
 712 0 l 1,16,-1
 527 0 l 1,17,-1
 527 1120 l 1,18,-1
 712 1120 l 1,19,-1
 712 946 l 1,20,21
 778 1047 778 1047 867.5 1097 c 128,-1,22
 957 1147 957 1147 1074 1147 c 0,23,24
 1267 1147 1267 1147 1366 1027.5 c 128,-1,25
 1465 908 1465 908 1465 676 c 2,6,-1
EndSplineSet
Validated: 1
EndChar

StartChar: Eng
Encoding: 330 330 272
Width: 1532
GlyphClass: 2
Flags: W
LayerCount: 2
Fore
SplineSet
1104 895 m 2,0,1
 1104 1323 1104 1323 797 1323 c 0,2,3
 618 1323 618 1323 510.5 1195.5 c 128,-1,4
 403 1068 403 1068 403 846 c 2,5,-1
 403 0 l 1,6,-1
 201 0 l 1,7,-1
 201 1493 l 1,8,-1
 403 1493 l 1,9,-1
 403 1252 l 1,10,11
 481 1386 481 1386 586 1453 c 0,12,13
 692 1520 692 1520 845 1520 c 0,14,15
 1072 1520 1072 1520 1188.5 1360.5 c 128,-1,16
 1305 1201 1305 1201 1305 893 c 2,17,-1
 1305 -20 l 2,18,19
 1305 -233 1305 -233 1224 -330 c 0,20,21
 1142 -426 1142 -426 961 -426 c 2,22,-1
 874 -426 l 1,23,-1
 874 -270 l 1,24,-1
 923 -270 l 2,25,26
 1025 -270 1025 -270 1064.5 -225 c 128,-1,27
 1104 -180 1104 -180 1104 -20 c 2,28,-1
 1104 895 l 2,0,1
EndSplineSet
Validated: 1
EndChar

StartChar: eng
Encoding: 331 331 273
Width: 1298
GlyphClass: 2
Flags: W
AnchorPoint: "Anchor-4" 649 1147 basechar 0
LayerCount: 2
Fore
SplineSet
1124 676 m 2,0,-1
 1124 -20 l 2,1,2
 1124 -234 1124 -234 1042 -330 c 0,3,4
 961 -426 961 -426 780 -426 c 2,5,-1
 526 -426 l 1,6,-1
 526 -270 l 1,7,-1
 759 -270 l 2,8,9
 864 -270 864 -270 902 -222 c 0,10,11
 940 -173 940 -173 940 -20 c 2,12,-1
 940 670 l 2,13,14
 940 829 940 829 878 908 c 128,-1,15
 816 987 816 987 692 987 c 0,16,17
 543 987 543 987 457 892 c 128,-1,18
 371 797 371 797 371 633 c 2,19,-1
 371 0 l 1,20,-1
 186 0 l 1,21,-1
 186 1120 l 1,22,-1
 371 1120 l 1,23,-1
 371 946 l 1,24,25
 437 1047 437 1047 526 1097 c 0,26,27
 616 1147 616 1147 733 1147 c 0,28,29
 926 1147 926 1147 1025 1028 c 0,30,31
 1124 908 1124 908 1124 676 c 2,0,-1
EndSplineSet
Validated: 1
EndChar

StartChar: Obreve
Encoding: 334 334 276
Width: 1612
GlyphClass: 2
Flags: W
LayerCount: 2
Fore
SplineSet
494 1901 m 1,0,-1
 612 1901 l 1,1,2
 625 1847 625 1847 674.5 1818.5 c 128,-1,3
 724 1790 724 1790 807 1790 c 0,4,5
 889 1790 889 1790 937.5 1817.5 c 128,-1,6
 986 1845 986 1845 1002 1901 c 1,7,-1
 1120 1901 l 1,8,9
 1110 1782 1110 1782 1030 1720.5 c 128,-1,10
 950 1659 950 1659 807 1659 c 0,11,12
 663 1659 663 1659 583.5 1720 c 128,-1,13
 504 1781 504 1781 494 1901 c 1,0,-1
807 1356 m 256,14,15
 587 1356 587 1356 457.5 1192 c 128,-1,16
 328 1028 328 1028 328 745 c 0,17,18
 328 463 328 463 457.5 299 c 128,-1,19
 587 135 587 135 807 135 c 256,20,21
 1027 135 1027 135 1155.5 299 c 128,-1,22
 1284 463 1284 463 1284 745 c 0,23,24
 1284 1028 1284 1028 1155.5 1192 c 128,-1,25
 1027 1356 1027 1356 807 1356 c 256,14,15
807 1520 m 0,26,27
 1121 1520 1121 1520 1309 1309.5 c 128,-1,28
 1497 1099 1497 1099 1497 745 c 0,29,30
 1497 392 1497 392 1309 181.5 c 128,-1,31
 1121 -29 1121 -29 807 -29 c 0,32,33
 492 -29 492 -29 303.5 181 c 128,-1,34
 115 391 115 391 115 745 c 256,35,36
 115 1099 115 1099 303.5 1309.5 c 128,-1,37
 492 1520 492 1520 807 1520 c 0,26,27
EndSplineSet
Validated: 1
EndChar

StartChar: obreve
Encoding: 335 335 277
Width: 1253
GlyphClass: 2
Flags: W
LayerCount: 2
Fore
SplineSet
314 1608 m 1,0,-1
 432 1608 l 1,1,2
 443 1533 443 1533 491.5 1495.5 c 128,-1,3
 540 1458 540 1458 627 1458 c 0,4,5
 713 1458 713 1458 761 1495 c 128,-1,6
 809 1532 809 1532 822 1608 c 1,7,-1
 940 1608 l 1,8,9
 930 1465 930 1465 851 1393 c 128,-1,10
 772 1321 772 1321 627 1321 c 256,11,12
 482 1321 482 1321 403 1393 c 128,-1,13
 324 1465 324 1465 314 1608 c 1,0,-1
627 991 m 0,14,15
 479 991 479 991 393 875.5 c 128,-1,16
 307 760 307 760 307 559 c 256,17,18
 307 358 307 358 392.5 242.5 c 128,-1,19
 478 127 478 127 627 127 c 0,20,21
 774 127 774 127 860 243 c 128,-1,22
 946 359 946 359 946 559 c 0,23,24
 946 758 946 758 860 874.5 c 128,-1,25
 774 991 774 991 627 991 c 0,14,15
627 1147 m 0,26,27
 867 1147 867 1147 1004 991 c 128,-1,28
 1141 835 1141 835 1141 559 c 0,29,30
 1141 284 1141 284 1004 127.5 c 128,-1,31
 867 -29 867 -29 627 -29 c 0,32,33
 386 -29 386 -29 249.5 127.5 c 128,-1,34
 113 284 113 284 113 559 c 0,35,36
 113 835 113 835 249.5 991 c 128,-1,37
 386 1147 386 1147 627 1147 c 0,26,27
EndSplineSet
Validated: 1
EndChar

StartChar: Ohungarumlaut
Encoding: 336 336 278
Width: 1612
GlyphClass: 2
Flags: W
LayerCount: 2
Fore
SplineSet
1056 1899 m 1,0,-1
 1241 1899 l 1,1,-1
 1013 1635 l 1,2,-1
 860 1635 l 1,3,-1
 1056 1899 l 1,0,-1
721 1899 m 1,4,-1
 906 1899 l 1,5,-1
 678 1635 l 1,6,-1
 525 1635 l 1,7,-1
 721 1899 l 1,4,-1
807 1356 m 256,8,9
 587 1356 587 1356 457.5 1192 c 128,-1,10
 328 1028 328 1028 328 745 c 0,11,12
 328 463 328 463 457.5 299 c 128,-1,13
 587 135 587 135 807 135 c 256,14,15
 1027 135 1027 135 1155.5 299 c 128,-1,16
 1284 463 1284 463 1284 745 c 0,17,18
 1284 1028 1284 1028 1155.5 1192 c 128,-1,19
 1027 1356 1027 1356 807 1356 c 256,8,9
807 1520 m 0,20,21
 1121 1520 1121 1520 1309 1309.5 c 128,-1,22
 1497 1099 1497 1099 1497 745 c 0,23,24
 1497 392 1497 392 1309 181.5 c 128,-1,25
 1121 -29 1121 -29 807 -29 c 0,26,27
 492 -29 492 -29 303.5 181 c 128,-1,28
 115 391 115 391 115 745 c 256,29,30
 115 1099 115 1099 303.5 1309.5 c 128,-1,31
 492 1520 492 1520 807 1520 c 0,20,21
EndSplineSet
Validated: 1
EndChar

StartChar: OE
Encoding: 338 338 280
Width: 2191
GlyphClass: 2
Flags: W
LayerCount: 2
Fore
SplineSet
2042 1493 m 1,0,-1
 2042 1323 l 1,1,-1
 1300 1323 l 1,2,-1
 1300 881 l 1,3,-1
 2011 881 l 1,4,-1
 2011 711 l 1,5,-1
 1300 711 l 1,6,-1
 1300 170 l 1,7,-1
 2060 170 l 1,8,-1
 2060 0 l 1,9,-1
 995 0 l 2,10,11
 562 0 562 0 338.5 190 c 128,-1,12
 115 380 115 380 115 748 c 0,13,14
 115 1113 115 1113 338.5 1303 c 128,-1,15
 562 1493 562 1493 995 1493 c 2,16,-1
 2042 1493 l 1,0,-1
1098 1323 m 1,17,-1
 969 1323 l 2,18,19
 648 1323 648 1323 488 1179.5 c 128,-1,20
 328 1036 328 1036 328 748 c 0,21,22
 328 459 328 459 488 314.5 c 128,-1,23
 648 170 648 170 969 170 c 2,24,-1
 1098 170 l 1,25,-1
 1098 1323 l 1,17,-1
EndSplineSet
Validated: 1
EndChar

StartChar: oe
Encoding: 339 339 281
Width: 2095
GlyphClass: 2
Flags: W
AnchorPoint: "Anchor-4" 1044 1147 basechar 0
LayerCount: 2
Fore
SplineSet
1802 660 m 1,0,1
 1800 812 1800 812 1718 901.5 c 128,-1,2
 1636 991 1636 991 1499 991 c 0,3,4
 1346 991 1346 991 1253.5 904 c 128,-1,5
 1161 817 1161 817 1147 659 c 1,6,-1
 1802 660 l 1,0,1
1987 606 m 2,7,-1
 1987 516 l 1,8,-1
 1141 516 l 1,9,10
 1153 326 1153 326 1255 226.5 c 128,-1,11
 1357 127 1357 127 1540 127 c 0,12,13
 1646 127 1646 127 1746 153 c 128,-1,14
 1846 179 1846 179 1944 231 c 1,15,-1
 1944 57 l 1,16,17
 1844 15 1844 15 1740 -7 c 128,-1,18
 1636 -29 1636 -29 1530 -29 c 0,19,20
 1370 -29 1370 -29 1249 26 c 128,-1,21
 1128 81 1128 81 1047 190 c 1,22,23
 976 80 976 80 871.5 25.5 c 128,-1,24
 767 -29 767 -29 627 -29 c 0,25,26
 386 -29 386 -29 249.5 127.5 c 128,-1,27
 113 284 113 284 113 559 c 0,28,29
 113 835 113 835 249.5 991 c 128,-1,30
 386 1147 386 1147 627 1147 c 0,31,32
 767 1147 767 1147 872.5 1091.5 c 128,-1,33
 978 1036 978 1036 1044 928 c 1,34,35
 1122 1035 1122 1035 1238 1091 c 128,-1,36
 1354 1147 1354 1147 1497 1147 c 0,37,38
 1723 1147 1723 1147 1855 1001.5 c 128,-1,39
 1987 856 1987 856 1987 606 c 2,7,-1
627 991 m 0,40,41
 479 991 479 991 393 875.5 c 128,-1,42
 307 760 307 760 307 559 c 256,43,44
 307 358 307 358 392.5 242.5 c 128,-1,45
 478 127 478 127 627 127 c 0,46,47
 774 127 774 127 860 243 c 128,-1,48
 946 359 946 359 946 559 c 0,49,50
 946 758 946 758 860 874.5 c 128,-1,51
 774 991 774 991 627 991 c 0,40,41
EndSplineSet
Validated: 1
EndChar

StartChar: Racute
Encoding: 340 340 282
Width: 1423
GlyphClass: 2
Flags: W
LayerCount: 2
Fore
SplineSet
716 1900 m 1,0,-1
 901 1900 l 1,1,-1
 673 1636 l 1,2,-1
 520 1636 l 1,3,-1
 716 1900 l 1,0,-1
909 700 m 1,4,5
 974 678 974 678 1035.5 606 c 128,-1,6
 1097 534 1097 534 1159 408 c 2,7,-1
 1364 0 l 1,8,-1
 1147 0 l 1,9,-1
 956 383 l 2,10,11
 882 533 882 533 812.5 582 c 128,-1,12
 743 631 743 631 623 631 c 2,13,-1
 403 631 l 1,14,-1
 403 0 l 1,15,-1
 201 0 l 1,16,-1
 201 1493 l 1,17,-1
 657 1493 l 2,18,19
 913 1493 913 1493 1039 1386 c 128,-1,20
 1165 1279 1165 1279 1165 1063 c 0,21,22
 1165 922 1165 922 1099.5 829 c 128,-1,23
 1034 736 1034 736 909 700 c 1,4,5
403 1327 m 1,24,-1
 403 797 l 1,25,-1
 657 797 l 2,26,27
 803 797 803 797 877.5 864.5 c 128,-1,28
 952 932 952 932 952 1063 c 256,29,30
 952 1194 952 1194 877.5 1260.5 c 128,-1,31
 803 1327 803 1327 657 1327 c 2,32,-1
 403 1327 l 1,24,-1
EndSplineSet
Validated: 1
EndChar

StartChar: Rcommaaccent
Encoding: 342 342 284
Width: 1423
GlyphClass: 2
Flags: W
LayerCount: 2
Fore
SplineSet
716 -162 m 1,0,-1
 927 -162 l 1,1,-1
 763 -482 l 1,2,-1
 634 -482 l 1,3,-1
 716 -162 l 1,0,-1
909 700 m 1,4,5
 974 678 974 678 1035.5 606 c 128,-1,6
 1097 534 1097 534 1159 408 c 2,7,-1
 1364 0 l 1,8,-1
 1147 0 l 1,9,-1
 956 383 l 2,10,11
 882 533 882 533 812.5 582 c 128,-1,12
 743 631 743 631 623 631 c 2,13,-1
 403 631 l 1,14,-1
 403 0 l 1,15,-1
 201 0 l 1,16,-1
 201 1493 l 1,17,-1
 657 1493 l 2,18,19
 913 1493 913 1493 1039 1386 c 128,-1,20
 1165 1279 1165 1279 1165 1063 c 0,21,22
 1165 922 1165 922 1099.5 829 c 128,-1,23
 1034 736 1034 736 909 700 c 1,4,5
403 1327 m 1,24,-1
 403 797 l 1,25,-1
 657 797 l 2,26,27
 803 797 803 797 877.5 864.5 c 128,-1,28
 952 932 952 932 952 1063 c 256,29,30
 952 1194 952 1194 877.5 1260.5 c 128,-1,31
 803 1327 803 1327 657 1327 c 2,32,-1
 403 1327 l 1,24,-1
EndSplineSet
Validated: 1
EndChar

StartChar: rcommaaccent
Encoding: 343 343 285
Width: 842
GlyphClass: 2
Flags: W
LayerCount: 2
Fore
SplineSet
212 -162 m 1,0,-1
 423 -162 l 1,1,-1
 259 -482 l 1,2,-1
 130 -482 l 1,3,-1
 212 -162 l 1,0,-1
842 948 m 1,4,5
 811 966 811 966 774.5 974.5 c 128,-1,6
 738 983 738 983 694 983 c 0,7,8
 538 983 538 983 454.5 881.5 c 128,-1,9
 371 780 371 780 371 590 c 2,10,-1
 371 0 l 1,11,-1
 186 0 l 1,12,-1
 186 1120 l 1,13,-1
 371 1120 l 1,14,-1
 371 946 l 1,15,16
 429 1048 429 1048 522 1097.5 c 128,-1,17
 615 1147 615 1147 748 1147 c 0,18,19
 767 1147 767 1147 790 1144.5 c 128,-1,20
 813 1142 813 1142 841 1137 c 1,21,-1
 842 948 l 1,4,5
EndSplineSet
Validated: 1
EndChar

StartChar: Rcaron
Encoding: 344 344 286
Width: 1423
GlyphClass: 2
Flags: W
LayerCount: 2
Fore
SplineSet
543 1621 m 1,0,-1
 332 1887 l 1,1,-1
 471 1887 l 1,2,-1
 637 1709 l 1,3,-1
 803 1887 l 1,4,-1
 942 1887 l 1,5,-1
 731 1621 l 1,6,-1
 543 1621 l 1,0,-1
909 700 m 1,7,8
 974 678 974 678 1035.5 606 c 128,-1,9
 1097 534 1097 534 1159 408 c 2,10,-1
 1364 0 l 1,11,-1
 1147 0 l 1,12,-1
 956 383 l 2,13,14
 882 533 882 533 812.5 582 c 128,-1,15
 743 631 743 631 623 631 c 2,16,-1
 403 631 l 1,17,-1
 403 0 l 1,18,-1
 201 0 l 1,19,-1
 201 1493 l 1,20,-1
 657 1493 l 2,21,22
 913 1493 913 1493 1039 1386 c 128,-1,23
 1165 1279 1165 1279 1165 1063 c 0,24,25
 1165 922 1165 922 1099.5 829 c 128,-1,26
 1034 736 1034 736 909 700 c 1,7,8
403 1327 m 1,27,-1
 403 797 l 1,28,-1
 657 797 l 2,29,30
 803 797 803 797 877.5 864.5 c 128,-1,31
 952 932 952 932 952 1063 c 256,32,33
 952 1194 952 1194 877.5 1260.5 c 128,-1,34
 803 1327 803 1327 657 1327 c 2,35,-1
 403 1327 l 1,27,-1
EndSplineSet
Validated: 1
EndChar

StartChar: rcaron
Encoding: 345 345 287
Width: 842
GlyphClass: 2
Flags: W
LayerCount: 2
Fore
SplineSet
465 1262 m 1,0,-1
 220 1638 l 1,1,-1
 359 1638 l 1,2,-1
 539 1393 l 1,3,-1
 719 1638 l 1,4,-1
 858 1638 l 1,5,-1
 613 1262 l 1,6,-1
 465 1262 l 1,0,-1
842 948 m 1,7,8
 811 966 811 966 774.5 974.5 c 128,-1,9
 738 983 738 983 694 983 c 0,10,11
 538 983 538 983 454.5 881.5 c 128,-1,12
 371 780 371 780 371 590 c 2,13,-1
 371 0 l 1,14,-1
 186 0 l 1,15,-1
 186 1120 l 1,16,-1
 371 1120 l 1,17,-1
 371 946 l 1,18,19
 429 1048 429 1048 522 1097.5 c 128,-1,20
 615 1147 615 1147 748 1147 c 0,21,22
 767 1147 767 1147 790 1144.5 c 128,-1,23
 813 1142 813 1142 841 1137 c 1,24,-1
 842 948 l 1,7,8
EndSplineSet
Validated: 1
EndChar

StartChar: Sacute
Encoding: 346 346 288
Width: 1300
GlyphClass: 2
Flags: W
LayerCount: 2
Fore
SplineSet
716 1900 m 1,0,-1
 901 1900 l 1,1,-1
 673 1636 l 1,2,-1
 520 1636 l 1,3,-1
 716 1900 l 1,0,-1
1096 1444 m 1,4,-1
 1096 1247 l 1,5,6
 981 1302 981 1302 879 1329 c 128,-1,7
 777 1356 777 1356 682 1356 c 0,8,9
 517 1356 517 1356 427.5 1292 c 128,-1,10
 338 1228 338 1228 338 1110 c 0,11,12
 338 1011 338 1011 397.5 960.5 c 128,-1,13
 457 910 457 910 623 879 c 2,14,-1
 745 854 l 2,15,16
 971 811 971 811 1078.5 702.5 c 128,-1,17
 1186 594 1186 594 1186 412 c 0,18,19
 1186 195 1186 195 1040.5 83 c 128,-1,20
 895 -29 895 -29 614 -29 c 0,21,22
 508 -29 508 -29 388.5 -5 c 128,-1,23
 269 19 269 19 141 66 c 1,24,-1
 141 274 l 1,25,26
 264 205 264 205 382 170 c 128,-1,27
 500 135 500 135 614 135 c 0,28,29
 787 135 787 135 881 203 c 128,-1,30
 975 271 975 271 975 397 c 0,31,32
 975 507 975 507 907.5 569 c 128,-1,33
 840 631 840 631 686 662 c 2,34,-1
 563 686 l 2,35,36
 337 731 337 731 236 827 c 128,-1,37
 135 923 135 923 135 1094 c 0,38,39
 135 1292 135 1292 274.5 1406 c 128,-1,40
 414 1520 414 1520 659 1520 c 0,41,42
 764 1520 764 1520 873 1501 c 128,-1,43
 982 1482 982 1482 1096 1444 c 1,4,-1
EndSplineSet
Validated: 1
EndChar

StartChar: Scircumflex
Encoding: 348 348 290
Width: 1300
GlyphClass: 2
Flags: W
LayerCount: 2
Fore
SplineSet
565 1901 m 1,0,-1
 753 1901 l 1,1,-1
 964 1635 l 1,2,-1
 825 1635 l 1,3,-1
 659 1813 l 1,4,-1
 493 1635 l 1,5,-1
 354 1635 l 1,6,-1
 565 1901 l 1,0,-1
1096 1444 m 1,7,-1
 1096 1247 l 1,8,9
 981 1302 981 1302 879 1329 c 128,-1,10
 777 1356 777 1356 682 1356 c 0,11,12
 517 1356 517 1356 427.5 1292 c 128,-1,13
 338 1228 338 1228 338 1110 c 0,14,15
 338 1011 338 1011 397.5 960.5 c 128,-1,16
 457 910 457 910 623 879 c 2,17,-1
 745 854 l 2,18,19
 971 811 971 811 1078.5 702.5 c 128,-1,20
 1186 594 1186 594 1186 412 c 0,21,22
 1186 195 1186 195 1040.5 83 c 128,-1,23
 895 -29 895 -29 614 -29 c 0,24,25
 508 -29 508 -29 388.5 -5 c 128,-1,26
 269 19 269 19 141 66 c 1,27,-1
 141 274 l 1,28,29
 264 205 264 205 382 170 c 128,-1,30
 500 135 500 135 614 135 c 0,31,32
 787 135 787 135 881 203 c 128,-1,33
 975 271 975 271 975 397 c 0,34,35
 975 507 975 507 907.5 569 c 128,-1,36
 840 631 840 631 686 662 c 2,37,-1
 563 686 l 2,38,39
 337 731 337 731 236 827 c 128,-1,40
 135 923 135 923 135 1094 c 0,41,42
 135 1292 135 1292 274.5 1406 c 128,-1,43
 414 1520 414 1520 659 1520 c 0,44,45
 764 1520 764 1520 873 1501 c 128,-1,46
 982 1482 982 1482 1096 1444 c 1,7,-1
EndSplineSet
Validated: 1
EndChar

StartChar: scircumflex
Encoding: 349 349 291
Width: 1067
GlyphClass: 2
Flags: W
LayerCount: 2
Fore
SplineSet
475 1638 m 1,0,-1
 623 1638 l 1,1,-1
 868 1262 l 1,2,-1
 729 1262 l 1,3,-1
 549 1507 l 1,4,-1
 369 1262 l 1,5,-1
 230 1262 l 1,6,-1
 475 1638 l 1,0,-1
907 1087 m 1,7,-1
 907 913 l 1,8,9
 829 953 829 953 745 973 c 128,-1,10
 661 993 661 993 571 993 c 0,11,12
 434 993 434 993 365.5 951 c 128,-1,13
 297 909 297 909 297 825 c 0,14,15
 297 761 297 761 346 724.5 c 128,-1,16
 395 688 395 688 543 655 c 2,17,-1
 606 641 l 2,18,19
 802 599 802 599 884.5 522.5 c 128,-1,20
 967 446 967 446 967 309 c 0,21,22
 967 153 967 153 843.5 62 c 128,-1,23
 720 -29 720 -29 504 -29 c 0,24,25
 414 -29 414 -29 316.5 -11.5 c 128,-1,26
 219 6 219 6 111 41 c 1,27,-1
 111 231 l 1,28,29
 213 178 213 178 312 151.5 c 128,-1,30
 411 125 411 125 508 125 c 0,31,32
 638 125 638 125 708 169.5 c 128,-1,33
 778 214 778 214 778 295 c 0,34,35
 778 370 778 370 727.5 410 c 128,-1,36
 677 450 677 450 506 487 c 2,37,-1
 442 502 l 2,38,39
 271 538 271 538 195 612.5 c 128,-1,40
 119 687 119 687 119 817 c 0,41,42
 119 975 119 975 231 1061 c 128,-1,43
 343 1147 343 1147 549 1147 c 0,44,45
 651 1147 651 1147 741 1132 c 128,-1,46
 831 1117 831 1117 907 1087 c 1,7,-1
EndSplineSet
Validated: 1
EndChar

StartChar: Scaron
Encoding: 352 352 294
Width: 1300
GlyphClass: 2
Flags: W
LayerCount: 2
Fore
SplineSet
557 1635 m 1,0,-1
 346 1901 l 1,1,-1
 485 1901 l 1,2,-1
 651 1723 l 1,3,-1
 817 1901 l 1,4,-1
 956 1901 l 1,5,-1
 745 1635 l 1,6,-1
 557 1635 l 1,0,-1
1096 1444 m 1,7,-1
 1096 1247 l 1,8,9
 981 1302 981 1302 879 1329 c 128,-1,10
 777 1356 777 1356 682 1356 c 0,11,12
 517 1356 517 1356 427.5 1292 c 128,-1,13
 338 1228 338 1228 338 1110 c 0,14,15
 338 1011 338 1011 397.5 960.5 c 128,-1,16
 457 910 457 910 623 879 c 2,17,-1
 745 854 l 2,18,19
 971 811 971 811 1078.5 702.5 c 128,-1,20
 1186 594 1186 594 1186 412 c 0,21,22
 1186 195 1186 195 1040.5 83 c 128,-1,23
 895 -29 895 -29 614 -29 c 0,24,25
 508 -29 508 -29 388.5 -5 c 128,-1,26
 269 19 269 19 141 66 c 1,27,-1
 141 274 l 1,28,29
 264 205 264 205 382 170 c 128,-1,30
 500 135 500 135 614 135 c 0,31,32
 787 135 787 135 881 203 c 128,-1,33
 975 271 975 271 975 397 c 0,34,35
 975 507 975 507 907.5 569 c 128,-1,36
 840 631 840 631 686 662 c 2,37,-1
 563 686 l 2,38,39
 337 731 337 731 236 827 c 128,-1,40
 135 923 135 923 135 1094 c 0,41,42
 135 1292 135 1292 274.5 1406 c 128,-1,43
 414 1520 414 1520 659 1520 c 0,44,45
 764 1520 764 1520 873 1501 c 128,-1,46
 982 1482 982 1482 1096 1444 c 1,7,-1
EndSplineSet
Validated: 1
EndChar

StartChar: scaron
Encoding: 353 353 295
Width: 1067
GlyphClass: 2
Flags: W
LayerCount: 2
Fore
SplineSet
481 1262 m 1,0,-1
 236 1638 l 1,1,-1
 375 1638 l 1,2,-1
 555 1393 l 1,3,-1
 735 1638 l 1,4,-1
 874 1638 l 1,5,-1
 629 1262 l 1,6,-1
 481 1262 l 1,0,-1
551 1147 m 1024,7,-1
907 1087 m 1,8,-1
 907 913 l 1,9,10
 829 953 829 953 745 973 c 128,-1,11
 661 993 661 993 571 993 c 0,12,13
 434 993 434 993 365.5 951 c 128,-1,14
 297 909 297 909 297 825 c 0,15,16
 297 761 297 761 346 724.5 c 128,-1,17
 395 688 395 688 543 655 c 2,18,-1
 606 641 l 2,19,20
 802 599 802 599 884.5 522.5 c 128,-1,21
 967 446 967 446 967 309 c 0,22,23
 967 153 967 153 843.5 62 c 128,-1,24
 720 -29 720 -29 504 -29 c 0,25,26
 414 -29 414 -29 316.5 -11.5 c 128,-1,27
 219 6 219 6 111 41 c 1,28,-1
 111 231 l 1,29,30
 213 178 213 178 312 151.5 c 128,-1,31
 411 125 411 125 508 125 c 0,32,33
 638 125 638 125 708 169.5 c 128,-1,34
 778 214 778 214 778 295 c 0,35,36
 778 370 778 370 727.5 410 c 128,-1,37
 677 450 677 450 506 487 c 2,38,-1
 442 502 l 2,39,40
 271 538 271 538 195 612.5 c 128,-1,41
 119 687 119 687 119 817 c 0,42,43
 119 975 119 975 231 1061 c 128,-1,44
 343 1147 343 1147 549 1147 c 0,45,46
 651 1147 651 1147 741 1132 c 128,-1,47
 831 1117 831 1117 907 1087 c 1,8,-1
EndSplineSet
Validated: 1
EndChar

StartChar: Tcaron
Encoding: 356 356 298
Width: 1251
GlyphClass: 2
Flags: W
LayerCount: 2
Fore
SplineSet
533 1621 m 1,0,-1
 322 1887 l 1,1,-1
 461 1887 l 1,2,-1
 627 1709 l 1,3,-1
 793 1887 l 1,4,-1
 932 1887 l 1,5,-1
 721 1621 l 1,6,-1
 533 1621 l 1,0,-1
-6 1493 m 1,7,-1
 1257 1493 l 1,8,-1
 1257 1323 l 1,9,-1
 727 1323 l 1,10,-1
 727 0 l 1,11,-1
 524 0 l 1,12,-1
 524 1323 l 1,13,-1
 -6 1323 l 1,14,-1
 -6 1493 l 1,7,-1
EndSplineSet
Validated: 1
EndChar

StartChar: tcaron
Encoding: 357 357 299
Width: 803
GlyphClass: 2
Flags: W
LayerCount: 2
Fore
SplineSet
567 1666 m 1,0,-1
 766 1666 l 1,1,-1
 649 1290 l 1,2,-1
 496 1290 l 1,3,-1
 567 1666 l 1,0,-1
375 1438 m 1,4,-1
 375 1120 l 1,5,-1
 754 1120 l 1,6,-1
 754 977 l 1,7,-1
 375 977 l 1,8,-1
 375 369 l 2,9,10
 375 232 375 232 412.5 193 c 128,-1,11
 450 154 450 154 565 154 c 2,12,-1
 754 154 l 1,13,-1
 754 0 l 1,14,-1
 565 0 l 2,15,16
 352 0 352 0 271 79.5 c 128,-1,17
 190 159 190 159 190 369 c 2,18,-1
 190 977 l 1,19,-1
 55 977 l 1,20,-1
 55 1120 l 1,21,-1
 190 1120 l 1,22,-1
 190 1438 l 1,23,-1
 375 1438 l 1,4,-1
EndSplineSet
Validated: 1
EndChar

StartChar: Tbar
Encoding: 358 358 300
Width: 1251
GlyphClass: 2
Flags: W
AnchorPoint: "Anchor-4" 627 1520 basechar 0
LayerCount: 2
Fore
SplineSet
-6 1493 m 1,0,-1
 1257 1493 l 1,1,-1
 1257 1323 l 1,2,-1
 727 1323 l 1,3,-1
 727 747 l 1,4,-1
 992 747 l 1,5,-1
 992 577 l 1,6,-1
 727 577 l 1,7,-1
 727 0 l 1,8,-1
 524 0 l 1,9,-1
 524 577 l 1,10,-1
 259 577 l 1,11,-1
 259 747 l 1,12,-1
 524 747 l 1,13,-1
 524 1323 l 1,14,-1
 -6 1323 l 1,15,-1
 -6 1493 l 1,0,-1
EndSplineSet
Validated: 1
EndChar

